<ttFont>
<head>
    <!-- Most of this table will be recalculated by the compiler -->
    <tableVersion value="1.0"/>
    <fontRevision value="1.0"/>
    <checkSumAdjustment value="0x7207394b"/>
    <magicNumber value="0x5f0f3cf5"/>
    <flags value="00000000 00011011"/>
    <unitsPerEm value="1000"/>
    <created value="Sat Dec  6 13:43:37 2025"/>
    <modified value="Sat Dec  6 13:50:01 2025"/>
    <xMin value="-15"/>
    <yMin value="-250"/>
    <xMax value="1216"/>
    <yMax value="750"/>
    <macStyle value="00000000 00000011"/>
    <lowestRecPPEM value="6"/>
    <fontDirectionHint value="2"/>
    <indexToLocFormat value="0"/>
    <glyphDataFormat value="0"/>
  </head>
    <TTGlyph name="A" xMin="45" yMin="0" xMax="834" yMax="711">
      <contour>
        <pt x="739" y="67" on="1"/>
        <pt x="741" y="54" on="0"/>
        <pt x="746" y="49" on="0"/>
        <pt x="755" y="48" on="1"/>
        <pt x="766" y="47" on="0"/>
        <pt x="783" y="47" on="0"/>
        <pt x="794" y="47" on="1"/>
        <pt x="813" y="47" on="0"/>
        <pt x="834" y="43" on="0"/>
        <pt x="834" y="29" on="1"/>
        <pt x="834" y="18" on="0"/>
        <pt x="828" y="6" on="0"/>
        <pt x="819" y="1" on="0"/>
        <pt x="809" y="0" on="0"/>
        <pt x="806" y="0" on="1"/>
        <pt x="789" y="0" on="0"/>
        <pt x="753" y="2" on="0"/>
        <pt x="736" y="2" on="1"/>
        <pt x="719" y="2" on="0"/>
        <pt x="684" y="3" on="0"/>
        <pt x="667" y="3" on="1"/>
        <pt x="655" y="3" on="0"/>
        <pt x="614" y="2" on="0"/>
        <pt x="571" y="1" on="0"/>
        <pt x="530" y="0" on="0"/>
        <pt x="518" y="0" on="1"/>
        <pt x="510" y="0" on="0"/>
        <pt x="496" y="8" on="0"/>
        <pt x="496" y="18" on="1"/>
        <pt x="496" y="40" on="0"/>
        <pt x="518" y="47" on="0"/>
        <pt x="533" y="47" on="1"/>
        <pt x="544" y="47" on="0"/>
        <pt x="584" y="49" on="0"/>
        <pt x="598" y="52" on="1"/>
        <pt x="575" y="198" on="1"/>
        <pt x="305" y="198" on="1"/>
        <pt x="213" y="58" on="1"/>
        <pt x="230" y="50" on="0"/>
        <pt x="265" y="47" on="0"/>
        <pt x="271" y="47" on="1"/>
        <pt x="277" y="47" on="0"/>
        <pt x="297" y="43" on="0"/>
        <pt x="297" y="29" on="1"/>
        <pt x="297" y="18" on="0"/>
        <pt x="291" y="6" on="0"/>
        <pt x="282" y="1" on="0"/>
        <pt x="273" y="0" on="0"/>
        <pt x="270" y="0" on="1"/>
        <pt x="243" y="0" on="0"/>
        <pt x="187" y="3" on="0"/>
        <pt x="159" y="3" on="1"/>
        <pt x="136" y="3" on="0"/>
        <pt x="87" y="0" on="0"/>
        <pt x="64" y="0" on="1"/>
        <pt x="55" y="0" on="0"/>
        <pt x="45" y="12" on="0"/>
        <pt x="45" y="18" on="1"/>
        <pt x="45" y="40" on="0"/>
        <pt x="66" y="47" on="0"/>
        <pt x="77" y="47" on="1"/>
        <pt x="104" y="47" on="0"/>
        <pt x="138" y="54" on="0"/>
        <pt x="159" y="65" on="0"/>
        <pt x="170" y="78" on="0"/>
        <pt x="174" y="85" on="1"/>
        <pt x="567" y="686" on="1"/>
        <pt x="578" y="702" on="0"/>
        <pt x="594" y="711" on="0"/>
        <pt x="611" y="711" on="1"/>
        <pt x="630" y="711" on="0"/>
        <pt x="642" y="701" on="0"/>
        <pt x="645" y="682" on="1"/>
      </contour>
      <contour>
        <pt x="336" y="245" on="1"/>
        <pt x="568" y="245" on="1"/>
        <pt x="524" y="533" on="1"/>
      </contour>
    </TTGlyph>
    <TTGlyph name="B" xMin="43" yMin="0" xMax="854" yMax="686">
      <contour>
        <pt x="306" y="637" on="1"/>
        <pt x="290" y="638" on="0"/>
        <pt x="261" y="639" on="0"/>
        <pt x="245" y="639" on="1"/>
        <pt x="223" y="639" on="0"/>
        <pt x="203" y="643" on="0"/>
        <pt x="203" y="657" on="1"/>
        <pt x="203" y="679" on="0"/>
        <pt x="225" y="686" on="0"/>
        <pt x="240" y="686" on="1"/>
        <pt x="641" y="686" on="1"/>
        <pt x="747" y="686" on="0"/>
        <pt x="854" y="609" on="0"/>
        <pt x="854" y="547" on="1"/>
        <pt x="854" y="522" on="0"/>
        <pt x="831" y="465" on="0"/>
        <pt x="780" y="412" on="0"/>
        <pt x="697" y="369" on="0"/>
        <pt x="637" y="358" on="1"/>
        <pt x="672" y="355" on="0"/>
        <pt x="732" y="336" on="0"/>
        <pt x="778" y="302" on="0"/>
        <pt x="804" y="253" on="0"/>
        <pt x="804" y="221" on="1"/>
        <pt x="804" y="188" on="0"/>
        <pt x="768" y="110" on="0"/>
        <pt x="694" y="44" on="0"/>
        <pt x="579" y="0" on="0"/>
        <pt x="501" y="0" on="1"/>
        <pt x="77" y="0" on="1"/>
        <pt x="65" y="0" on="0"/>
        <pt x="43" y="4" on="0"/>
        <pt x="43" y="18" on="1"/>
        <pt x="43" y="21" on="0"/>
        <pt x="46" y="40" on="0"/>
        <pt x="55" y="45" on="1"/>
        <pt x="58" y="47" on="0"/>
        <pt x="67" y="47" on="0"/>
        <pt x="87" y="47" on="1"/>
        <pt x="99" y="47" on="0"/>
        <pt x="127" y="47" on="0"/>
        <pt x="140" y="48" on="1"/>
        <pt x="154" y="50" on="0"/>
        <pt x="160" y="55" on="0"/>
        <pt x="163" y="67" on="1"/>
      </contour>
      <contour>
        <pt x="369" y="375" on="1"/>
        <pt x="527" y="375" on="1"/>
        <pt x="578" y="375" on="0"/>
        <pt x="651" y="411" on="0"/>
        <pt x="697" y="464" on="0"/>
        <pt x="719" y="526" on="0"/>
        <pt x="719" y="552" on="1"/>
        <pt x="719" y="585" on="0"/>
        <pt x="693" y="620" on="0"/>
        <pt x="659" y="636" on="0"/>
        <pt x="626" y="639" on="0"/>
        <pt x="618" y="639" on="1"/>
        <pt x="469" y="639" on="1"/>
        <pt x="461" y="639" on="0"/>
        <pt x="449" y="639" on="0"/>
        <pt x="442" y="638" on="1"/>
        <pt x="437" y="637" on="0"/>
        <pt x="434" y="632" on="0"/>
        <pt x="431" y="621" on="1"/>
      </contour>
      <contour>
        <pt x="472" y="47" on="1"/>
        <pt x="525" y="47" on="0"/>
        <pt x="599" y="85" on="0"/>
        <pt x="645" y="142" on="0"/>
        <pt x="665" y="208" on="0"/>
        <pt x="665" y="237" on="1"/>
        <pt x="665" y="275" on="0"/>
        <pt x="638" y="317" on="0"/>
        <pt x="602" y="336" on="0"/>
        <pt x="565" y="339" on="0"/>
        <pt x="555" y="339" on="1"/>
        <pt x="360" y="339" on="1"/>
        <pt x="288" y="48" on="1"/>
        <pt x="293" y="47" on="0"/>
        <pt x="301" y="47" on="0"/>
        <pt x="312" y="47" on="1"/>
      </contour>
    </TTGlyph>
    <TTGlyph name="C" xMin="55" yMin="-17" xMax="855" yMax="703">
      <contour>
        <pt x="795" y="448" on="1"/>
        <pt x="791" y="432" on="0"/>
        <pt x="784" y="426" on="0"/>
        <pt x="767" y="426" on="1"/>
        <pt x="756" y="426" on="0"/>
        <pt x="740" y="430" on="0"/>
        <pt x="740" y="441" on="1"/>
        <pt x="740" y="449" on="0"/>
        <pt x="743" y="468" on="0"/>
        <pt x="743" y="476" on="1"/>
        <pt x="743" y="509" on="0"/>
        <pt x="723" y="574" on="0"/>
        <pt x="681" y="625" on="0"/>
        <pt x="616" y="656" on="0"/>
        <pt x="570" y="656" on="1"/>
        <pt x="487" y="656" on="0"/>
        <pt x="350" y="592" on="0"/>
        <pt x="309" y="544" on="1"/>
        <pt x="272" y="501" on="0"/>
        <pt x="227" y="394" on="0"/>
        <pt x="202" y="297" on="0"/>
        <pt x="194" y="223" on="0"/>
        <pt x="194" y="212" on="1"/>
        <pt x="194" y="163" on="0"/>
        <pt x="228" y="94" on="0"/>
        <pt x="286" y="50" on="0"/>
        <pt x="364" y="30" on="0"/>
        <pt x="408" y="30" on="1"/>
        <pt x="451" y="30" on="0"/>
        <pt x="539" y="56" on="0"/>
        <pt x="617" y="107" on="0"/>
        <pt x="678" y="181" on="0"/>
        <pt x="693" y="229" on="1"/>
        <pt x="697" y="242" on="0"/>
        <pt x="704" y="248" on="0"/>
        <pt x="718" y="248" on="1"/>
        <pt x="725" y="248" on="0"/>
        <pt x="741" y="245" on="0"/>
        <pt x="741" y="234" on="1"/>
        <pt x="741" y="232" on="0"/>
        <pt x="732" y="199" on="0"/>
        <pt x="707" y="150" on="0"/>
        <pt x="662" y="92" on="0"/>
        <pt x="626" y="65" on="1"/>
        <pt x="569" y="23" on="0"/>
        <pt x="444" y="-17" on="0"/>
        <pt x="381" y="-17" on="1"/>
        <pt x="315" y="-17" on="0"/>
        <pt x="197" y="14" on="0"/>
        <pt x="108" y="80" on="0"/>
        <pt x="55" y="182" on="0"/>
        <pt x="55" y="253" on="1"/>
        <pt x="55" y="330" on="0"/>
        <pt x="120" y="490" on="0"/>
        <pt x="247" y="620" on="0"/>
        <pt x="433" y="703" on="0"/>
        <pt x="554" y="703" on="1"/>
        <pt x="606" y="703" on="0"/>
        <pt x="702" y="669" on="0"/>
        <pt x="737" y="631" on="1"/>
        <pt x="830" y="703" on="1"/>
        <pt x="838" y="703" on="0"/>
        <pt x="855" y="700" on="0"/>
        <pt x="855" y="689" on="1"/>
        <pt x="855" y="684" on="0"/>
        <pt x="853" y="677" on="0"/>
        <pt x="852" y="673" on="1"/>
      </contour>
    </TTGlyph>
    <TTGlyph name="D" xMin="43" yMin="0" xMax="915" yMax="686">
      <contour>
        <pt x="306" y="637" on="1"/>
        <pt x="290" y="638" on="0"/>
        <pt x="261" y="639" on="0"/>
        <pt x="245" y="639" on="1"/>
        <pt x="223" y="639" on="0"/>
        <pt x="203" y="643" on="0"/>
        <pt x="203" y="657" on="1"/>
        <pt x="203" y="679" on="0"/>
        <pt x="225" y="686" on="0"/>
        <pt x="240" y="686" on="1"/>
        <pt x="639" y="686" on="1"/>
        <pt x="695" y="686" on="0"/>
        <pt x="795" y="657" on="0"/>
        <pt x="871" y="597" on="0"/>
        <pt x="915" y="504" on="0"/>
        <pt x="915" y="439" on="1"/>
        <pt x="915" y="363" on="0"/>
        <pt x="856" y="207" on="0"/>
        <pt x="742" y="80" on="0"/>
        <pt x="576" y="0" on="0"/>
        <pt x="468" y="0" on="1"/>
        <pt x="77" y="0" on="1"/>
        <pt x="65" y="0" on="0"/>
        <pt x="43" y="4" on="0"/>
        <pt x="43" y="18" on="1"/>
        <pt x="43" y="21" on="0"/>
        <pt x="46" y="40" on="0"/>
        <pt x="55" y="45" on="1"/>
        <pt x="58" y="47" on="0"/>
        <pt x="67" y="47" on="0"/>
        <pt x="87" y="47" on="1"/>
        <pt x="99" y="47" on="0"/>
        <pt x="127" y="47" on="0"/>
        <pt x="140" y="48" on="1"/>
        <pt x="154" y="50" on="0"/>
        <pt x="160" y="55" on="0"/>
        <pt x="163" y="67" on="1"/>
      </contour>
      <contour>
        <pt x="293" y="48" on="1"/>
        <pt x="298" y="47" on="0"/>
        <pt x="306" y="47" on="0"/>
        <pt x="317" y="47" on="1"/>
        <pt x="441" y="47" on="1"/>
        <pt x="528" y="47" on="0"/>
        <pt x="674" y="122" on="0"/>
        <pt x="718" y="210" on="1"/>
        <pt x="728" y="231" on="0"/>
        <pt x="751" y="299" on="0"/>
        <pt x="770" y="374" on="0"/>
        <pt x="782" y="448" on="0"/>
        <pt x="782" y="474" on="1"/>
        <pt x="782" y="519" on="0"/>
        <pt x="753" y="582" on="0"/>
        <pt x="701" y="621" on="0"/>
        <pt x="630" y="639" on="0"/>
        <pt x="588" y="639" on="1"/>
        <pt x="474" y="639" on="1"/>
        <pt x="466" y="639" on="0"/>
        <pt x="454" y="639" on="0"/>
        <pt x="447" y="638" on="1"/>
        <pt x="442" y="637" on="0"/>
        <pt x="439" y="632" on="0"/>
        <pt x="436" y="621" on="1"/>
      </contour>
    </TTGlyph>
    <TTGlyph name="E" xMin="43" yMin="0" xMax="825" yMax="680">
      <contour>
        <pt x="685" y="21" on="1"/>
        <pt x="678" y="5" on="0"/>
        <pt x="666" y="0" on="0"/>
        <pt x="648" y="0" on="1"/>
        <pt x="77" y="0" on="1"/>
        <pt x="64" y="0" on="0"/>
        <pt x="43" y="4" on="0"/>
        <pt x="43" y="18" on="1"/>
        <pt x="43" y="21" on="0"/>
        <pt x="46" y="40" on="0"/>
        <pt x="55" y="45" on="1"/>
        <pt x="58" y="47" on="0"/>
        <pt x="67" y="47" on="0"/>
        <pt x="87" y="47" on="1"/>
        <pt x="99" y="47" on="0"/>
        <pt x="127" y="47" on="0"/>
        <pt x="140" y="48" on="1"/>
        <pt x="154" y="50" on="0"/>
        <pt x="160" y="55" on="0"/>
        <pt x="163" y="67" on="1"/>
        <pt x="304" y="631" on="1"/>
        <pt x="288" y="632" on="0"/>
        <pt x="259" y="633" on="0"/>
        <pt x="243" y="633" on="1"/>
        <pt x="223" y="633" on="0"/>
        <pt x="202" y="637" on="0"/>
        <pt x="202" y="651" on="1"/>
        <pt x="202" y="652" on="0"/>
        <pt x="206" y="671" on="0"/>
        <pt x="211" y="675" on="1"/>
        <pt x="215" y="678" on="0"/>
        <pt x="222" y="680" on="0"/>
        <pt x="238" y="680" on="1"/>
        <pt x="792" y="680" on="1"/>
        <pt x="804" y="680" on="0"/>
        <pt x="825" y="676" on="0"/>
        <pt x="825" y="662" on="1"/>
        <pt x="824" y="646" on="1"/>
        <pt x="806" y="467" on="1"/>
        <pt x="804" y="453" on="0"/>
        <pt x="798" y="439" on="0"/>
        <pt x="782" y="439" on="1"/>
        <pt x="778" y="439" on="0"/>
        <pt x="758" y="444" on="0"/>
        <pt x="758" y="458" on="1"/>
        <pt x="758" y="470" on="0"/>
        <pt x="762" y="500" on="0"/>
        <pt x="762" y="514" on="1"/>
        <pt x="762" y="550" on="0"/>
        <pt x="745" y="596" on="0"/>
        <pt x="708" y="623" on="0"/>
        <pt x="650" y="633" on="0"/>
        <pt x="609" y="633" on="1"/>
        <pt x="478" y="633" on="1"/>
        <pt x="470" y="633" on="0"/>
        <pt x="454" y="633" on="0"/>
        <pt x="444" y="631" on="1"/>
        <pt x="381" y="376" on="1"/>
        <pt x="441" y="376" on="1"/>
        <pt x="469" y="376" on="0"/>
        <pt x="510" y="383" on="0"/>
        <pt x="539" y="403" on="0"/>
        <pt x="559" y="439" on="0"/>
        <pt x="566" y="467" on="1"/>
        <pt x="570" y="481" on="0"/>
        <pt x="578" y="493" on="0"/>
        <pt x="592" y="493" on="1"/>
        <pt x="594" y="493" on="0"/>
        <pt x="601" y="492" on="0"/>
        <pt x="610" y="489" on="0"/>
        <pt x="616" y="482" on="0"/>
        <pt x="616" y="475" on="1"/>
        <pt x="616" y="474" on="0"/>
        <pt x="615" y="469" on="0"/>
        <pt x="612" y="459" on="1"/>
        <pt x="556" y="236" on="1"/>
        <pt x="552" y="222" on="0"/>
        <pt x="545" y="212" on="0"/>
        <pt x="531" y="212" on="1"/>
        <pt x="523" y="212" on="0"/>
        <pt x="508" y="219" on="0"/>
        <pt x="508" y="230" on="1"/>
        <pt x="509" y="240" on="1"/>
        <pt x="510" y="242" on="0"/>
        <pt x="517" y="274" on="0"/>
        <pt x="517" y="286" on="1"/>
        <pt x="517" y="312" on="0"/>
        <pt x="483" y="329" on="0"/>
        <pt x="438" y="329" on="1"/>
        <pt x="369" y="329" on="1"/>
        <pt x="299" y="48" on="1"/>
        <pt x="304" y="47" on="0"/>
        <pt x="312" y="47" on="0"/>
        <pt x="323" y="47" on="1"/>
        <pt x="453" y="47" on="1"/>
        <pt x="516" y="47" on="0"/>
        <pt x="603" y="72" on="0"/>
        <pt x="666" y="121" on="0"/>
        <pt x="712" y="196" on="0"/>
        <pt x="734" y="245" on="1"/>
        <pt x="743" y="265" on="0"/>
        <pt x="751" y="274" on="0"/>
        <pt x="763" y="274" on="1"/>
        <pt x="765" y="274" on="0"/>
        <pt x="773" y="273" on="0"/>
        <pt x="781" y="270" on="0"/>
        <pt x="787" y="263" on="0"/>
        <pt x="787" y="256" on="1"/>
        <pt x="787" y="255" on="0"/>
        <pt x="786" y="248" on="0"/>
        <pt x="781" y="238" on="1"/>
      </contour>
    </TTGlyph>
    <TTGlyph name="F" xMin="43" yMin="0" xMax="809" yMax="680">
      <contour>
        <pt x="299" y="51" on="1"/>
        <pt x="307" y="49" on="0"/>
        <pt x="333" y="47" on="0"/>
        <pt x="362" y="47" on="1"/>
        <pt x="395" y="47" on="1"/>
        <pt x="407" y="47" on="0"/>
        <pt x="428" y="43" on="0"/>
        <pt x="428" y="29" on="1"/>
        <pt x="428" y="7" on="0"/>
        <pt x="407" y="0" on="0"/>
        <pt x="398" y="0" on="1"/>
        <pt x="377" y="0" on="0"/>
        <pt x="334" y="2" on="0"/>
        <pt x="312" y="2" on="1"/>
        <pt x="289" y="2" on="0"/>
        <pt x="245" y="3" on="0"/>
        <pt x="222" y="3" on="1"/>
        <pt x="202" y="3" on="0"/>
        <pt x="161" y="2" on="0"/>
        <pt x="141" y="2" on="1"/>
        <pt x="122" y="2" on="0"/>
        <pt x="84" y="0" on="0"/>
        <pt x="65" y="0" on="1"/>
        <pt x="49" y="0" on="0"/>
        <pt x="43" y="17" on="0"/>
        <pt x="43" y="18" on="1"/>
        <pt x="43" y="21" on="0"/>
        <pt x="46" y="40" on="0"/>
        <pt x="55" y="45" on="1"/>
        <pt x="58" y="47" on="0"/>
        <pt x="67" y="47" on="0"/>
        <pt x="87" y="47" on="1"/>
        <pt x="99" y="47" on="0"/>
        <pt x="127" y="47" on="0"/>
        <pt x="140" y="48" on="1"/>
        <pt x="154" y="50" on="0"/>
        <pt x="160" y="55" on="0"/>
        <pt x="163" y="67" on="1"/>
        <pt x="304" y="631" on="1"/>
        <pt x="288" y="632" on="0"/>
        <pt x="259" y="633" on="0"/>
        <pt x="243" y="633" on="1"/>
        <pt x="223" y="633" on="0"/>
        <pt x="202" y="637" on="0"/>
        <pt x="202" y="651" on="1"/>
        <pt x="202" y="652" on="0"/>
        <pt x="206" y="671" on="0"/>
        <pt x="211" y="675" on="1"/>
        <pt x="215" y="678" on="0"/>
        <pt x="222" y="680" on="0"/>
        <pt x="238" y="680" on="1"/>
        <pt x="776" y="680" on="1"/>
        <pt x="788" y="680" on="0"/>
        <pt x="809" y="676" on="0"/>
        <pt x="809" y="662" on="1"/>
        <pt x="808" y="646" on="1"/>
        <pt x="790" y="467" on="1"/>
        <pt x="788" y="453" on="0"/>
        <pt x="782" y="439" on="0"/>
        <pt x="766" y="439" on="1"/>
        <pt x="762" y="439" on="0"/>
        <pt x="742" y="444" on="0"/>
        <pt x="742" y="458" on="1"/>
        <pt x="742" y="461" on="0"/>
        <pt x="746" y="498" on="0"/>
        <pt x="746" y="516" on="1"/>
        <pt x="746" y="549" on="0"/>
        <pt x="732" y="594" on="0"/>
        <pt x="697" y="621" on="0"/>
        <pt x="640" y="633" on="0"/>
        <pt x="597" y="633" on="1"/>
        <pt x="478" y="633" on="1"/>
        <pt x="470" y="633" on="0"/>
        <pt x="454" y="633" on="0"/>
        <pt x="444" y="631" on="1"/>
        <pt x="378" y="364" on="1"/>
        <pt x="434" y="364" on="1"/>
        <pt x="461" y="364" on="0"/>
        <pt x="501" y="371" on="0"/>
        <pt x="529" y="391" on="0"/>
        <pt x="550" y="427" on="0"/>
        <pt x="557" y="455" on="1"/>
        <pt x="561" y="469" on="0"/>
        <pt x="569" y="481" on="0"/>
        <pt x="583" y="481" on="1"/>
        <pt x="585" y="481" on="0"/>
        <pt x="592" y="480" on="0"/>
        <pt x="601" y="477" on="0"/>
        <pt x="607" y="470" on="0"/>
        <pt x="607" y="463" on="1"/>
        <pt x="607" y="462" on="0"/>
        <pt x="606" y="457" on="0"/>
        <pt x="603" y="447" on="1"/>
        <pt x="547" y="224" on="1"/>
        <pt x="543" y="210" on="0"/>
        <pt x="536" y="200" on="0"/>
        <pt x="522" y="200" on="1"/>
        <pt x="514" y="200" on="0"/>
        <pt x="499" y="207" on="0"/>
        <pt x="499" y="218" on="1"/>
        <pt x="499" y="222" on="0"/>
        <pt x="502" y="232" on="1"/>
        <pt x="504" y="241" on="0"/>
        <pt x="508" y="266" on="0"/>
        <pt x="508" y="274" on="1"/>
        <pt x="508" y="299" on="0"/>
        <pt x="476" y="317" on="0"/>
        <pt x="431" y="317" on="1"/>
        <pt x="366" y="317" on="1"/>
      </contour>
    </TTGlyph>
    <TTGlyph name="G" xMin="55" yMin="-17" xMax="854" yMax="703">
      <contour>
        <pt x="688" y="23" on="1"/>
        <pt x="685" y="12" on="0"/>
        <pt x="680" y="0" on="0"/>
        <pt x="672" y="0" on="1"/>
        <pt x="669" y="0" on="0"/>
        <pt x="650" y="9" on="0"/>
        <pt x="625" y="24" on="0"/>
        <pt x="598" y="42" on="0"/>
        <pt x="589" y="52" on="1"/>
        <pt x="565" y="26" on="0"/>
        <pt x="461" y="-17" on="0"/>
        <pt x="382" y="-17" on="1"/>
        <pt x="312" y="-17" on="0"/>
        <pt x="193" y="16" on="0"/>
        <pt x="105" y="83" on="0"/>
        <pt x="55" y="184" on="0"/>
        <pt x="55" y="253" on="1"/>
        <pt x="55" y="304" on="0"/>
        <pt x="84" y="411" on="0"/>
        <pt x="142" y="511" on="0"/>
        <pt x="226" y="599" on="0"/>
        <pt x="337" y="665" on="0"/>
        <pt x="473" y="703" on="0"/>
        <pt x="553" y="703" on="1"/>
        <pt x="595" y="703" on="0"/>
        <pt x="657" y="686" on="0"/>
        <pt x="701" y="663" on="0"/>
        <pt x="729" y="639" on="0"/>
        <pt x="736" y="631" on="1"/>
        <pt x="829" y="703" on="1"/>
        <pt x="837" y="703" on="0"/>
        <pt x="854" y="700" on="0"/>
        <pt x="854" y="689" on="1"/>
        <pt x="854" y="684" on="0"/>
        <pt x="852" y="677" on="0"/>
        <pt x="851" y="673" on="1"/>
        <pt x="794" y="448" on="1"/>
        <pt x="790" y="432" on="0"/>
        <pt x="783" y="426" on="0"/>
        <pt x="766" y="426" on="1"/>
        <pt x="755" y="426" on="0"/>
        <pt x="739" y="430" on="0"/>
        <pt x="739" y="441" on="1"/>
        <pt x="739" y="449" on="0"/>
        <pt x="742" y="469" on="0"/>
        <pt x="742" y="477" on="1"/>
        <pt x="742" y="508" on="0"/>
        <pt x="723" y="571" on="0"/>
        <pt x="682" y="623" on="0"/>
        <pt x="616" y="656" on="0"/>
        <pt x="569" y="656" on="1"/>
        <pt x="492" y="656" on="0"/>
        <pt x="357" y="598" on="0"/>
        <pt x="313" y="549" on="1"/>
        <pt x="277" y="508" on="0"/>
        <pt x="231" y="406" on="0"/>
        <pt x="205" y="310" on="0"/>
        <pt x="195" y="232" on="0"/>
        <pt x="195" y="215" on="1"/>
        <pt x="195" y="165" on="0"/>
        <pt x="229" y="94" on="0"/>
        <pt x="287" y="50" on="0"/>
        <pt x="367" y="30" on="0"/>
        <pt x="413" y="30" on="1"/>
        <pt x="437" y="30" on="0"/>
        <pt x="488" y="40" on="0"/>
        <pt x="533" y="63" on="0"/>
        <pt x="567" y="99" on="0"/>
        <pt x="573" y="124" on="1"/>
        <pt x="573" y="124" on="0"/>
        <pt x="579" y="145" on="0"/>
        <pt x="585" y="171" on="0"/>
        <pt x="591" y="193" on="0"/>
        <pt x="591" y="196" on="1"/>
        <pt x="596" y="214" on="0"/>
        <pt x="598" y="222" on="0"/>
        <pt x="598" y="223" on="1"/>
        <pt x="598" y="225" on="0"/>
        <pt x="580" y="228" on="0"/>
        <pt x="558" y="229" on="0"/>
        <pt x="536" y="229" on="0"/>
        <pt x="532" y="229" on="1"/>
        <pt x="495" y="229" on="1"/>
        <pt x="483" y="229" on="0"/>
        <pt x="461" y="233" on="0"/>
        <pt x="461" y="247" on="1"/>
        <pt x="461" y="269" on="0"/>
        <pt x="483" y="276" on="0"/>
        <pt x="492" y="276" on="1"/>
        <pt x="507" y="276" on="0"/>
        <pt x="555" y="275" on="0"/>
        <pt x="607" y="274" on="0"/>
        <pt x="655" y="273" on="0"/>
        <pt x="670" y="273" on="1"/>
        <pt x="687" y="273" on="0"/>
        <pt x="720" y="274" on="0"/>
        <pt x="737" y="274" on="1"/>
        <pt x="754" y="274" on="0"/>
        <pt x="788" y="276" on="0"/>
        <pt x="805" y="276" on="1"/>
        <pt x="819" y="276" on="0"/>
        <pt x="826" y="262" on="0"/>
        <pt x="826" y="258" on="1"/>
        <pt x="826" y="236" on="0"/>
        <pt x="804" y="229" on="0"/>
        <pt x="785" y="229" on="1"/>
        <pt x="776" y="229" on="0"/>
        <pt x="756" y="229" on="0"/>
        <pt x="747" y="227" on="1"/>
        <pt x="742" y="226" on="0"/>
        <pt x="738" y="221" on="0"/>
        <pt x="735" y="210" on="1"/>
      </contour>
    </TTGlyph>
    <TTGlyph name="Gamma" xMin="43" yMin="0" xMax="777" yMax="680">
      <contour>
        <pt x="299" y="51" on="1"/>
        <pt x="307" y="49" on="0"/>
        <pt x="333" y="47" on="0"/>
        <pt x="362" y="47" on="1"/>
        <pt x="395" y="47" on="1"/>
        <pt x="407" y="47" on="0"/>
        <pt x="428" y="43" on="0"/>
        <pt x="428" y="29" on="1"/>
        <pt x="428" y="28" on="0"/>
        <pt x="426" y="12" on="0"/>
        <pt x="421" y="7" on="1"/>
        <pt x="417" y="2" on="0"/>
        <pt x="406" y="0" on="0"/>
        <pt x="398" y="0" on="1"/>
        <pt x="377" y="0" on="0"/>
        <pt x="334" y="2" on="0"/>
        <pt x="312" y="2" on="1"/>
        <pt x="289" y="2" on="0"/>
        <pt x="245" y="3" on="0"/>
        <pt x="222" y="3" on="1"/>
        <pt x="202" y="3" on="0"/>
        <pt x="161" y="2" on="0"/>
        <pt x="141" y="2" on="1"/>
        <pt x="122" y="2" on="0"/>
        <pt x="84" y="0" on="0"/>
        <pt x="65" y="0" on="1"/>
        <pt x="49" y="0" on="0"/>
        <pt x="43" y="16" on="0"/>
        <pt x="43" y="18" on="1"/>
        <pt x="43" y="21" on="0"/>
        <pt x="46" y="40" on="0"/>
        <pt x="55" y="45" on="1"/>
        <pt x="58" y="47" on="0"/>
        <pt x="67" y="47" on="0"/>
        <pt x="87" y="47" on="1"/>
        <pt x="99" y="47" on="0"/>
        <pt x="127" y="47" on="0"/>
        <pt x="140" y="48" on="1"/>
        <pt x="154" y="50" on="0"/>
        <pt x="160" y="55" on="0"/>
        <pt x="163" y="67" on="1"/>
        <pt x="304" y="631" on="1"/>
        <pt x="288" y="632" on="0"/>
        <pt x="259" y="633" on="0"/>
        <pt x="243" y="633" on="1"/>
        <pt x="223" y="633" on="0"/>
        <pt x="202" y="637" on="0"/>
        <pt x="202" y="651" on="1"/>
        <pt x="202" y="656" on="0"/>
        <pt x="206" y="672" on="0"/>
        <pt x="211" y="675" on="1"/>
        <pt x="215" y="679" on="0"/>
        <pt x="223" y="680" on="0"/>
        <pt x="238" y="680" on="1"/>
        <pt x="744" y="680" on="1"/>
        <pt x="756" y="680" on="0"/>
        <pt x="777" y="676" on="0"/>
        <pt x="777" y="662" on="1"/>
        <pt x="776" y="646" on="1"/>
        <pt x="758" y="467" on="1"/>
        <pt x="756" y="453" on="0"/>
        <pt x="750" y="439" on="0"/>
        <pt x="734" y="439" on="1"/>
        <pt x="730" y="439" on="0"/>
        <pt x="710" y="444" on="0"/>
        <pt x="710" y="458" on="1"/>
        <pt x="710" y="472" on="0"/>
        <pt x="715" y="508" on="0"/>
        <pt x="715" y="523" on="1"/>
        <pt x="715" y="564" on="0"/>
        <pt x="691" y="609" on="0"/>
        <pt x="643" y="630" on="0"/>
        <pt x="572" y="633" on="0"/>
        <pt x="526" y="633" on="1"/>
        <pt x="506" y="633" on="0"/>
        <pt x="455" y="633" on="0"/>
        <pt x="444" y="631" on="1"/>
      </contour>
    </TTGlyph>
    <TTGlyph name="H" xMin="43" yMin="0" xMax="1027" yMax="686">
      <contour>
        <pt x="765" y="49" on="1"/>
        <pt x="781" y="48" on="0"/>
        <pt x="810" y="47" on="0"/>
        <pt x="826" y="47" on="1"/>
        <pt x="846" y="47" on="0"/>
        <pt x="867" y="43" on="0"/>
        <pt x="867" y="29" on="1"/>
        <pt x="867" y="27" on="0"/>
        <pt x="864" y="12" on="0"/>
        <pt x="861" y="7" on="1"/>
        <pt x="857" y="2" on="0"/>
        <pt x="846" y="0" on="0"/>
        <pt x="838" y="0" on="1"/>
        <pt x="819" y="0" on="0"/>
        <pt x="780" y="2" on="0"/>
        <pt x="760" y="2" on="1"/>
        <pt x="741" y="2" on="0"/>
        <pt x="703" y="3" on="0"/>
        <pt x="683" y="3" on="1"/>
        <pt x="664" y="3" on="0"/>
        <pt x="626" y="2" on="0"/>
        <pt x="607" y="2" on="1"/>
        <pt x="588" y="2" on="0"/>
        <pt x="550" y="0" on="0"/>
        <pt x="531" y="0" on="1"/>
        <pt x="515" y="0" on="0"/>
        <pt x="509" y="17" on="0"/>
        <pt x="509" y="18" on="1"/>
        <pt x="509" y="21" on="0"/>
        <pt x="512" y="40" on="0"/>
        <pt x="521" y="45" on="1"/>
        <pt x="524" y="47" on="0"/>
        <pt x="533" y="47" on="0"/>
        <pt x="553" y="47" on="1"/>
        <pt x="565" y="47" on="0"/>
        <pt x="593" y="47" on="0"/>
        <pt x="606" y="48" on="1"/>
        <pt x="620" y="50" on="0"/>
        <pt x="626" y="55" on="0"/>
        <pt x="629" y="67" on="1"/>
        <pt x="696" y="333" on="1"/>
        <pt x="370" y="333" on="1"/>
        <pt x="299" y="49" on="1"/>
        <pt x="315" y="48" on="0"/>
        <pt x="344" y="47" on="0"/>
        <pt x="360" y="47" on="1"/>
        <pt x="380" y="47" on="0"/>
        <pt x="401" y="43" on="0"/>
        <pt x="401" y="29" on="1"/>
        <pt x="401" y="27" on="0"/>
        <pt x="398" y="12" on="0"/>
        <pt x="395" y="7" on="1"/>
        <pt x="391" y="2" on="0"/>
        <pt x="380" y="0" on="0"/>
        <pt x="372" y="0" on="1"/>
        <pt x="353" y="0" on="0"/>
        <pt x="314" y="2" on="0"/>
        <pt x="294" y="2" on="1"/>
        <pt x="275" y="2" on="0"/>
        <pt x="237" y="3" on="0"/>
        <pt x="217" y="3" on="1"/>
        <pt x="198" y="3" on="0"/>
        <pt x="160" y="2" on="0"/>
        <pt x="141" y="2" on="1"/>
        <pt x="122" y="2" on="0"/>
        <pt x="84" y="0" on="0"/>
        <pt x="65" y="0" on="1"/>
        <pt x="49" y="0" on="0"/>
        <pt x="43" y="17" on="0"/>
        <pt x="43" y="18" on="1"/>
        <pt x="43" y="21" on="0"/>
        <pt x="46" y="40" on="0"/>
        <pt x="55" y="45" on="1"/>
        <pt x="58" y="47" on="0"/>
        <pt x="67" y="47" on="0"/>
        <pt x="87" y="47" on="1"/>
        <pt x="99" y="47" on="0"/>
        <pt x="127" y="47" on="0"/>
        <pt x="140" y="48" on="1"/>
        <pt x="154" y="50" on="0"/>
        <pt x="160" y="55" on="0"/>
        <pt x="163" y="67" on="1"/>
        <pt x="306" y="637" on="1"/>
        <pt x="290" y="638" on="0"/>
        <pt x="261" y="639" on="0"/>
        <pt x="245" y="639" on="1"/>
        <pt x="223" y="639" on="0"/>
        <pt x="203" y="643" on="0"/>
        <pt x="203" y="657" on="1"/>
        <pt x="203" y="668" on="0"/>
        <pt x="210" y="680" on="0"/>
        <pt x="219" y="685" on="0"/>
        <pt x="229" y="686" on="0"/>
        <pt x="232" y="686" on="1"/>
        <pt x="252" y="686" on="0"/>
        <pt x="291" y="684" on="0"/>
        <pt x="311" y="684" on="1"/>
        <pt x="330" y="684" on="0"/>
        <pt x="368" y="683" on="0"/>
        <pt x="388" y="683" on="1"/>
        <pt x="407" y="683" on="0"/>
        <pt x="444" y="684" on="0"/>
        <pt x="463" y="684" on="1"/>
        <pt x="482" y="684" on="0"/>
        <pt x="520" y="686" on="0"/>
        <pt x="539" y="686" on="1"/>
        <pt x="548" y="686" on="0"/>
        <pt x="561" y="678" on="0"/>
        <pt x="561" y="668" on="1"/>
        <pt x="561" y="667" on="0"/>
        <pt x="558" y="647" on="0"/>
        <pt x="550" y="642" on="1"/>
        <pt x="547" y="640" on="0"/>
        <pt x="523" y="639" on="0"/>
        <pt x="513" y="639" on="1"/>
        <pt x="509" y="639" on="0"/>
        <pt x="493" y="639" on="0"/>
        <pt x="473" y="638" on="0"/>
        <pt x="453" y="637" on="0"/>
        <pt x="445" y="635" on="1"/>
        <pt x="382" y="380" on="1"/>
        <pt x="708" y="380" on="1"/>
        <pt x="772" y="637" on="1"/>
        <pt x="756" y="638" on="0"/>
        <pt x="727" y="639" on="0"/>
        <pt x="711" y="639" on="1"/>
        <pt x="689" y="639" on="0"/>
        <pt x="669" y="643" on="0"/>
        <pt x="669" y="657" on="1"/>
        <pt x="669" y="668" on="0"/>
        <pt x="676" y="680" on="0"/>
        <pt x="685" y="685" on="0"/>
        <pt x="695" y="686" on="0"/>
        <pt x="698" y="686" on="1"/>
        <pt x="718" y="686" on="0"/>
        <pt x="757" y="684" on="0"/>
        <pt x="777" y="684" on="1"/>
        <pt x="796" y="684" on="0"/>
        <pt x="834" y="683" on="0"/>
        <pt x="854" y="683" on="1"/>
        <pt x="873" y="683" on="0"/>
        <pt x="910" y="684" on="0"/>
        <pt x="929" y="684" on="1"/>
        <pt x="948" y="684" on="0"/>
        <pt x="986" y="686" on="0"/>
        <pt x="1005" y="686" on="1"/>
        <pt x="1014" y="686" on="0"/>
        <pt x="1027" y="678" on="0"/>
        <pt x="1027" y="668" on="1"/>
        <pt x="1027" y="667" on="0"/>
        <pt x="1024" y="647" on="0"/>
        <pt x="1016" y="642" on="1"/>
        <pt x="1013" y="640" on="0"/>
        <pt x="989" y="639" on="0"/>
        <pt x="979" y="639" on="1"/>
        <pt x="975" y="639" on="0"/>
        <pt x="959" y="639" on="0"/>
        <pt x="939" y="638" on="0"/>
        <pt x="919" y="637" on="0"/>
        <pt x="911" y="635" on="1"/>
      </contour>
    </TTGlyph>
    <TTGlyph name="I" xMin="38" yMin="0" xMax="566" yMax="686">
      <contour>
        <pt x="299" y="49" on="1"/>
        <pt x="304" y="49" on="0"/>
        <pt x="320" y="48" on="0"/>
        <pt x="336" y="47" on="0"/>
        <pt x="349" y="47" on="0"/>
        <pt x="352" y="47" on="1"/>
        <pt x="373" y="47" on="1"/>
        <pt x="386" y="47" on="0"/>
        <pt x="407" y="43" on="0"/>
        <pt x="407" y="29" on="1"/>
        <pt x="407" y="18" on="0"/>
        <pt x="400" y="6" on="0"/>
        <pt x="391" y="1" on="0"/>
        <pt x="381" y="0" on="0"/>
        <pt x="377" y="0" on="1"/>
        <pt x="358" y="0" on="0"/>
        <pt x="320" y="2" on="0"/>
        <pt x="300" y="2" on="1"/>
        <pt x="279" y="2" on="0"/>
        <pt x="238" y="3" on="0"/>
        <pt x="217" y="3" on="1"/>
        <pt x="197" y="3" on="0"/>
        <pt x="156" y="2" on="0"/>
        <pt x="136" y="2" on="1"/>
        <pt x="117" y="2" on="0"/>
        <pt x="79" y="0" on="0"/>
        <pt x="60" y="0" on="1"/>
        <pt x="52" y="0" on="0"/>
        <pt x="38" y="8" on="0"/>
        <pt x="38" y="18" on="1"/>
        <pt x="38" y="40" on="0"/>
        <pt x="60" y="47" on="0"/>
        <pt x="75" y="47" on="1"/>
        <pt x="96" y="47" on="1"/>
        <pt x="106" y="47" on="0"/>
        <pt x="130" y="47" on="0"/>
        <pt x="139" y="49" on="1"/>
        <pt x="153" y="50" on="0"/>
        <pt x="160" y="55" on="0"/>
        <pt x="163" y="67" on="1"/>
        <pt x="306" y="637" on="1"/>
        <pt x="291" y="638" on="0"/>
        <pt x="260" y="639" on="0"/>
        <pt x="253" y="639" on="1"/>
        <pt x="232" y="639" on="1"/>
        <pt x="218" y="639" on="0"/>
        <pt x="198" y="643" on="0"/>
        <pt x="198" y="657" on="1"/>
        <pt x="198" y="679" on="0"/>
        <pt x="219" y="686" on="0"/>
        <pt x="227" y="686" on="1"/>
        <pt x="246" y="686" on="0"/>
        <pt x="285" y="684" on="0"/>
        <pt x="305" y="684" on="1"/>
        <pt x="325" y="684" on="0"/>
        <pt x="367" y="683" on="0"/>
        <pt x="388" y="683" on="1"/>
        <pt x="408" y="683" on="0"/>
        <pt x="448" y="684" on="0"/>
        <pt x="468" y="684" on="1"/>
        <pt x="487" y="684" on="0"/>
        <pt x="525" y="686" on="0"/>
        <pt x="544" y="686" on="1"/>
        <pt x="553" y="686" on="0"/>
        <pt x="566" y="677" on="0"/>
        <pt x="566" y="668" on="1"/>
        <pt x="566" y="663" on="0"/>
        <pt x="562" y="647" on="0"/>
        <pt x="557" y="644" on="1"/>
        <pt x="553" y="641" on="0"/>
        <pt x="546" y="639" on="0"/>
        <pt x="530" y="639" on="1"/>
        <pt x="509" y="639" on="1"/>
        <pt x="498" y="639" on="0"/>
        <pt x="477" y="639" on="0"/>
        <pt x="466" y="638" on="1"/>
        <pt x="451" y="636" on="0"/>
        <pt x="444" y="631" on="0"/>
        <pt x="441" y="618" on="1"/>
      </contour>
    </TTGlyph>
    <TTGlyph name="J" xMin="56" yMin="-17" xMax="694" yMax="686">
      <contour>
        <pt x="483" y="146" on="1"/>
        <pt x="472" y="102" on="0"/>
        <pt x="419" y="40" on="0"/>
        <pt x="347" y="1" on="0"/>
        <pt x="263" y="-17" on="0"/>
        <pt x="221" y="-17" on="1"/>
        <pt x="149" y="-17" on="0"/>
        <pt x="56" y="40" on="0"/>
        <pt x="56" y="92" on="1"/>
        <pt x="56" y="116" on="0"/>
        <pt x="73" y="151" on="0"/>
        <pt x="98" y="175" on="0"/>
        <pt x="130" y="187" on="0"/>
        <pt x="145" y="187" on="1"/>
        <pt x="171" y="187" on="0"/>
        <pt x="206" y="155" on="0"/>
        <pt x="206" y="130" on="1"/>
        <pt x="206" y="120" on="0"/>
        <pt x="199" y="94" on="0"/>
        <pt x="182" y="69" on="0"/>
        <pt x="154" y="48" on="0"/>
        <pt x="134" y="43" on="1"/>
        <pt x="145" y="34" on="0"/>
        <pt x="171" y="25" on="0"/>
        <pt x="195" y="20" on="0"/>
        <pt x="213" y="19" on="0"/>
        <pt x="216" y="19" on="1"/>
        <pt x="233" y="19" on="0"/>
        <pt x="272" y="32" on="0"/>
        <pt x="309" y="62" on="0"/>
        <pt x="341" y="113" on="0"/>
        <pt x="350" y="151" on="1"/>
        <pt x="471" y="636" on="1"/>
        <pt x="462" y="637" on="0"/>
        <pt x="450" y="638" on="0"/>
        <pt x="438" y="639" on="0"/>
        <pt x="421" y="639" on="0"/>
        <pt x="406" y="639" on="1"/>
        <pt x="371" y="639" on="1"/>
        <pt x="357" y="639" on="0"/>
        <pt x="337" y="643" on="0"/>
        <pt x="337" y="657" on="1"/>
        <pt x="337" y="679" on="0"/>
        <pt x="358" y="686" on="0"/>
        <pt x="367" y="686" on="1"/>
        <pt x="382" y="686" on="0"/>
        <pt x="429" y="685" on="0"/>
        <pt x="479" y="684" on="0"/>
        <pt x="526" y="683" on="0"/>
        <pt x="541" y="683" on="1"/>
        <pt x="558" y="683" on="0"/>
        <pt x="593" y="684" on="0"/>
        <pt x="610" y="684" on="1"/>
        <pt x="626" y="684" on="0"/>
        <pt x="658" y="686" on="0"/>
        <pt x="673" y="686" on="1"/>
        <pt x="688" y="686" on="0"/>
        <pt x="694" y="670" on="0"/>
        <pt x="694" y="668" on="1"/>
        <pt x="694" y="646" on="0"/>
        <pt x="672" y="639" on="0"/>
        <pt x="652" y="639" on="1"/>
        <pt x="643" y="639" on="0"/>
        <pt x="623" y="639" on="0"/>
        <pt x="614" y="637" on="1"/>
        <pt x="609" y="636" on="0"/>
        <pt x="605" y="631" on="0"/>
        <pt x="602" y="620" on="1"/>
      </contour>
    </TTGlyph>
    <TTGlyph name="K" xMin="43" yMin="0" xMax="1003" yMax="686">
      <contour>
        <pt x="771" y="67" on="1"/>
        <pt x="774" y="61" on="0"/>
        <pt x="779" y="53" on="0"/>
        <pt x="790" y="49" on="0"/>
        <pt x="810" y="47" on="0"/>
        <pt x="827" y="47" on="1"/>
        <pt x="838" y="47" on="0"/>
        <pt x="859" y="43" on="0"/>
        <pt x="859" y="29" on="1"/>
        <pt x="859" y="18" on="0"/>
        <pt x="853" y="6" on="0"/>
        <pt x="844" y="1" on="0"/>
        <pt x="835" y="0" on="0"/>
        <pt x="832" y="0" on="1"/>
        <pt x="818" y="0" on="0"/>
        <pt x="787" y="2" on="0"/>
        <pt x="772" y="2" on="1"/>
        <pt x="756" y="2" on="0"/>
        <pt x="724" y="3" on="0"/>
        <pt x="708" y="3" on="1"/>
        <pt x="696" y="3" on="0"/>
        <pt x="656" y="2" on="0"/>
        <pt x="612" y="1" on="0"/>
        <pt x="572" y="0" on="0"/>
        <pt x="560" y="0" on="1"/>
        <pt x="544" y="0" on="0"/>
        <pt x="539" y="17" on="0"/>
        <pt x="539" y="18" on="1"/>
        <pt x="539" y="20" on="0"/>
        <pt x="542" y="36" on="0"/>
        <pt x="545" y="40" on="1"/>
        <pt x="550" y="45" on="0"/>
        <pt x="560" y="47" on="0"/>
        <pt x="570" y="47" on="1"/>
        <pt x="573" y="47" on="0"/>
        <pt x="609" y="48" on="0"/>
        <pt x="624" y="53" on="1"/>
        <pt x="475" y="342" on="1"/>
        <pt x="351" y="257" on="1"/>
        <pt x="299" y="49" on="1"/>
        <pt x="315" y="48" on="0"/>
        <pt x="344" y="47" on="0"/>
        <pt x="360" y="47" on="1"/>
        <pt x="380" y="47" on="0"/>
        <pt x="401" y="43" on="0"/>
        <pt x="401" y="29" on="1"/>
        <pt x="401" y="27" on="0"/>
        <pt x="398" y="12" on="0"/>
        <pt x="395" y="7" on="1"/>
        <pt x="390" y="2" on="0"/>
        <pt x="380" y="0" on="0"/>
        <pt x="372" y="0" on="1"/>
        <pt x="353" y="0" on="0"/>
        <pt x="314" y="2" on="0"/>
        <pt x="294" y="2" on="1"/>
        <pt x="275" y="2" on="0"/>
        <pt x="237" y="3" on="0"/>
        <pt x="217" y="3" on="1"/>
        <pt x="198" y="3" on="0"/>
        <pt x="160" y="2" on="0"/>
        <pt x="141" y="2" on="1"/>
        <pt x="122" y="2" on="0"/>
        <pt x="84" y="0" on="0"/>
        <pt x="65" y="0" on="1"/>
        <pt x="49" y="0" on="0"/>
        <pt x="43" y="16" on="0"/>
        <pt x="43" y="18" on="1"/>
        <pt x="43" y="21" on="0"/>
        <pt x="46" y="40" on="0"/>
        <pt x="55" y="45" on="1"/>
        <pt x="58" y="47" on="0"/>
        <pt x="67" y="47" on="0"/>
        <pt x="87" y="47" on="1"/>
        <pt x="99" y="47" on="0"/>
        <pt x="127" y="47" on="0"/>
        <pt x="140" y="48" on="1"/>
        <pt x="154" y="50" on="0"/>
        <pt x="160" y="55" on="0"/>
        <pt x="163" y="67" on="1"/>
        <pt x="306" y="637" on="1"/>
        <pt x="290" y="638" on="0"/>
        <pt x="261" y="639" on="0"/>
        <pt x="245" y="639" on="1"/>
        <pt x="223" y="639" on="0"/>
        <pt x="203" y="643" on="0"/>
        <pt x="203" y="657" on="1"/>
        <pt x="203" y="668" on="0"/>
        <pt x="210" y="680" on="0"/>
        <pt x="219" y="685" on="0"/>
        <pt x="229" y="686" on="0"/>
        <pt x="232" y="686" on="1"/>
        <pt x="252" y="686" on="0"/>
        <pt x="291" y="684" on="0"/>
        <pt x="311" y="684" on="1"/>
        <pt x="330" y="684" on="0"/>
        <pt x="368" y="683" on="0"/>
        <pt x="388" y="683" on="1"/>
        <pt x="407" y="683" on="0"/>
        <pt x="444" y="684" on="0"/>
        <pt x="463" y="684" on="1"/>
        <pt x="482" y="684" on="0"/>
        <pt x="520" y="686" on="0"/>
        <pt x="539" y="686" on="1"/>
        <pt x="548" y="686" on="0"/>
        <pt x="561" y="678" on="0"/>
        <pt x="561" y="668" on="1"/>
        <pt x="561" y="667" on="0"/>
        <pt x="558" y="647" on="0"/>
        <pt x="550" y="642" on="1"/>
        <pt x="547" y="640" on="0"/>
        <pt x="523" y="639" on="0"/>
        <pt x="513" y="639" on="1"/>
        <pt x="509" y="639" on="0"/>
        <pt x="493" y="639" on="0"/>
        <pt x="473" y="638" on="0"/>
        <pt x="453" y="637" on="0"/>
        <pt x="445" y="635" on="1"/>
        <pt x="366" y="317" on="1"/>
        <pt x="822" y="632" on="1"/>
        <pt x="809" y="637" on="0"/>
        <pt x="782" y="639" on="0"/>
        <pt x="776" y="639" on="1"/>
        <pt x="774" y="639" on="0"/>
        <pt x="766" y="640" on="0"/>
        <pt x="758" y="643" on="0"/>
        <pt x="752" y="650" on="0"/>
        <pt x="752" y="657" on="1"/>
        <pt x="752" y="668" on="0"/>
        <pt x="759" y="680" on="0"/>
        <pt x="768" y="685" on="0"/>
        <pt x="777" y="686" on="0"/>
        <pt x="780" y="686" on="1"/>
        <pt x="811" y="686" on="0"/>
        <pt x="874" y="683" on="0"/>
        <pt x="905" y="683" on="1"/>
        <pt x="925" y="683" on="0"/>
        <pt x="966" y="686" on="0"/>
        <pt x="985" y="686" on="1"/>
        <pt x="993" y="686" on="0"/>
        <pt x="1003" y="675" on="0"/>
        <pt x="1003" y="668" on="1"/>
        <pt x="1003" y="647" on="0"/>
        <pt x="983" y="640" on="0"/>
        <pt x="969" y="639" on="1"/>
        <pt x="931" y="637" on="0"/>
        <pt x="891" y="623" on="0"/>
        <pt x="874" y="614" on="1"/>
        <pt x="865" y="610" on="0"/>
        <pt x="826" y="584" on="0"/>
        <pt x="773" y="549" on="0"/>
        <pt x="714" y="507" on="0"/>
        <pt x="656" y="467" on="0"/>
        <pt x="606" y="432" on="0"/>
        <pt x="589" y="420" on="1"/>
      </contour>
    </TTGlyph>
    <TTGlyph name="L" xMin="43" yMin="0" xMax="707" yMax="686">
      <contour>
        <pt x="299" y="48" on="1"/>
        <pt x="304" y="47" on="0"/>
        <pt x="312" y="47" on="0"/>
        <pt x="323" y="47" on="1"/>
        <pt x="403" y="47" on="1"/>
        <pt x="467" y="47" on="0"/>
        <pt x="554" y="90" on="0"/>
        <pt x="612" y="153" on="0"/>
        <pt x="646" y="223" on="0"/>
        <pt x="656" y="249" on="1"/>
        <pt x="662" y="265" on="0"/>
        <pt x="670" y="274" on="0"/>
        <pt x="683" y="274" on="1"/>
        <pt x="690" y="274" on="0"/>
        <pt x="707" y="267" on="0"/>
        <pt x="707" y="256" on="1"/>
        <pt x="707" y="254" on="0"/>
        <pt x="695" y="221" on="0"/>
        <pt x="678" y="174" on="0"/>
        <pt x="656" y="118" on="0"/>
        <pt x="637" y="68" on="0"/>
        <pt x="622" y="29" on="0"/>
        <pt x="619" y="22" on="1"/>
        <pt x="613" y="6" on="0"/>
        <pt x="603" y="0" on="0"/>
        <pt x="583" y="0" on="1"/>
        <pt x="77" y="0" on="1"/>
        <pt x="65" y="0" on="0"/>
        <pt x="43" y="4" on="0"/>
        <pt x="43" y="18" on="1"/>
        <pt x="43" y="21" on="0"/>
        <pt x="46" y="40" on="0"/>
        <pt x="55" y="45" on="1"/>
        <pt x="58" y="47" on="0"/>
        <pt x="67" y="47" on="0"/>
        <pt x="87" y="47" on="1"/>
        <pt x="99" y="47" on="0"/>
        <pt x="127" y="47" on="0"/>
        <pt x="140" y="48" on="1"/>
        <pt x="154" y="50" on="0"/>
        <pt x="160" y="55" on="0"/>
        <pt x="163" y="67" on="1"/>
        <pt x="306" y="637" on="1"/>
        <pt x="290" y="638" on="0"/>
        <pt x="261" y="639" on="0"/>
        <pt x="245" y="639" on="1"/>
        <pt x="223" y="639" on="0"/>
        <pt x="203" y="643" on="0"/>
        <pt x="203" y="657" on="1"/>
        <pt x="203" y="668" on="0"/>
        <pt x="210" y="680" on="0"/>
        <pt x="219" y="685" on="0"/>
        <pt x="229" y="686" on="0"/>
        <pt x="232" y="686" on="1"/>
        <pt x="251" y="686" on="0"/>
        <pt x="289" y="684" on="0"/>
        <pt x="309" y="684" on="1"/>
        <pt x="329" y="684" on="0"/>
        <pt x="371" y="683" on="0"/>
        <pt x="392" y="683" on="1"/>
        <pt x="413" y="683" on="0"/>
        <pt x="455" y="684" on="0"/>
        <pt x="476" y="684" on="1"/>
        <pt x="499" y="684" on="0"/>
        <pt x="543" y="686" on="0"/>
        <pt x="565" y="686" on="1"/>
        <pt x="567" y="686" on="0"/>
        <pt x="574" y="685" on="0"/>
        <pt x="582" y="682" on="0"/>
        <pt x="588" y="675" on="0"/>
        <pt x="588" y="668" on="1"/>
        <pt x="588" y="646" on="0"/>
        <pt x="567" y="639" on="0"/>
        <pt x="552" y="639" on="1"/>
        <pt x="519" y="639" on="1"/>
        <pt x="480" y="639" on="0"/>
        <pt x="450" y="635" on="0"/>
        <pt x="448" y="634" on="1"/>
        <pt x="446" y="633" on="0"/>
        <pt x="444" y="629" on="0"/>
        <pt x="441" y="618" on="1"/>
      </contour>
    </TTGlyph>
    <TTGlyph name="Lambda" xMin="45" yMin="0" xMax="772" yMax="711">
      <contour>
        <pt x="200" y="57" on="1"/>
        <pt x="211" y="52" on="0"/>
        <pt x="246" y="47" on="0"/>
        <pt x="260" y="47" on="1"/>
        <pt x="265" y="47" on="0"/>
        <pt x="285" y="43" on="0"/>
        <pt x="285" y="29" on="1"/>
        <pt x="285" y="18" on="0"/>
        <pt x="279" y="6" on="0"/>
        <pt x="270" y="1" on="0"/>
        <pt x="261" y="0" on="0"/>
        <pt x="258" y="0" on="1"/>
        <pt x="232" y="0" on="0"/>
        <pt x="176" y="3" on="0"/>
        <pt x="149" y="3" on="1"/>
        <pt x="128" y="3" on="0"/>
        <pt x="83" y="0" on="0"/>
        <pt x="63" y="0" on="1"/>
        <pt x="52" y="0" on="0"/>
        <pt x="45" y="14" on="0"/>
        <pt x="45" y="18" on="1"/>
        <pt x="45" y="29" on="0"/>
        <pt x="51" y="41" on="0"/>
        <pt x="60" y="46" on="0"/>
        <pt x="69" y="47" on="0"/>
        <pt x="73" y="47" on="1"/>
        <pt x="97" y="47" on="0"/>
        <pt x="127" y="54" on="0"/>
        <pt x="145" y="64" on="0"/>
        <pt x="156" y="78" on="0"/>
        <pt x="161" y="85" on="1"/>
        <pt x="536" y="686" on="1"/>
        <pt x="548" y="705" on="0"/>
        <pt x="568" y="711" on="0"/>
        <pt x="580" y="711" on="1"/>
        <pt x="601" y="711" on="0"/>
        <pt x="610" y="699" on="0"/>
        <pt x="612" y="679" on="1"/>
        <pt x="691" y="49" on="1"/>
        <pt x="700" y="48" on="0"/>
        <pt x="727" y="47" on="0"/>
        <pt x="738" y="47" on="1"/>
        <pt x="752" y="47" on="0"/>
        <pt x="772" y="43" on="0"/>
        <pt x="772" y="29" on="1"/>
        <pt x="772" y="18" on="0"/>
        <pt x="766" y="6" on="0"/>
        <pt x="757" y="1" on="0"/>
        <pt x="748" y="0" on="0"/>
        <pt x="745" y="0" on="1"/>
        <pt x="734" y="0" on="0"/>
        <pt x="698" y="1" on="0"/>
        <pt x="659" y="2" on="0"/>
        <pt x="622" y="3" on="0"/>
        <pt x="611" y="3" on="1"/>
        <pt x="599" y="3" on="0"/>
        <pt x="558" y="2" on="0"/>
        <pt x="514" y="1" on="0"/>
        <pt x="473" y="0" on="0"/>
        <pt x="461" y="0" on="1"/>
        <pt x="445" y="0" on="0"/>
        <pt x="440" y="17" on="0"/>
        <pt x="440" y="18" on="1"/>
        <pt x="440" y="40" on="0"/>
        <pt x="461" y="47" on="0"/>
        <pt x="477" y="47" on="1"/>
        <pt x="488" y="47" on="0"/>
        <pt x="528" y="49" on="0"/>
        <pt x="542" y="52" on="1"/>
        <pt x="485" y="513" on="1"/>
      </contour>
    </TTGlyph>
    <TTGlyph name="M" xMin="46" yMin="0" xMax="1216" yMax="686">
      <contour>
        <pt x="954" y="49" on="1"/>
        <pt x="970" y="48" on="0"/>
        <pt x="999" y="47" on="0"/>
        <pt x="1015" y="47" on="1"/>
        <pt x="1036" y="47" on="0"/>
        <pt x="1056" y="43" on="0"/>
        <pt x="1056" y="29" on="1"/>
        <pt x="1056" y="28" on="0"/>
        <pt x="1054" y="12" on="0"/>
        <pt x="1049" y="7" on="1"/>
        <pt x="1045" y="2" on="0"/>
        <pt x="1034" y="0" on="0"/>
        <pt x="1028" y="0" on="1"/>
        <pt x="1011" y="0" on="0"/>
        <pt x="975" y="2" on="0"/>
        <pt x="957" y="2" on="1"/>
        <pt x="937" y="2" on="0"/>
        <pt x="900" y="3" on="0"/>
        <pt x="880" y="3" on="1"/>
        <pt x="863" y="3" on="0"/>
        <pt x="827" y="2" on="0"/>
        <pt x="810" y="2" on="1"/>
        <pt x="792" y="2" on="0"/>
        <pt x="755" y="0" on="0"/>
        <pt x="737" y="0" on="1"/>
        <pt x="721" y="0" on="0"/>
        <pt x="715" y="16" on="0"/>
        <pt x="715" y="18" on="1"/>
        <pt x="715" y="21" on="0"/>
        <pt x="718" y="40" on="0"/>
        <pt x="727" y="45" on="1"/>
        <pt x="730" y="47" on="0"/>
        <pt x="739" y="47" on="0"/>
        <pt x="759" y="47" on="1"/>
        <pt x="771" y="47" on="0"/>
        <pt x="799" y="47" on="0"/>
        <pt x="812" y="48" on="1"/>
        <pt x="826" y="50" on="0"/>
        <pt x="832" y="55" on="0"/>
        <pt x="835" y="67" on="1"/>
        <pt x="977" y="637" on="1"/>
        <pt x="976" y="638" on="1"/>
        <pt x="544" y="23" on="1"/>
        <pt x="538" y="15" on="0"/>
        <pt x="523" y="0" on="0"/>
        <pt x="508" y="0" on="1"/>
        <pt x="492" y="0" on="0"/>
        <pt x="483" y="19" on="0"/>
        <pt x="481" y="30" on="1"/>
        <pt x="360" y="624" on="1"/>
        <pt x="359" y="624" on="1"/>
        <pt x="218" y="57" on="1"/>
        <pt x="236" y="49" on="0"/>
        <pt x="280" y="47" on="0"/>
        <pt x="288" y="47" on="1"/>
        <pt x="298" y="47" on="0"/>
        <pt x="318" y="43" on="0"/>
        <pt x="318" y="29" on="1"/>
        <pt x="318" y="18" on="0"/>
        <pt x="312" y="6" on="0"/>
        <pt x="303" y="1" on="0"/>
        <pt x="294" y="0" on="0"/>
        <pt x="291" y="0" on="1"/>
        <pt x="282" y="0" on="0"/>
        <pt x="251" y="1" on="0"/>
        <pt x="217" y="2" on="0"/>
        <pt x="186" y="3" on="0"/>
        <pt x="177" y="3" on="1"/>
        <pt x="149" y="3" on="0"/>
        <pt x="93" y="0" on="0"/>
        <pt x="66" y="0" on="1"/>
        <pt x="55" y="0" on="0"/>
        <pt x="46" y="13" on="0"/>
        <pt x="46" y="18" on="1"/>
        <pt x="46" y="40" on="0"/>
        <pt x="68" y="47" on="0"/>
        <pt x="82" y="47" on="1"/>
        <pt x="84" y="47" on="0"/>
        <pt x="121" y="48" on="0"/>
        <pt x="139" y="53" on="1"/>
        <pt x="158" y="57" on="0"/>
        <pt x="165" y="64" on="0"/>
        <pt x="169" y="79" on="1"/>
        <pt x="309" y="637" on="1"/>
        <pt x="293" y="638" on="0"/>
        <pt x="264" y="639" on="0"/>
        <pt x="248" y="639" on="1"/>
        <pt x="226" y="639" on="0"/>
        <pt x="206" y="643" on="0"/>
        <pt x="206" y="657" on="1"/>
        <pt x="206" y="679" on="0"/>
        <pt x="228" y="686" on="0"/>
        <pt x="243" y="686" on="1"/>
        <pt x="431" y="686" on="1"/>
        <pt x="450" y="686" on="0"/>
        <pt x="466" y="679" on="0"/>
        <pt x="471" y="658" on="1"/>
        <pt x="578" y="129" on="1"/>
        <pt x="953" y="661" on="1"/>
        <pt x="964" y="678" on="0"/>
        <pt x="981" y="686" on="0"/>
        <pt x="1004" y="686" on="1"/>
        <pt x="1182" y="686" on="1"/>
        <pt x="1196" y="686" on="0"/>
        <pt x="1216" y="682" on="0"/>
        <pt x="1216" y="668" on="1"/>
        <pt x="1216" y="646" on="0"/>
        <pt x="1194" y="639" on="0"/>
        <pt x="1168" y="639" on="1"/>
        <pt x="1164" y="639" on="0"/>
        <pt x="1148" y="639" on="0"/>
        <pt x="1128" y="638" on="0"/>
        <pt x="1108" y="637" on="0"/>
        <pt x="1100" y="635" on="1"/>
      </contour>
    </TTGlyph>
    <TTGlyph name="N" xMin="43" yMin="0" xMax="1027" yMax="686">
      <contour>
        <pt x="758" y="24" on="1"/>
        <pt x="754" y="9" on="0"/>
        <pt x="747" y="0" on="0"/>
        <pt x="730" y="0" on="1"/>
        <pt x="719" y="0" on="0"/>
        <pt x="708" y="4" on="0"/>
        <pt x="700" y="18" on="1"/>
        <pt x="351" y="602" on="1"/>
        <pt x="215" y="57" on="1"/>
        <pt x="233" y="50" on="0"/>
        <pt x="277" y="47" on="0"/>
        <pt x="284" y="47" on="1"/>
        <pt x="294" y="47" on="0"/>
        <pt x="315" y="43" on="0"/>
        <pt x="315" y="29" on="1"/>
        <pt x="315" y="18" on="0"/>
        <pt x="309" y="6" on="0"/>
        <pt x="300" y="1" on="0"/>
        <pt x="291" y="0" on="0"/>
        <pt x="288" y="0" on="1"/>
        <pt x="279" y="0" on="0"/>
        <pt x="248" y="1" on="0"/>
        <pt x="214" y="2" on="0"/>
        <pt x="183" y="3" on="0"/>
        <pt x="174" y="3" on="1"/>
        <pt x="146" y="3" on="0"/>
        <pt x="90" y="0" on="0"/>
        <pt x="63" y="0" on="1"/>
        <pt x="49" y="0" on="0"/>
        <pt x="43" y="16" on="0"/>
        <pt x="43" y="18" on="1"/>
        <pt x="43" y="40" on="0"/>
        <pt x="65" y="47" on="0"/>
        <pt x="79" y="47" on="1"/>
        <pt x="81" y="47" on="0"/>
        <pt x="118" y="48" on="0"/>
        <pt x="136" y="53" on="1"/>
        <pt x="155" y="57" on="0"/>
        <pt x="162" y="64" on="0"/>
        <pt x="166" y="79" on="1"/>
        <pt x="302" y="620" on="1"/>
        <pt x="303" y="623" on="0"/>
        <pt x="305" y="631" on="0"/>
        <pt x="305" y="634" on="1"/>
        <pt x="305" y="636" on="0"/>
        <pt x="294" y="639" on="0"/>
        <pt x="261" y="639" on="1"/>
        <pt x="237" y="639" on="1"/>
        <pt x="223" y="639" on="0"/>
        <pt x="203" y="643" on="0"/>
        <pt x="203" y="657" on="1"/>
        <pt x="203" y="679" on="0"/>
        <pt x="225" y="686" on="0"/>
        <pt x="240" y="686" on="1"/>
        <pt x="429" y="686" on="1"/>
        <pt x="447" y="686" on="0"/>
        <pt x="459" y="682" on="0"/>
        <pt x="466" y="669" on="1"/>
        <pt x="748" y="198" on="1"/>
        <pt x="856" y="629" on="1"/>
        <pt x="847" y="633" on="0"/>
        <pt x="825" y="637" on="0"/>
        <pt x="805" y="639" on="0"/>
        <pt x="789" y="639" on="0"/>
        <pt x="786" y="639" on="1"/>
        <pt x="775" y="639" on="0"/>
        <pt x="755" y="643" on="0"/>
        <pt x="755" y="657" on="1"/>
        <pt x="755" y="668" on="0"/>
        <pt x="761" y="680" on="0"/>
        <pt x="770" y="685" on="0"/>
        <pt x="779" y="686" on="0"/>
        <pt x="782" y="686" on="1"/>
        <pt x="791" y="686" on="0"/>
        <pt x="822" y="685" on="0"/>
        <pt x="856" y="684" on="0"/>
        <pt x="887" y="683" on="0"/>
        <pt x="896" y="683" on="1"/>
        <pt x="924" y="683" on="0"/>
        <pt x="980" y="686" on="0"/>
        <pt x="1007" y="686" on="1"/>
        <pt x="1017" y="686" on="0"/>
        <pt x="1027" y="675" on="0"/>
        <pt x="1027" y="668" on="1"/>
        <pt x="1027" y="646" on="0"/>
        <pt x="1006" y="639" on="0"/>
        <pt x="992" y="639" on="1"/>
        <pt x="980" y="639" on="0"/>
        <pt x="947" y="636" on="0"/>
        <pt x="934" y="634" on="1"/>
        <pt x="916" y="630" on="0"/>
        <pt x="909" y="622" on="0"/>
        <pt x="905" y="608" on="1"/>
      </contour>
    </TTGlyph>
    <TTGlyph name="O" xMin="53" yMin="-17" xMax="815" yMax="703">
      <contour>
        <pt x="815" y="445" on="1"/>
        <pt x="815" y="368" on="0"/>
        <pt x="754" y="204" on="0"/>
        <pt x="636" y="69" on="0"/>
        <pt x="460" y="-17" on="0"/>
        <pt x="345" y="-17" on="1"/>
        <pt x="282" y="-17" on="0"/>
        <pt x="175" y="13" on="0"/>
        <pt x="97" y="76" on="0"/>
        <pt x="53" y="172" on="0"/>
        <pt x="53" y="238" on="1"/>
        <pt x="53" y="313" on="0"/>
        <pt x="113" y="477" on="0"/>
        <pt x="232" y="614" on="0"/>
        <pt x="408" y="703" on="0"/>
        <pt x="524" y="703" on="1"/>
        <pt x="589" y="703" on="0"/>
        <pt x="696" y="670" on="0"/>
        <pt x="773" y="605" on="0"/>
        <pt x="815" y="509" on="0"/>
      </contour>
      <contour>
        <pt x="355" y="25" on="1"/>
        <pt x="376" y="25" on="0"/>
        <pt x="430" y="35" on="0"/>
        <pt x="489" y="64" on="0"/>
        <pt x="550" y="116" on="0"/>
        <pt x="578" y="157" on="1"/>
        <pt x="602" y="192" on="0"/>
        <pt x="640" y="287" on="0"/>
        <pt x="666" y="383" on="0"/>
        <pt x="679" y="467" on="0"/>
        <pt x="679" y="491" on="1"/>
        <pt x="679" y="539" on="0"/>
        <pt x="651" y="604" on="0"/>
        <pt x="604" y="645" on="0"/>
        <pt x="545" y="663" on="0"/>
        <pt x="514" y="663" on="1"/>
        <pt x="492" y="663" on="0"/>
        <pt x="441" y="653" on="0"/>
        <pt x="386" y="629" on="0"/>
        <pt x="331" y="589" on="0"/>
        <pt x="306" y="558" on="1"/>
        <pt x="275" y="519" on="0"/>
        <pt x="233" y="417" on="0"/>
        <pt x="206" y="316" on="0"/>
        <pt x="194" y="229" on="0"/>
        <pt x="194" y="205" on="1"/>
        <pt x="194" y="166" on="0"/>
        <pt x="213" y="100" on="0"/>
        <pt x="253" y="52" on="0"/>
        <pt x="314" y="25" on="0"/>
      </contour>
    </TTGlyph>
    <TTGlyph name="P" xMin="43" yMin="0" xMax="849" yMax="686">
      <contour>
        <pt x="299" y="49" on="1"/>
        <pt x="315" y="48" on="0"/>
        <pt x="344" y="47" on="0"/>
        <pt x="360" y="47" on="1"/>
        <pt x="382" y="47" on="0"/>
        <pt x="401" y="42" on="0"/>
        <pt x="401" y="28" on="1"/>
        <pt x="401" y="7" on="0"/>
        <pt x="380" y="0" on="0"/>
        <pt x="372" y="0" on="1"/>
        <pt x="353" y="0" on="0"/>
        <pt x="314" y="2" on="0"/>
        <pt x="294" y="2" on="1"/>
        <pt x="141" y="2" on="1"/>
        <pt x="122" y="2" on="0"/>
        <pt x="84" y="0" on="0"/>
        <pt x="65" y="0" on="1"/>
        <pt x="49" y="0" on="0"/>
        <pt x="43" y="17" on="0"/>
        <pt x="43" y="18" on="1"/>
        <pt x="43" y="22" on="0"/>
        <pt x="46" y="39" on="0"/>
        <pt x="56" y="44" on="1"/>
        <pt x="58" y="46" on="0"/>
        <pt x="67" y="47" on="0"/>
        <pt x="87" y="47" on="1"/>
        <pt x="99" y="47" on="0"/>
        <pt x="127" y="47" on="0"/>
        <pt x="140" y="48" on="1"/>
        <pt x="154" y="50" on="0"/>
        <pt x="160" y="55" on="0"/>
        <pt x="163" y="67" on="1"/>
        <pt x="306" y="637" on="1"/>
        <pt x="290" y="638" on="0"/>
        <pt x="261" y="639" on="0"/>
        <pt x="245" y="639" on="1"/>
        <pt x="224" y="639" on="0"/>
        <pt x="203" y="643" on="0"/>
        <pt x="203" y="657" on="1"/>
        <pt x="203" y="679" on="0"/>
        <pt x="226" y="686" on="0"/>
        <pt x="240" y="686" on="1"/>
        <pt x="625" y="686" on="1"/>
        <pt x="675" y="686" on="0"/>
        <pt x="757" y="667" on="0"/>
        <pt x="816" y="628" on="0"/>
        <pt x="849" y="570" on="0"/>
        <pt x="849" y="532" on="1"/>
        <pt x="849" y="488" on="0"/>
        <pt x="804" y="405" on="0"/>
        <pt x="722" y="341" on="0"/>
        <pt x="608" y="302" on="0"/>
        <pt x="539" y="302" on="1"/>
        <pt x="362" y="302" on="1"/>
      </contour>
      <contour>
        <pt x="366" y="343" on="1"/>
        <pt x="503" y="343" on="1"/>
        <pt x="571" y="343" on="0"/>
        <pt x="643" y="378" on="0"/>
        <pt x="659" y="398" on="1"/>
        <pt x="673" y="416" on="0"/>
        <pt x="692" y="468" on="0"/>
        <pt x="704" y="517" on="0"/>
        <pt x="709" y="556" on="0"/>
        <pt x="709" y="560" on="1"/>
        <pt x="709" y="586" on="0"/>
        <pt x="684" y="617" on="0"/>
        <pt x="645" y="634" on="0"/>
        <pt x="599" y="639" on="0"/>
        <pt x="578" y="639" on="1"/>
        <pt x="474" y="639" on="1"/>
        <pt x="466" y="639" on="0"/>
        <pt x="454" y="639" on="0"/>
        <pt x="447" y="638" on="1"/>
        <pt x="442" y="637" on="0"/>
        <pt x="439" y="632" on="0"/>
        <pt x="436" y="621" on="1"/>
      </contour>
    </TTGlyph>
    <TTGlyph name="Phi" xMin="28" yMin="0" xMax="738" yMax="686">
      <contour>
        <pt x="374" y="51" on="1"/>
        <pt x="382" y="49" on="0"/>
        <pt x="408" y="47" on="0"/>
        <pt x="437" y="47" on="1"/>
        <pt x="470" y="47" on="1"/>
        <pt x="482" y="47" on="0"/>
        <pt x="503" y="43" on="0"/>
        <pt x="503" y="29" on="1"/>
        <pt x="503" y="28" on="0"/>
        <pt x="500" y="12" on="0"/>
        <pt x="496" y="7" on="1"/>
        <pt x="492" y="2" on="0"/>
        <pt x="481" y="0" on="0"/>
        <pt x="473" y="0" on="1"/>
        <pt x="452" y="0" on="0"/>
        <pt x="409" y="2" on="0"/>
        <pt x="387" y="2" on="1"/>
        <pt x="207" y="2" on="1"/>
        <pt x="187" y="2" on="0"/>
        <pt x="145" y="0" on="0"/>
        <pt x="125" y="0" on="1"/>
        <pt x="117" y="0" on="0"/>
        <pt x="102" y="7" on="0"/>
        <pt x="102" y="18" on="1"/>
        <pt x="102" y="34" on="0"/>
        <pt x="111" y="43" on="1"/>
        <pt x="116" y="46" on="0"/>
        <pt x="125" y="47" on="0"/>
        <pt x="139" y="47" on="1"/>
        <pt x="171" y="47" on="1"/>
        <pt x="203" y="47" on="0"/>
        <pt x="240" y="50" on="0"/>
        <pt x="242" y="52" on="1"/>
        <pt x="246" y="53" on="0"/>
        <pt x="249" y="66" on="0"/>
        <pt x="250" y="68" on="1"/>
        <pt x="270" y="152" on="1"/>
        <pt x="218" y="156" on="0"/>
        <pt x="129" y="180" on="0"/>
        <pt x="65" y="220" on="0"/>
        <pt x="28" y="276" on="0"/>
        <pt x="28" y="312" on="1"/>
        <pt x="28" y="335" on="0"/>
        <pt x="55" y="403" on="0"/>
        <pt x="129" y="470" on="0"/>
        <pt x="261" y="525" on="0"/>
        <pt x="366" y="535" on="1"/>
        <pt x="391" y="636" on="1"/>
        <pt x="381" y="637" on="0"/>
        <pt x="369" y="638" on="0"/>
        <pt x="357" y="639" on="0"/>
        <pt x="341" y="639" on="0"/>
        <pt x="328" y="639" on="1"/>
        <pt x="296" y="639" on="1"/>
        <pt x="282" y="639" on="0"/>
        <pt x="262" y="643" on="0"/>
        <pt x="262" y="657" on="1"/>
        <pt x="262" y="679" on="0"/>
        <pt x="284" y="686" on="0"/>
        <pt x="292" y="686" on="1"/>
        <pt x="313" y="686" on="0"/>
        <pt x="356" y="684" on="0"/>
        <pt x="378" y="684" on="1"/>
        <pt x="552" y="684" on="1"/>
        <pt x="574" y="684" on="0"/>
        <pt x="618" y="686" on="0"/>
        <pt x="640" y="686" on="1"/>
        <pt x="642" y="686" on="0"/>
        <pt x="649" y="685" on="0"/>
        <pt x="657" y="682" on="0"/>
        <pt x="663" y="675" on="0"/>
        <pt x="663" y="668" on="1"/>
        <pt x="663" y="646" on="0"/>
        <pt x="641" y="639" on="0"/>
        <pt x="627" y="639" on="1"/>
        <pt x="594" y="639" on="1"/>
        <pt x="555" y="639" on="0"/>
        <pt x="525" y="635" on="0"/>
        <pt x="523" y="634" on="1"/>
        <pt x="521" y="633" on="0"/>
        <pt x="519" y="629" on="0"/>
        <pt x="516" y="618" on="1"/>
        <pt x="495" y="534" on="1"/>
        <pt x="563" y="529" on="0"/>
        <pt x="656" y="497" on="0"/>
        <pt x="713" y="453" on="0"/>
        <pt x="738" y="401" on="0"/>
        <pt x="738" y="374" on="1"/>
        <pt x="738" y="340" on="0"/>
        <pt x="697" y="266" on="0"/>
        <pt x="614" y="203" on="0"/>
        <pt x="486" y="158" on="0"/>
        <pt x="399" y="152" on="1"/>
      </contour>
      <contour>
        <pt x="357" y="497" on="1"/>
        <pt x="349" y="496" on="0"/>
        <pt x="316" y="491" on="0"/>
        <pt x="277" y="478" on="0"/>
        <pt x="235" y="455" on="0"/>
        <pt x="218" y="437" on="1"/>
        <pt x="205" y="423" on="0"/>
        <pt x="185" y="384" on="0"/>
        <pt x="172" y="342" on="0"/>
        <pt x="165" y="303" on="0"/>
        <pt x="165" y="289" on="1"/>
        <pt x="165" y="277" on="0"/>
        <pt x="170" y="247" on="0"/>
        <pt x="193" y="218" on="0"/>
        <pt x="239" y="194" on="0"/>
        <pt x="279" y="189" on="1"/>
      </contour>
      <contour>
        <pt x="409" y="189" on="1"/>
        <pt x="443" y="194" on="0"/>
        <pt x="521" y="220" on="0"/>
        <pt x="550" y="252" on="1"/>
        <pt x="563" y="267" on="0"/>
        <pt x="582" y="308" on="0"/>
        <pt x="595" y="348" on="0"/>
        <pt x="601" y="386" on="0"/>
        <pt x="601" y="398" on="1"/>
        <pt x="601" y="484" on="0"/>
        <pt x="486" y="497" on="1"/>
      </contour>
    </TTGlyph>
    <TTGlyph name="Pi" xMin="43" yMin="0" xMax="1026" yMax="680">
      <contour>
        <pt x="765" y="49" on="1"/>
        <pt x="781" y="48" on="0"/>
        <pt x="810" y="47" on="0"/>
        <pt x="826" y="47" on="1"/>
        <pt x="846" y="47" on="0"/>
        <pt x="867" y="43" on="0"/>
        <pt x="867" y="29" on="1"/>
        <pt x="867" y="27" on="0"/>
        <pt x="864" y="12" on="0"/>
        <pt x="861" y="7" on="1"/>
        <pt x="857" y="2" on="0"/>
        <pt x="846" y="0" on="0"/>
        <pt x="838" y="0" on="1"/>
        <pt x="819" y="0" on="0"/>
        <pt x="780" y="2" on="0"/>
        <pt x="760" y="2" on="1"/>
        <pt x="741" y="2" on="0"/>
        <pt x="703" y="3" on="0"/>
        <pt x="683" y="3" on="1"/>
        <pt x="664" y="3" on="0"/>
        <pt x="626" y="2" on="0"/>
        <pt x="607" y="2" on="1"/>
        <pt x="588" y="2" on="0"/>
        <pt x="550" y="0" on="0"/>
        <pt x="531" y="0" on="1"/>
        <pt x="515" y="0" on="0"/>
        <pt x="509" y="17" on="0"/>
        <pt x="509" y="18" on="1"/>
        <pt x="509" y="21" on="0"/>
        <pt x="512" y="40" on="0"/>
        <pt x="521" y="45" on="1"/>
        <pt x="524" y="47" on="0"/>
        <pt x="533" y="47" on="0"/>
        <pt x="553" y="47" on="1"/>
        <pt x="565" y="47" on="0"/>
        <pt x="593" y="47" on="0"/>
        <pt x="606" y="48" on="1"/>
        <pt x="620" y="50" on="0"/>
        <pt x="626" y="55" on="0"/>
        <pt x="629" y="67" on="1"/>
        <pt x="771" y="633" on="1"/>
        <pt x="445" y="633" on="1"/>
        <pt x="299" y="49" on="1"/>
        <pt x="315" y="48" on="0"/>
        <pt x="344" y="47" on="0"/>
        <pt x="360" y="47" on="1"/>
        <pt x="380" y="47" on="0"/>
        <pt x="401" y="43" on="0"/>
        <pt x="401" y="29" on="1"/>
        <pt x="401" y="27" on="0"/>
        <pt x="398" y="12" on="0"/>
        <pt x="395" y="7" on="1"/>
        <pt x="391" y="2" on="0"/>
        <pt x="380" y="0" on="0"/>
        <pt x="372" y="0" on="1"/>
        <pt x="353" y="0" on="0"/>
        <pt x="314" y="2" on="0"/>
        <pt x="294" y="2" on="1"/>
        <pt x="275" y="2" on="0"/>
        <pt x="237" y="3" on="0"/>
        <pt x="217" y="3" on="1"/>
        <pt x="198" y="3" on="0"/>
        <pt x="160" y="2" on="0"/>
        <pt x="141" y="2" on="1"/>
        <pt x="122" y="2" on="0"/>
        <pt x="84" y="0" on="0"/>
        <pt x="65" y="0" on="1"/>
        <pt x="49" y="0" on="0"/>
        <pt x="43" y="17" on="0"/>
        <pt x="43" y="18" on="1"/>
        <pt x="43" y="21" on="0"/>
        <pt x="46" y="40" on="0"/>
        <pt x="55" y="45" on="1"/>
        <pt x="58" y="47" on="0"/>
        <pt x="67" y="47" on="0"/>
        <pt x="87" y="47" on="1"/>
        <pt x="99" y="47" on="0"/>
        <pt x="127" y="47" on="0"/>
        <pt x="140" y="48" on="1"/>
        <pt x="154" y="50" on="0"/>
        <pt x="160" y="55" on="0"/>
        <pt x="163" y="67" on="1"/>
        <pt x="304" y="631" on="1"/>
        <pt x="288" y="632" on="0"/>
        <pt x="259" y="633" on="0"/>
        <pt x="243" y="633" on="1"/>
        <pt x="223" y="633" on="0"/>
        <pt x="202" y="637" on="0"/>
        <pt x="202" y="651" on="1"/>
        <pt x="202" y="652" on="0"/>
        <pt x="206" y="671" on="0"/>
        <pt x="211" y="675" on="1"/>
        <pt x="215" y="678" on="0"/>
        <pt x="222" y="680" on="0"/>
        <pt x="238" y="680" on="1"/>
        <pt x="992" y="680" on="1"/>
        <pt x="1005" y="680" on="0"/>
        <pt x="1026" y="676" on="0"/>
        <pt x="1026" y="662" on="1"/>
        <pt x="1026" y="659" on="0"/>
        <pt x="1023" y="640" on="0"/>
        <pt x="1014" y="635" on="1"/>
        <pt x="1011" y="633" on="0"/>
        <pt x="1002" y="633" on="0"/>
        <pt x="982" y="633" on="1"/>
        <pt x="970" y="633" on="0"/>
        <pt x="942" y="633" on="0"/>
        <pt x="929" y="632" on="1"/>
        <pt x="915" y="630" on="0"/>
        <pt x="909" y="625" on="0"/>
        <pt x="906" y="613" on="1"/>
      </contour>
    </TTGlyph>
    <TTGlyph name="Psi" xMin="27" yMin="0" xMax="792" yMax="686">
      <contour>
        <pt x="372" y="636" on="1"/>
        <pt x="362" y="637" on="0"/>
        <pt x="350" y="638" on="0"/>
        <pt x="338" y="639" on="0"/>
        <pt x="322" y="639" on="0"/>
        <pt x="309" y="639" on="1"/>
        <pt x="277" y="639" on="1"/>
        <pt x="264" y="639" on="0"/>
        <pt x="243" y="643" on="0"/>
        <pt x="243" y="657" on="1"/>
        <pt x="243" y="679" on="0"/>
        <pt x="265" y="686" on="0"/>
        <pt x="273" y="686" on="1"/>
        <pt x="294" y="686" on="0"/>
        <pt x="337" y="684" on="0"/>
        <pt x="359" y="684" on="1"/>
        <pt x="539" y="684" on="1"/>
        <pt x="559" y="684" on="0"/>
        <pt x="601" y="686" on="0"/>
        <pt x="621" y="686" on="1"/>
        <pt x="623" y="686" on="0"/>
        <pt x="630" y="685" on="0"/>
        <pt x="638" y="682" on="0"/>
        <pt x="644" y="675" on="0"/>
        <pt x="644" y="668" on="1"/>
        <pt x="644" y="646" on="0"/>
        <pt x="622" y="639" on="0"/>
        <pt x="607" y="639" on="1"/>
        <pt x="575" y="639" on="1"/>
        <pt x="536" y="639" on="0"/>
        <pt x="506" y="635" on="0"/>
        <pt x="504" y="634" on="1"/>
        <pt x="502" y="633" on="0"/>
        <pt x="500" y="629" on="0"/>
        <pt x="497" y="618" on="1"/>
        <pt x="392" y="196" on="1"/>
        <pt x="441" y="209" on="0"/>
        <pt x="506" y="266" on="0"/>
        <pt x="547" y="332" on="0"/>
        <pt x="567" y="396" on="0"/>
        <pt x="572" y="414" on="1"/>
        <pt x="585" y="464" on="0"/>
        <pt x="618" y="518" on="0"/>
        <pt x="651" y="543" on="0"/>
        <pt x="682" y="547" on="0"/>
        <pt x="693" y="547" on="1"/>
        <pt x="758" y="547" on="1"/>
        <pt x="772" y="547" on="0"/>
        <pt x="792" y="543" on="0"/>
        <pt x="792" y="529" on="1"/>
        <pt x="792" y="518" on="0"/>
        <pt x="777" y="512" on="0"/>
        <pt x="772" y="511" on="1"/>
        <pt x="746" y="507" on="0"/>
        <pt x="712" y="454" on="0"/>
        <pt x="700" y="412" on="1"/>
        <pt x="688" y="366" on="0"/>
        <pt x="644" y="278" on="0"/>
        <pt x="569" y="208" on="0"/>
        <pt x="459" y="159" on="0"/>
        <pt x="380" y="152" on="1"/>
        <pt x="355" y="51" on="1"/>
        <pt x="363" y="49" on="0"/>
        <pt x="389" y="47" on="0"/>
        <pt x="418" y="47" on="1"/>
        <pt x="450" y="47" on="1"/>
        <pt x="464" y="47" on="0"/>
        <pt x="484" y="42" on="0"/>
        <pt x="484" y="28" on="1"/>
        <pt x="484" y="7" on="0"/>
        <pt x="463" y="0" on="0"/>
        <pt x="454" y="0" on="1"/>
        <pt x="433" y="0" on="0"/>
        <pt x="390" y="2" on="0"/>
        <pt x="368" y="2" on="1"/>
        <pt x="188" y="2" on="1"/>
        <pt x="168" y="2" on="0"/>
        <pt x="126" y="0" on="0"/>
        <pt x="106" y="0" on="1"/>
        <pt x="98" y="0" on="0"/>
        <pt x="84" y="7" on="0"/>
        <pt x="84" y="18" on="1"/>
        <pt x="84" y="40" on="0"/>
        <pt x="106" y="47" on="0"/>
        <pt x="120" y="47" on="1"/>
        <pt x="152" y="47" on="1"/>
        <pt x="184" y="47" on="0"/>
        <pt x="221" y="50" on="0"/>
        <pt x="223" y="52" on="1"/>
        <pt x="226" y="53" on="0"/>
        <pt x="230" y="65" on="0"/>
        <pt x="231" y="68" on="1"/>
        <pt x="252" y="153" on="1"/>
        <pt x="209" y="158" on="0"/>
        <pt x="136" y="183" on="0"/>
        <pt x="82" y="227" on="0"/>
        <pt x="52" y="294" on="0"/>
        <pt x="52" y="341" on="1"/>
        <pt x="52" y="355" on="0"/>
        <pt x="54" y="387" on="0"/>
        <pt x="62" y="417" on="1"/>
        <pt x="65" y="431" on="0"/>
        <pt x="69" y="456" on="0"/>
        <pt x="69" y="470" on="1"/>
        <pt x="69" y="484" on="0"/>
        <pt x="65" y="500" on="0"/>
        <pt x="58" y="508" on="0"/>
        <pt x="50" y="511" on="0"/>
        <pt x="45" y="511" on="1"/>
        <pt x="31" y="513" on="0"/>
        <pt x="27" y="528" on="0"/>
        <pt x="27" y="529" on="1"/>
        <pt x="27" y="543" on="0"/>
        <pt x="49" y="547" on="0"/>
        <pt x="61" y="547" on="1"/>
        <pt x="126" y="547" on="1"/>
        <pt x="135" y="547" on="0"/>
        <pt x="159" y="545" on="0"/>
        <pt x="182" y="530" on="0"/>
        <pt x="197" y="499" on="0"/>
        <pt x="197" y="470" on="1"/>
        <pt x="197" y="458" on="0"/>
        <pt x="195" y="432" on="0"/>
        <pt x="187" y="400" on="1"/>
        <pt x="182" y="378" on="0"/>
        <pt x="175" y="333" on="0"/>
        <pt x="175" y="316" on="1"/>
        <pt x="175" y="287" on="0"/>
        <pt x="188" y="245" on="0"/>
        <pt x="211" y="216" on="0"/>
        <pt x="243" y="198" on="0"/>
        <pt x="262" y="193" on="1"/>
      </contour>
    </TTGlyph>
    <TTGlyph name="Q" xMin="53" yMin="-194" xMax="815" yMax="703">
      <contour>
        <pt x="444" y="-7" on="1"/>
        <pt x="406" y="-15" on="0"/>
        <pt x="354" y="-17" on="0"/>
        <pt x="345" y="-17" on="1"/>
        <pt x="282" y="-17" on="0"/>
        <pt x="175" y="13" on="0"/>
        <pt x="97" y="76" on="0"/>
        <pt x="53" y="172" on="0"/>
        <pt x="53" y="238" on="1"/>
        <pt x="53" y="313" on="0"/>
        <pt x="113" y="477" on="0"/>
        <pt x="232" y="614" on="0"/>
        <pt x="408" y="703" on="0"/>
        <pt x="524" y="703" on="1"/>
        <pt x="589" y="703" on="0"/>
        <pt x="696" y="670" on="0"/>
        <pt x="773" y="605" on="0"/>
        <pt x="815" y="509" on="0"/>
        <pt x="815" y="445" on="1"/>
        <pt x="815" y="417" on="0"/>
        <pt x="803" y="342" on="0"/>
        <pt x="776" y="261" on="0"/>
        <pt x="731" y="176" on="0"/>
        <pt x="663" y="99" on="0"/>
        <pt x="571" y="33" on="0"/>
        <pt x="510" y="11" on="1"/>
        <pt x="519" y="-11" on="0"/>
        <pt x="538" y="-34" on="0"/>
        <pt x="557" y="-45" on="0"/>
        <pt x="575" y="-47" on="0"/>
        <pt x="583" y="-47" on="1"/>
        <pt x="587" y="-47" on="0"/>
        <pt x="615" y="-45" on="0"/>
        <pt x="648" y="-36" on="0"/>
        <pt x="679" y="-16" on="0"/>
        <pt x="686" y="3" on="1"/>
        <pt x="688" y="7" on="0"/>
        <pt x="695" y="18" on="0"/>
        <pt x="704" y="18" on="1"/>
        <pt x="712" y="18" on="0"/>
        <pt x="722" y="8" on="0"/>
        <pt x="722" y="0" on="1"/>
        <pt x="722" y="-5" on="0"/>
        <pt x="712" y="-38" on="0"/>
        <pt x="693" y="-81" on="0"/>
        <pt x="663" y="-129" on="0"/>
        <pt x="623" y="-168" on="0"/>
        <pt x="572" y="-194" on="0"/>
        <pt x="541" y="-194" on="1"/>
        <pt x="507" y="-194" on="0"/>
        <pt x="469" y="-166" on="0"/>
        <pt x="449" y="-124" on="0"/>
        <pt x="444" y="-76" on="0"/>
        <pt x="444" y="-57" on="1"/>
      </contour>
      <contour>
        <pt x="268" y="43" on="1"/>
        <pt x="267" y="46" on="0"/>
        <pt x="267" y="50" on="0"/>
        <pt x="267" y="56" on="1"/>
        <pt x="267" y="77" on="0"/>
        <pt x="287" y="113" on="0"/>
        <pt x="320" y="140" on="0"/>
        <pt x="361" y="155" on="0"/>
        <pt x="382" y="155" on="1"/>
        <pt x="405" y="155" on="0"/>
        <pt x="439" y="140" on="0"/>
        <pt x="464" y="115" on="0"/>
        <pt x="483" y="81" on="0"/>
        <pt x="490" y="63" on="1"/>
        <pt x="535" y="90" on="0"/>
        <pt x="598" y="172" on="0"/>
        <pt x="641" y="264" on="0"/>
        <pt x="666" y="357" on="0"/>
        <pt x="678" y="433" on="0"/>
        <pt x="682" y="481" on="0"/>
        <pt x="682" y="483" on="1"/>
        <pt x="682" y="533" on="0"/>
        <pt x="654" y="601" on="0"/>
        <pt x="607" y="644" on="0"/>
        <pt x="546" y="663" on="0"/>
        <pt x="514" y="663" on="1"/>
        <pt x="490" y="663" on="0"/>
        <pt x="435" y="651" on="0"/>
        <pt x="379" y="625" on="0"/>
        <pt x="324" y="583" on="0"/>
        <pt x="300" y="552" on="1"/>
        <pt x="268" y="510" on="0"/>
        <pt x="224" y="406" on="0"/>
        <pt x="197" y="306" on="0"/>
        <pt x="186" y="222" on="0"/>
        <pt x="186" y="201" on="1"/>
        <pt x="186" y="150" on="0"/>
        <pt x="221" y="66" on="0"/>
      </contour>
      <contour>
        <pt x="443" y="39" on="1"/>
        <pt x="442" y="66" on="0"/>
        <pt x="431" y="98" on="0"/>
        <pt x="413" y="115" on="0"/>
        <pt x="393" y="119" on="0"/>
        <pt x="383" y="119" on="1"/>
        <pt x="368" y="119" on="0"/>
        <pt x="339" y="108" on="0"/>
        <pt x="316" y="91" on="0"/>
        <pt x="303" y="68" on="0"/>
        <pt x="303" y="56" on="1"/>
        <pt x="303" y="44" on="0"/>
        <pt x="314" y="30" on="0"/>
        <pt x="330" y="24" on="0"/>
        <pt x="348" y="23" on="0"/>
        <pt x="355" y="23" on="1"/>
        <pt x="370" y="23" on="0"/>
        <pt x="400" y="27" on="0"/>
        <pt x="424" y="33" on="0"/>
        <pt x="440" y="38" on="0"/>
      </contour>
    </TTGlyph>
    <TTGlyph name="R" xMin="43" yMin="-17" xMax="881" yMax="686">
      <contour>
        <pt x="371" y="361" on="1"/>
        <pt x="487" y="361" on="1"/>
        <pt x="525" y="361" on="0"/>
        <pt x="580" y="371" on="0"/>
        <pt x="618" y="385" on="0"/>
        <pt x="641" y="401" on="0"/>
        <pt x="646" y="406" on="1"/>
        <pt x="666" y="426" on="0"/>
        <pt x="688" y="477" on="0"/>
        <pt x="699" y="523" on="0"/>
        <pt x="702" y="556" on="0"/>
        <pt x="702" y="556" on="1"/>
        <pt x="702" y="587" on="0"/>
        <pt x="670" y="621" on="0"/>
        <pt x="617" y="636" on="0"/>
        <pt x="551" y="639" on="0"/>
        <pt x="517" y="639" on="1"/>
        <pt x="508" y="639" on="0"/>
        <pt x="484" y="639" on="0"/>
        <pt x="461" y="639" on="0"/>
        <pt x="444" y="638" on="0"/>
        <pt x="442" y="637" on="1"/>
        <pt x="441" y="636" on="0"/>
        <pt x="439" y="632" on="0"/>
        <pt x="436" y="621" on="1"/>
      </contour>
      <contour>
        <pt x="633" y="339" on="1"/>
        <pt x="682" y="321" on="0"/>
        <pt x="719" y="260" on="0"/>
        <pt x="719" y="231" on="1"/>
        <pt x="719" y="224" on="0"/>
        <pt x="716" y="200" on="0"/>
        <pt x="714" y="191" on="1"/>
        <pt x="709" y="161" on="0"/>
        <pt x="704" y="123" on="0"/>
        <pt x="701" y="99" on="0"/>
        <pt x="700" y="86" on="0"/>
        <pt x="700" y="80" on="1"/>
        <pt x="700" y="42" on="0"/>
        <pt x="726" y="19" on="0"/>
        <pt x="746" y="19" on="1"/>
        <pt x="775" y="19" on="0"/>
        <pt x="823" y="67" on="0"/>
        <pt x="833" y="97" on="1"/>
        <pt x="836" y="108" on="0"/>
        <pt x="844" y="117" on="0"/>
        <pt x="857" y="117" on="1"/>
        <pt x="859" y="117" on="0"/>
        <pt x="867" y="116" on="0"/>
        <pt x="875" y="113" on="0"/>
        <pt x="881" y="106" on="0"/>
        <pt x="881" y="99" on="1"/>
        <pt x="881" y="93" on="0"/>
        <pt x="866" y="55" on="0"/>
        <pt x="832" y="15" on="0"/>
        <pt x="778" y="-17" on="0"/>
        <pt x="738" y="-17" on="1"/>
        <pt x="719" y="-17" on="0"/>
        <pt x="656" y="-11" on="0"/>
        <pt x="596" y="11" on="0"/>
        <pt x="552" y="56" on="0"/>
        <pt x="552" y="95" on="1"/>
        <pt x="552" y="107" on="0"/>
        <pt x="558" y="136" on="0"/>
        <pt x="566" y="168" on="1"/>
        <pt x="571" y="187" on="0"/>
        <pt x="582" y="232" on="0"/>
        <pt x="582" y="243" on="1"/>
        <pt x="582" y="271" on="0"/>
        <pt x="559" y="304" on="0"/>
        <pt x="528" y="320" on="0"/>
        <pt x="494" y="325" on="0"/>
        <pt x="483" y="325" on="1"/>
        <pt x="362" y="325" on="1"/>
        <pt x="293" y="49" on="1"/>
        <pt x="309" y="48" on="0"/>
        <pt x="338" y="47" on="0"/>
        <pt x="354" y="47" on="1"/>
        <pt x="374" y="47" on="0"/>
        <pt x="395" y="43" on="0"/>
        <pt x="395" y="29" on="1"/>
        <pt x="395" y="28" on="0"/>
        <pt x="392" y="11" on="0"/>
        <pt x="388" y="7" on="1"/>
        <pt x="384" y="2" on="0"/>
        <pt x="373" y="0" on="0"/>
        <pt x="367" y="0" on="1"/>
        <pt x="354" y="0" on="0"/>
        <pt x="313" y="1" on="0"/>
        <pt x="268" y="2" on="0"/>
        <pt x="227" y="3" on="0"/>
        <pt x="214" y="3" on="1"/>
        <pt x="196" y="3" on="0"/>
        <pt x="159" y="2" on="0"/>
        <pt x="141" y="2" on="1"/>
        <pt x="122" y="2" on="0"/>
        <pt x="84" y="0" on="0"/>
        <pt x="65" y="0" on="1"/>
        <pt x="49" y="0" on="0"/>
        <pt x="43" y="16" on="0"/>
        <pt x="43" y="18" on="1"/>
        <pt x="43" y="21" on="0"/>
        <pt x="46" y="40" on="0"/>
        <pt x="55" y="45" on="1"/>
        <pt x="58" y="47" on="0"/>
        <pt x="67" y="47" on="0"/>
        <pt x="87" y="47" on="1"/>
        <pt x="99" y="47" on="0"/>
        <pt x="127" y="47" on="0"/>
        <pt x="140" y="48" on="1"/>
        <pt x="154" y="50" on="0"/>
        <pt x="160" y="55" on="0"/>
        <pt x="163" y="67" on="1"/>
        <pt x="306" y="637" on="1"/>
        <pt x="290" y="638" on="0"/>
        <pt x="261" y="639" on="0"/>
        <pt x="245" y="639" on="1"/>
        <pt x="223" y="639" on="0"/>
        <pt x="203" y="643" on="0"/>
        <pt x="203" y="657" on="1"/>
        <pt x="203" y="679" on="0"/>
        <pt x="225" y="686" on="0"/>
        <pt x="240" y="686" on="1"/>
        <pt x="587" y="686" on="1"/>
        <pt x="643" y="686" on="0"/>
        <pt x="738" y="666" on="0"/>
        <pt x="806" y="628" on="0"/>
        <pt x="844" y="571" on="0"/>
        <pt x="844" y="533" on="1"/>
        <pt x="844" y="514" on="0"/>
        <pt x="828" y="462" on="0"/>
        <pt x="783" y="408" on="0"/>
        <pt x="700" y="357" on="0"/>
      </contour>
    </TTGlyph>
    <TTGlyph name="S" xMin="64" yMin="-17" xMax="714" yMax="703">
      <contour>
        <pt x="662" y="480" on="1"/>
        <pt x="658" y="465" on="0"/>
        <pt x="651" y="458" on="0"/>
        <pt x="637" y="458" on="1"/>
        <pt x="629" y="458" on="0"/>
        <pt x="613" y="462" on="0"/>
        <pt x="613" y="473" on="1"/>
        <pt x="613" y="475" on="0"/>
        <pt x="616" y="498" on="0"/>
        <pt x="616" y="512" on="1"/>
        <pt x="616" y="554" on="0"/>
        <pt x="590" y="611" on="0"/>
        <pt x="546" y="646" on="0"/>
        <pt x="488" y="660" on="0"/>
        <pt x="457" y="660" on="1"/>
        <pt x="412" y="660" on="0"/>
        <pt x="349" y="631" on="0"/>
        <pt x="310" y="588" on="0"/>
        <pt x="292" y="541" on="0"/>
        <pt x="292" y="523" on="1"/>
        <pt x="292" y="494" on="0"/>
        <pt x="330" y="451" on="0"/>
        <pt x="363" y="443" on="1"/>
        <pt x="441" y="425" on="1"/>
        <pt x="473" y="418" on="0"/>
        <pt x="515" y="407" on="0"/>
        <pt x="547" y="395" on="0"/>
        <pt x="572" y="379" on="0"/>
        <pt x="585" y="365" on="1"/>
        <pt x="602" y="348" on="0"/>
        <pt x="630" y="289" on="0"/>
        <pt x="630" y="248" on="1"/>
        <pt x="630" y="210" on="0"/>
        <pt x="597" y="117" on="0"/>
        <pt x="527" y="37" on="0"/>
        <pt x="421" y="-17" on="0"/>
        <pt x="347" y="-17" on="1"/>
        <pt x="329" y="-17" on="0"/>
        <pt x="281" y="-13" on="0"/>
        <pt x="230" y="-1" on="0"/>
        <pt x="179" y="22" on="0"/>
        <pt x="158" y="41" on="1"/>
        <pt x="152" y="36" on="0"/>
        <pt x="134" y="20" on="0"/>
        <pt x="116" y="5" on="0"/>
        <pt x="102" y="-6" on="0"/>
        <pt x="101" y="-7" on="1"/>
        <pt x="93" y="-14" on="0"/>
        <pt x="88" y="-17" on="0"/>
        <pt x="81" y="-17" on="1"/>
        <pt x="75" y="-17" on="0"/>
        <pt x="64" y="-11" on="0"/>
        <pt x="64" y="-3" on="1"/>
        <pt x="115" y="205" on="1"/>
        <pt x="119" y="219" on="0"/>
        <pt x="126" y="228" on="0"/>
        <pt x="141" y="228" on="1"/>
        <pt x="148" y="228" on="0"/>
        <pt x="164" y="225" on="0"/>
        <pt x="164" y="214" on="1"/>
        <pt x="164" y="212" on="0"/>
        <pt x="163" y="206" on="0"/>
        <pt x="163" y="204" on="1"/>
        <pt x="159" y="190" on="0"/>
        <pt x="158" y="169" on="0"/>
        <pt x="158" y="163" on="1"/>
        <pt x="158" y="123" on="0"/>
        <pt x="194" y="71" on="0"/>
        <pt x="249" y="41" on="0"/>
        <pt x="318" y="30" on="0"/>
        <pt x="351" y="30" on="1"/>
        <pt x="400" y="30" on="0"/>
        <pt x="465" y="64" on="0"/>
        <pt x="505" y="113" on="0"/>
        <pt x="522" y="165" on="0"/>
        <pt x="522" y="183" on="1"/>
        <pt x="522" y="210" on="0"/>
        <pt x="502" y="244" on="0"/>
        <pt x="476" y="263" on="0"/>
        <pt x="449" y="272" on="0"/>
        <pt x="443" y="273" on="1"/>
        <pt x="422" y="278" on="0"/>
        <pt x="382" y="286" on="0"/>
        <pt x="365" y="291" on="1"/>
        <pt x="337" y="297" on="0"/>
        <pt x="299" y="307" on="0"/>
        <pt x="269" y="318" on="0"/>
        <pt x="245" y="332" on="0"/>
        <pt x="232" y="344" on="1"/>
        <pt x="214" y="361" on="0"/>
        <pt x="184" y="418" on="0"/>
        <pt x="184" y="458" on="1"/>
        <pt x="184" y="496" on="0"/>
        <pt x="218" y="582" on="0"/>
        <pt x="287" y="655" on="0"/>
        <pt x="391" y="703" on="0"/>
        <pt x="460" y="703" on="1"/>
        <pt x="562" y="703" on="0"/>
        <pt x="619" y="645" on="1"/>
        <pt x="674" y="691" on="1"/>
        <pt x="684" y="700" on="0"/>
        <pt x="691" y="703" on="0"/>
        <pt x="696" y="703" on="1"/>
        <pt x="701" y="703" on="0"/>
        <pt x="714" y="698" on="0"/>
        <pt x="714" y="688" on="1"/>
        <pt x="714" y="686" on="0"/>
        <pt x="711" y="670" on="0"/>
        <pt x="710" y="668" on="1"/>
      </contour>
    </TTGlyph>
    <TTGlyph name="Sigma" xMin="69" yMin="0" xMax="902" yMax="686">
      <contour>
        <pt x="206" y="65" on="1"/>
        <pt x="468" y="65" on="1"/>
        <pt x="524" y="65" on="0"/>
        <pt x="616" y="76" on="0"/>
        <pt x="691" y="112" on="0"/>
        <pt x="752" y="180" on="0"/>
        <pt x="776" y="237" on="1"/>
        <pt x="782" y="251" on="0"/>
        <pt x="790" y="259" on="0"/>
        <pt x="803" y="259" on="1"/>
        <pt x="808" y="259" on="0"/>
        <pt x="826" y="254" on="0"/>
        <pt x="826" y="241" on="1"/>
        <pt x="826" y="239" on="0"/>
        <pt x="815" y="208" on="0"/>
        <pt x="798" y="163" on="0"/>
        <pt x="778" y="111" on="0"/>
        <pt x="759" y="64" on="0"/>
        <pt x="745" y="27" on="0"/>
        <pt x="742" y="20" on="1"/>
        <pt x="739" y="13" on="0"/>
        <pt x="734" y="4" on="0"/>
        <pt x="727" y="1" on="0"/>
        <pt x="716" y="0" on="0"/>
        <pt x="706" y="0" on="1"/>
        <pt x="103" y="0" on="1"/>
        <pt x="89" y="0" on="0"/>
        <pt x="69" y="4" on="0"/>
        <pt x="69" y="18" on="1"/>
        <pt x="69" y="22" on="0"/>
        <pt x="73" y="31" on="0"/>
        <pt x="84" y="39" on="1"/>
        <pt x="431" y="292" on="1"/>
        <pt x="236" y="639" on="1"/>
        <pt x="231" y="647" on="0"/>
        <pt x="228" y="653" on="0"/>
        <pt x="228" y="657" on="1"/>
        <pt x="228" y="658" on="0"/>
        <pt x="232" y="677" on="0"/>
        <pt x="238" y="681" on="1"/>
        <pt x="242" y="684" on="0"/>
        <pt x="249" y="686" on="0"/>
        <pt x="265" y="686" on="1"/>
        <pt x="868" y="686" on="1"/>
        <pt x="878" y="686" on="0"/>
        <pt x="891" y="685" on="0"/>
        <pt x="899" y="679" on="0"/>
        <pt x="902" y="665" on="0"/>
        <pt x="901" y="652" on="1"/>
        <pt x="883" y="475" on="1"/>
        <pt x="881" y="460" on="0"/>
        <pt x="875" y="445" on="0"/>
        <pt x="858" y="445" on="1"/>
        <pt x="847" y="445" on="0"/>
        <pt x="835" y="454" on="0"/>
        <pt x="835" y="466" on="1"/>
        <pt x="835" y="474" on="0"/>
        <pt x="837" y="490" on="0"/>
        <pt x="837" y="498" on="1"/>
        <pt x="837" y="543" on="0"/>
        <pt x="812" y="598" on="0"/>
        <pt x="761" y="629" on="0"/>
        <pt x="683" y="639" on="0"/>
        <pt x="629" y="639" on="1"/>
        <pt x="410" y="639" on="1"/>
        <pt x="567" y="359" on="1"/>
        <pt x="572" y="351" on="0"/>
        <pt x="574" y="346" on="0"/>
        <pt x="574" y="343" on="1"/>
        <pt x="574" y="336" on="0"/>
        <pt x="568" y="331" on="0"/>
        <pt x="558" y="323" on="1"/>
      </contour>
    </TTGlyph>
    <TTGlyph name="T" xMin="25" yMin="0" xMax="772" yMax="675">
      <contour>
        <pt x="353" y="50" on="1"/>
        <pt x="371" y="48" on="0"/>
        <pt x="407" y="47" on="0"/>
        <pt x="425" y="47" on="1"/>
        <pt x="466" y="47" on="1"/>
        <pt x="479" y="47" on="0"/>
        <pt x="500" y="43" on="0"/>
        <pt x="500" y="29" on="1"/>
        <pt x="500" y="7" on="0"/>
        <pt x="478" y="0" on="0"/>
        <pt x="469" y="0" on="1"/>
        <pt x="445" y="0" on="0"/>
        <pt x="397" y="2" on="0"/>
        <pt x="373" y="2" on="1"/>
        <pt x="347" y="2" on="0"/>
        <pt x="297" y="3" on="0"/>
        <pt x="271" y="3" on="1"/>
        <pt x="246" y="3" on="0"/>
        <pt x="197" y="2" on="0"/>
        <pt x="172" y="2" on="1"/>
        <pt x="148" y="2" on="0"/>
        <pt x="100" y="0" on="0"/>
        <pt x="77" y="0" on="1"/>
        <pt x="72" y="0" on="0"/>
        <pt x="53" y="5" on="0"/>
        <pt x="53" y="19" on="1"/>
        <pt x="53" y="40" on="0"/>
        <pt x="75" y="47" on="0"/>
        <pt x="89" y="47" on="1"/>
        <pt x="131" y="47" on="1"/>
        <pt x="169" y="47" on="0"/>
        <pt x="209" y="51" on="0"/>
        <pt x="214" y="52" on="1"/>
        <pt x="357" y="627" on="1"/>
        <pt x="350" y="627" on="0"/>
        <pt x="340" y="628" on="0"/>
        <pt x="330" y="628" on="0"/>
        <pt x="316" y="628" on="0"/>
        <pt x="305" y="628" on="1"/>
        <pt x="252" y="628" on="0"/>
        <pt x="182" y="616" on="0"/>
        <pt x="132" y="580" on="0"/>
        <pt x="96" y="514" on="0"/>
        <pt x="76" y="459" on="1"/>
        <pt x="70" y="444" on="0"/>
        <pt x="62" y="434" on="0"/>
        <pt x="49" y="434" on="1"/>
        <pt x="45" y="434" on="0"/>
        <pt x="25" y="439" on="0"/>
        <pt x="25" y="452" on="1"/>
        <pt x="25" y="454" on="0"/>
        <pt x="31" y="469" on="0"/>
        <pt x="31" y="470" on="1"/>
        <pt x="95" y="655" on="1"/>
        <pt x="100" y="670" on="0"/>
        <pt x="114" y="675" on="0"/>
        <pt x="131" y="675" on="1"/>
        <pt x="738" y="675" on="1"/>
        <pt x="753" y="675" on="0"/>
        <pt x="772" y="670" on="0"/>
        <pt x="772" y="655" on="1"/>
        <pt x="744" y="462" on="1"/>
        <pt x="742" y="447" on="0"/>
        <pt x="733" y="434" on="0"/>
        <pt x="719" y="434" on="1"/>
        <pt x="714" y="434" on="0"/>
        <pt x="695" y="439" on="0"/>
        <pt x="695" y="453" on="1"/>
        <pt x="695" y="455" on="0"/>
        <pt x="697" y="466" on="0"/>
        <pt x="697" y="471" on="1"/>
        <pt x="700" y="489" on="0"/>
        <pt x="704" y="519" on="0"/>
        <pt x="704" y="539" on="1"/>
        <pt x="704" y="571" on="0"/>
        <pt x="686" y="606" on="0"/>
        <pt x="649" y="624" on="0"/>
        <pt x="595" y="628" on="0"/>
        <pt x="559" y="628" on="1"/>
        <pt x="517" y="628" on="1"/>
        <pt x="503" y="627" on="0"/>
        <pt x="496" y="622" on="0"/>
        <pt x="493" y="610" on="1"/>
      </contour>
    </TTGlyph>
    <TTGlyph name="Theta" xMin="53" yMin="-17" xMax="844" yMax="703">
      <contour>
        <pt x="844" y="440" on="1"/>
        <pt x="844" y="363" on="0"/>
        <pt x="782" y="201" on="0"/>
        <pt x="660" y="68" on="0"/>
        <pt x="479" y="-17" on="0"/>
        <pt x="360" y="-17" on="1"/>
        <pt x="294" y="-17" on="0"/>
        <pt x="182" y="14" on="0"/>
        <pt x="99" y="78" on="0"/>
        <pt x="53" y="175" on="0"/>
        <pt x="53" y="242" on="1"/>
        <pt x="53" y="291" on="0"/>
        <pt x="80" y="397" on="0"/>
        <pt x="134" y="499" on="0"/>
        <pt x="215" y="592" on="0"/>
        <pt x="323" y="662" on="0"/>
        <pt x="458" y="703" on="0"/>
        <pt x="539" y="703" on="1"/>
        <pt x="602" y="703" on="0"/>
        <pt x="714" y="673" on="0"/>
        <pt x="796" y="609" on="0"/>
        <pt x="844" y="509" on="0"/>
      </contour>
      <contour>
        <pt x="369" y="21" on="1"/>
        <pt x="432" y="21" on="0"/>
        <pt x="562" y="81" on="0"/>
        <pt x="610" y="145" on="1"/>
        <pt x="641" y="187" on="0"/>
        <pt x="682" y="287" on="0"/>
        <pt x="706" y="380" on="0"/>
        <pt x="715" y="457" on="0"/>
        <pt x="715" y="476" on="1"/>
        <pt x="715" y="564" on="0"/>
        <pt x="621" y="667" on="0"/>
        <pt x="530" y="667" on="1"/>
        <pt x="507" y="667" on="0"/>
        <pt x="449" y="657" on="0"/>
        <pt x="387" y="630" on="0"/>
        <pt x="323" y="583" on="0"/>
        <pt x="294" y="547" on="1"/>
        <pt x="261" y="505" on="0"/>
        <pt x="218" y="403" on="0"/>
        <pt x="193" y="306" on="0"/>
        <pt x="182" y="227" on="0"/>
        <pt x="182" y="208" on="1"/>
        <pt x="182" y="154" on="0"/>
        <pt x="215" y="83" on="0"/>
        <pt x="268" y="39" on="0"/>
        <pt x="335" y="21" on="0"/>
      </contour>
      <contour>
        <pt x="614" y="276" on="1"/>
        <pt x="610" y="262" on="0"/>
        <pt x="603" y="251" on="0"/>
        <pt x="589" y="251" on="1"/>
        <pt x="586" y="251" on="0"/>
        <pt x="565" y="256" on="0"/>
        <pt x="565" y="269" on="1"/>
        <pt x="565" y="273" on="0"/>
        <pt x="569" y="284" on="0"/>
        <pt x="569" y="285" on="1"/>
        <pt x="301" y="285" on="1"/>
        <pt x="301" y="285" on="0"/>
        <pt x="299" y="278" on="0"/>
        <pt x="297" y="269" on="0"/>
        <pt x="294" y="261" on="0"/>
        <pt x="294" y="260" on="1"/>
        <pt x="289" y="253" on="0"/>
        <pt x="278" y="251" on="0"/>
        <pt x="273" y="251" on="1"/>
        <pt x="270" y="251" on="0"/>
        <pt x="249" y="256" on="0"/>
        <pt x="249" y="269" on="1"/>
        <pt x="249" y="270" on="0"/>
        <pt x="250" y="275" on="0"/>
        <pt x="253" y="285" on="1"/>
        <pt x="285" y="412" on="1"/>
        <pt x="289" y="426" on="0"/>
        <pt x="296" y="437" on="0"/>
        <pt x="310" y="437" on="1"/>
        <pt x="312" y="437" on="0"/>
        <pt x="319" y="436" on="0"/>
        <pt x="328" y="433" on="0"/>
        <pt x="334" y="426" on="0"/>
        <pt x="334" y="419" on="1"/>
        <pt x="334" y="415" on="0"/>
        <pt x="330" y="404" on="0"/>
        <pt x="330" y="403" on="1"/>
        <pt x="598" y="403" on="1"/>
        <pt x="598" y="403" on="0"/>
        <pt x="600" y="410" on="0"/>
        <pt x="602" y="419" on="0"/>
        <pt x="605" y="427" on="0"/>
        <pt x="605" y="428" on="1"/>
        <pt x="610" y="435" on="0"/>
        <pt x="621" y="437" on="0"/>
        <pt x="626" y="437" on="1"/>
        <pt x="628" y="437" on="0"/>
        <pt x="635" y="436" on="0"/>
        <pt x="644" y="433" on="0"/>
        <pt x="650" y="426" on="0"/>
        <pt x="650" y="419" on="1"/>
        <pt x="650" y="418" on="0"/>
        <pt x="649" y="413" on="0"/>
        <pt x="646" y="403" on="1"/>
      </contour>
    </TTGlyph>
    <TTGlyph name="U" xMin="63" yMin="-17" xMax="877" yMax="686">
      <contour>
        <pt x="659" y="226" on="1"/>
        <pt x="646" y="175" on="0"/>
        <pt x="589" y="86" on="0"/>
        <pt x="504" y="20" on="0"/>
        <pt x="393" y="-17" on="0"/>
        <pt x="326" y="-17" on="1"/>
        <pt x="269" y="-17" on="0"/>
        <pt x="173" y="7" on="0"/>
        <pt x="103" y="56" on="0"/>
        <pt x="63" y="129" on="0"/>
        <pt x="63" y="178" on="1"/>
        <pt x="63" y="192" on="0"/>
        <pt x="65" y="214" on="0"/>
        <pt x="72" y="241" on="1"/>
        <pt x="155" y="576" on="1"/>
        <pt x="157" y="583" on="0"/>
        <pt x="162" y="602" on="0"/>
        <pt x="167" y="620" on="0"/>
        <pt x="170" y="633" on="0"/>
        <pt x="170" y="634" on="1"/>
        <pt x="170" y="638" on="0"/>
        <pt x="132" y="639" on="0"/>
        <pt x="114" y="639" on="1"/>
        <pt x="89" y="639" on="0"/>
        <pt x="68" y="643" on="0"/>
        <pt x="68" y="657" on="1"/>
        <pt x="68" y="668" on="0"/>
        <pt x="74" y="680" on="0"/>
        <pt x="83" y="685" on="0"/>
        <pt x="93" y="686" on="0"/>
        <pt x="97" y="686" on="1"/>
        <pt x="117" y="686" on="0"/>
        <pt x="156" y="684" on="0"/>
        <pt x="176" y="684" on="1"/>
        <pt x="328" y="684" on="1"/>
        <pt x="347" y="684" on="0"/>
        <pt x="385" y="686" on="0"/>
        <pt x="404" y="686" on="1"/>
        <pt x="412" y="686" on="0"/>
        <pt x="426" y="678" on="0"/>
        <pt x="426" y="668" on="1"/>
        <pt x="426" y="646" on="0"/>
        <pt x="404" y="639" on="0"/>
        <pt x="378" y="639" on="1"/>
        <pt x="374" y="639" on="0"/>
        <pt x="358" y="639" on="0"/>
        <pt x="338" y="638" on="0"/>
        <pt x="318" y="637" on="0"/>
        <pt x="310" y="635" on="1"/>
        <pt x="205" y="216" on="1"/>
        <pt x="200" y="197" on="0"/>
        <pt x="195" y="160" on="0"/>
        <pt x="195" y="141" on="1"/>
        <pt x="195" y="87" on="0"/>
        <pt x="262" y="30" on="0"/>
        <pt x="333" y="30" on="1"/>
        <pt x="378" y="30" on="0"/>
        <pt x="465" y="53" on="0"/>
        <pt x="538" y="103" on="0"/>
        <pt x="594" y="181" on="0"/>
        <pt x="607" y="235" on="1"/>
        <pt x="706" y="629" on="1"/>
        <pt x="697" y="633" on="0"/>
        <pt x="675" y="637" on="0"/>
        <pt x="655" y="639" on="0"/>
        <pt x="639" y="639" on="0"/>
        <pt x="636" y="639" on="1"/>
        <pt x="625" y="639" on="0"/>
        <pt x="605" y="643" on="0"/>
        <pt x="605" y="657" on="1"/>
        <pt x="605" y="668" on="0"/>
        <pt x="611" y="680" on="0"/>
        <pt x="620" y="685" on="0"/>
        <pt x="629" y="686" on="0"/>
        <pt x="632" y="686" on="1"/>
        <pt x="641" y="686" on="0"/>
        <pt x="672" y="685" on="0"/>
        <pt x="706" y="684" on="0"/>
        <pt x="737" y="683" on="0"/>
        <pt x="746" y="683" on="1"/>
        <pt x="774" y="683" on="0"/>
        <pt x="830" y="686" on="0"/>
        <pt x="857" y="686" on="1"/>
        <pt x="877" y="686" on="0"/>
        <pt x="877" y="668" on="1"/>
        <pt x="877" y="646" on="0"/>
        <pt x="856" y="639" on="0"/>
        <pt x="842" y="639" on="1"/>
        <pt x="830" y="639" on="0"/>
        <pt x="797" y="636" on="0"/>
        <pt x="784" y="634" on="1"/>
        <pt x="766" y="630" on="0"/>
        <pt x="759" y="622" on="0"/>
        <pt x="755" y="608" on="1"/>
      </contour>
    </TTGlyph>
    <TTGlyph name="Upsilon" xMin="32" yMin="0" xMax="802" yMax="703">
      <contour>
        <pt x="396" y="472" on="1"/>
        <pt x="417" y="513" on="0"/>
        <pt x="474" y="595" on="0"/>
        <pt x="545" y="661" on="0"/>
        <pt x="631" y="703" on="0"/>
        <pt x="682" y="703" on="1"/>
        <pt x="738" y="703" on="0"/>
        <pt x="802" y="637" on="0"/>
        <pt x="802" y="586" on="1"/>
        <pt x="802" y="565" on="0"/>
        <pt x="796" y="543" on="0"/>
        <pt x="785" y="533" on="0"/>
        <pt x="773" y="531" on="0"/>
        <pt x="767" y="531" on="1"/>
        <pt x="757" y="531" on="0"/>
        <pt x="744" y="535" on="0"/>
        <pt x="744" y="546" on="1"/>
        <pt x="744" y="548" on="0"/>
        <pt x="744" y="555" on="0"/>
        <pt x="745" y="557" on="1"/>
        <pt x="745" y="562" on="0"/>
        <pt x="741" y="575" on="0"/>
        <pt x="725" y="586" on="0"/>
        <pt x="691" y="593" on="0"/>
        <pt x="661" y="593" on="1"/>
        <pt x="618" y="593" on="0"/>
        <pt x="548" y="553" on="0"/>
        <pt x="495" y="493" on="0"/>
        <pt x="458" y="422" on="0"/>
        <pt x="447" y="391" on="1"/>
        <pt x="444" y="381" on="0"/>
        <pt x="431" y="335" on="0"/>
        <pt x="416" y="276" on="0"/>
        <pt x="399" y="209" on="0"/>
        <pt x="383" y="146" on="0"/>
        <pt x="370" y="92" on="0"/>
        <pt x="366" y="76" on="1"/>
        <pt x="362" y="61" on="0"/>
        <pt x="361" y="54" on="0"/>
        <pt x="361" y="53" on="1"/>
        <pt x="361" y="51" on="0"/>
        <pt x="376" y="48" on="0"/>
        <pt x="397" y="47" on="0"/>
        <pt x="418" y="47" on="0"/>
        <pt x="423" y="47" on="1"/>
        <pt x="455" y="47" on="1"/>
        <pt x="469" y="47" on="0"/>
        <pt x="489" y="42" on="0"/>
        <pt x="489" y="28" on="1"/>
        <pt x="489" y="7" on="0"/>
        <pt x="468" y="0" on="0"/>
        <pt x="459" y="0" on="1"/>
        <pt x="436" y="0" on="0"/>
        <pt x="391" y="2" on="0"/>
        <pt x="368" y="2" on="1"/>
        <pt x="190" y="2" on="1"/>
        <pt x="167" y="2" on="0"/>
        <pt x="123" y="0" on="0"/>
        <pt x="101" y="0" on="1"/>
        <pt x="98" y="0" on="0"/>
        <pt x="78" y="5" on="0"/>
        <pt x="78" y="18" on="1"/>
        <pt x="78" y="40" on="0"/>
        <pt x="100" y="47" on="0"/>
        <pt x="114" y="47" on="1"/>
        <pt x="146" y="47" on="1"/>
        <pt x="152" y="47" on="0"/>
        <pt x="176" y="47" on="0"/>
        <pt x="200" y="49" on="0"/>
        <pt x="220" y="52" on="0"/>
        <pt x="221" y="55" on="1"/>
        <pt x="222" y="58" on="0"/>
        <pt x="229" y="85" on="0"/>
        <pt x="231" y="96" on="1"/>
        <pt x="280" y="289" on="1"/>
        <pt x="289" y="324" on="0"/>
        <pt x="299" y="368" on="0"/>
        <pt x="305" y="400" on="0"/>
        <pt x="307" y="426" on="0"/>
        <pt x="307" y="443" on="1"/>
        <pt x="307" y="473" on="0"/>
        <pt x="295" y="527" on="0"/>
        <pt x="268" y="568" on="0"/>
        <pt x="223" y="593" on="0"/>
        <pt x="190" y="593" on="1"/>
        <pt x="157" y="593" on="0"/>
        <pt x="117" y="584" on="0"/>
        <pt x="96" y="570" on="0"/>
        <pt x="88" y="556" on="0"/>
        <pt x="86" y="550" on="1"/>
        <pt x="81" y="536" on="0"/>
        <pt x="65" y="531" on="0"/>
        <pt x="55" y="531" on="1"/>
        <pt x="46" y="531" on="0"/>
        <pt x="32" y="534" on="0"/>
        <pt x="32" y="545" on="1"/>
        <pt x="32" y="559" on="0"/>
        <pt x="58" y="611" on="0"/>
        <pt x="107" y="664" on="0"/>
        <pt x="179" y="703" on="0"/>
        <pt x="225" y="703" on="1"/>
        <pt x="267" y="703" on="0"/>
        <pt x="325" y="674" on="0"/>
        <pt x="363" y="628" on="0"/>
        <pt x="384" y="574" on="0"/>
        <pt x="393" y="522" on="0"/>
        <pt x="395" y="481" on="0"/>
        <pt x="395" y="472" on="1"/>
      </contour>
    </TTGlyph>
    <TTGlyph name="V" xMin="66" yMin="-17" xMax="885" yMax="686">
      <contour>
        <pt x="352" y="9" on="1"/>
        <pt x="342" y="-5" on="0"/>
        <pt x="327" y="-17" on="0"/>
        <pt x="306" y="-17" on="1"/>
        <pt x="292" y="-17" on="0"/>
        <pt x="275" y="-10" on="0"/>
        <pt x="271" y="11" on="1"/>
        <pt x="157" y="619" on="1"/>
        <pt x="155" y="632" on="0"/>
        <pt x="150" y="637" on="0"/>
        <pt x="142" y="638" on="1"/>
        <pt x="131" y="639" on="0"/>
        <pt x="113" y="639" on="0"/>
        <pt x="103" y="639" on="1"/>
        <pt x="87" y="639" on="0"/>
        <pt x="66" y="643" on="0"/>
        <pt x="66" y="657" on="1"/>
        <pt x="66" y="668" on="0"/>
        <pt x="72" y="680" on="0"/>
        <pt x="81" y="685" on="0"/>
        <pt x="91" y="686" on="0"/>
        <pt x="94" y="686" on="1"/>
        <pt x="110" y="686" on="0"/>
        <pt x="143" y="684" on="0"/>
        <pt x="160" y="684" on="1"/>
        <pt x="177" y="684" on="0"/>
        <pt x="212" y="683" on="0"/>
        <pt x="229" y="683" on="1"/>
        <pt x="247" y="683" on="0"/>
        <pt x="284" y="684" on="0"/>
        <pt x="302" y="684" on="1"/>
        <pt x="321" y="684" on="0"/>
        <pt x="359" y="686" on="0"/>
        <pt x="378" y="686" on="1"/>
        <pt x="387" y="686" on="0"/>
        <pt x="400" y="678" on="0"/>
        <pt x="400" y="668" on="1"/>
        <pt x="400" y="646" on="0"/>
        <pt x="379" y="639" on="0"/>
        <pt x="362" y="639" on="1"/>
        <pt x="359" y="639" on="0"/>
        <pt x="340" y="639" on="0"/>
        <pt x="318" y="637" on="0"/>
        <pt x="301" y="634" on="0"/>
        <pt x="301" y="631" on="1"/>
        <pt x="301" y="629" on="0"/>
        <pt x="302" y="619" on="0"/>
        <pt x="303" y="617" on="1"/>
        <pt x="391" y="149" on="1"/>
        <pt x="721" y="629" on="1"/>
        <pt x="704" y="637" on="0"/>
        <pt x="669" y="639" on="0"/>
        <pt x="665" y="639" on="1"/>
        <pt x="658" y="639" on="0"/>
        <pt x="639" y="643" on="0"/>
        <pt x="639" y="657" on="1"/>
        <pt x="639" y="668" on="0"/>
        <pt x="645" y="680" on="0"/>
        <pt x="654" y="685" on="0"/>
        <pt x="663" y="686" on="0"/>
        <pt x="666" y="686" on="1"/>
        <pt x="692" y="686" on="0"/>
        <pt x="749" y="683" on="0"/>
        <pt x="776" y="683" on="1"/>
        <pt x="799" y="683" on="0"/>
        <pt x="845" y="686" on="0"/>
        <pt x="867" y="686" on="1"/>
        <pt x="877" y="686" on="0"/>
        <pt x="885" y="673" on="0"/>
        <pt x="885" y="668" on="1"/>
        <pt x="885" y="646" on="0"/>
        <pt x="864" y="639" on="0"/>
        <pt x="855" y="639" on="1"/>
        <pt x="829" y="639" on="0"/>
        <pt x="797" y="632" on="0"/>
        <pt x="777" y="622" on="0"/>
        <pt x="765" y="607" on="0"/>
        <pt x="759" y="599" on="1"/>
      </contour>
    </TTGlyph>
    <TTGlyph name="W" xMin="65" yMin="-17" xMax="1207" yMax="686">
      <contour>
        <pt x="717" y="9" on="1"/>
        <pt x="709" y="-5" on="0"/>
        <pt x="693" y="-17" on="0"/>
        <pt x="676" y="-17" on="1"/>
        <pt x="658" y="-17" on="0"/>
        <pt x="648" y="-4" on="0"/>
        <pt x="646" y="13" on="1"/>
        <pt x="587" y="468" on="1"/>
        <pt x="298" y="9" on="1"/>
        <pt x="289" y="-5" on="0"/>
        <pt x="272" y="-17" on="0"/>
        <pt x="256" y="-17" on="1"/>
        <pt x="238" y="-17" on="0"/>
        <pt x="229" y="-2" on="0"/>
        <pt x="227" y="13" on="1"/>
        <pt x="146" y="637" on="1"/>
        <pt x="136" y="638" on="0"/>
        <pt x="109" y="639" on="0"/>
        <pt x="98" y="639" on="1"/>
        <pt x="85" y="639" on="0"/>
        <pt x="65" y="643" on="0"/>
        <pt x="65" y="657" on="1"/>
        <pt x="65" y="668" on="0"/>
        <pt x="71" y="680" on="0"/>
        <pt x="80" y="685" on="0"/>
        <pt x="89" y="686" on="0"/>
        <pt x="92" y="686" on="1"/>
        <pt x="92" y="686" on="0"/>
        <pt x="106" y="685" on="0"/>
        <pt x="125" y="685" on="0"/>
        <pt x="148" y="684" on="0"/>
        <pt x="158" y="684" on="1"/>
        <pt x="174" y="684" on="0"/>
        <pt x="206" y="683" on="0"/>
        <pt x="222" y="683" on="1"/>
        <pt x="234" y="683" on="0"/>
        <pt x="274" y="684" on="0"/>
        <pt x="318" y="685" on="0"/>
        <pt x="358" y="686" on="0"/>
        <pt x="370" y="686" on="1"/>
        <pt x="386" y="686" on="0"/>
        <pt x="391" y="669" on="0"/>
        <pt x="391" y="668" on="1"/>
        <pt x="391" y="667" on="0"/>
        <pt x="388" y="649" on="0"/>
        <pt x="383" y="645" on="1"/>
        <pt x="379" y="641" on="0"/>
        <pt x="371" y="639" on="0"/>
        <pt x="354" y="639" on="1"/>
        <pt x="343" y="639" on="0"/>
        <pt x="303" y="637" on="0"/>
        <pt x="289" y="634" on="1"/>
        <pt x="349" y="171" on="1"/>
        <pt x="570" y="521" on="1"/>
        <pt x="576" y="529" on="0"/>
        <pt x="578" y="535" on="0"/>
        <pt x="578" y="537" on="1"/>
        <pt x="565" y="637" on="1"/>
        <pt x="555" y="638" on="0"/>
        <pt x="528" y="639" on="0"/>
        <pt x="517" y="639" on="1"/>
        <pt x="505" y="639" on="0"/>
        <pt x="484" y="643" on="0"/>
        <pt x="484" y="657" on="1"/>
        <pt x="484" y="668" on="0"/>
        <pt x="490" y="680" on="0"/>
        <pt x="499" y="685" on="0"/>
        <pt x="508" y="686" on="0"/>
        <pt x="511" y="686" on="1"/>
        <pt x="513" y="686" on="0"/>
        <pt x="556" y="684" on="0"/>
        <pt x="578" y="684" on="1"/>
        <pt x="594" y="684" on="0"/>
        <pt x="626" y="683" on="0"/>
        <pt x="642" y="683" on="1"/>
        <pt x="654" y="683" on="0"/>
        <pt x="694" y="684" on="0"/>
        <pt x="737" y="685" on="0"/>
        <pt x="777" y="686" on="0"/>
        <pt x="789" y="686" on="1"/>
        <pt x="805" y="686" on="0"/>
        <pt x="810" y="669" on="0"/>
        <pt x="810" y="668" on="1"/>
        <pt x="810" y="646" on="0"/>
        <pt x="789" y="639" on="0"/>
        <pt x="773" y="639" on="1"/>
        <pt x="762" y="639" on="0"/>
        <pt x="722" y="637" on="0"/>
        <pt x="708" y="634" on="1"/>
        <pt x="768" y="171" on="1"/>
        <pt x="1057" y="628" on="1"/>
        <pt x="1047" y="632" on="0"/>
        <pt x="1024" y="637" on="0"/>
        <pt x="1003" y="639" on="0"/>
        <pt x="989" y="639" on="0"/>
        <pt x="987" y="639" on="1"/>
        <pt x="982" y="639" on="0"/>
        <pt x="962" y="643" on="0"/>
        <pt x="962" y="657" on="1"/>
        <pt x="962" y="668" on="0"/>
        <pt x="968" y="680" on="0"/>
        <pt x="977" y="685" on="0"/>
        <pt x="986" y="686" on="0"/>
        <pt x="989" y="686" on="1"/>
        <pt x="1017" y="686" on="0"/>
        <pt x="1075" y="683" on="0"/>
        <pt x="1104" y="683" on="1"/>
        <pt x="1125" y="683" on="0"/>
        <pt x="1169" y="686" on="0"/>
        <pt x="1189" y="686" on="1"/>
        <pt x="1197" y="686" on="0"/>
        <pt x="1207" y="675" on="0"/>
        <pt x="1207" y="668" on="1"/>
        <pt x="1207" y="646" on="0"/>
        <pt x="1186" y="639" on="0"/>
        <pt x="1177" y="639" on="1"/>
        <pt x="1153" y="639" on="0"/>
        <pt x="1124" y="632" on="0"/>
        <pt x="1105" y="622" on="0"/>
        <pt x="1095" y="608" on="0"/>
        <pt x="1090" y="601" on="1"/>
      </contour>
    </TTGlyph>
    <TTGlyph name="X" xMin="39" yMin="0" xMax="953" yMax="686">
      <contour>
        <pt x="740" y="64" on="1"/>
        <pt x="745" y="54" on="0"/>
        <pt x="752" y="50" on="0"/>
        <pt x="763" y="48" on="1"/>
        <pt x="774" y="47" on="0"/>
        <pt x="791" y="47" on="0"/>
        <pt x="802" y="47" on="1"/>
        <pt x="820" y="47" on="0"/>
        <pt x="842" y="43" on="0"/>
        <pt x="842" y="29" on="1"/>
        <pt x="842" y="18" on="0"/>
        <pt x="836" y="6" on="0"/>
        <pt x="827" y="1" on="0"/>
        <pt x="817" y="0" on="0"/>
        <pt x="814" y="0" on="1"/>
        <pt x="797" y="0" on="0"/>
        <pt x="761" y="2" on="0"/>
        <pt x="744" y="2" on="1"/>
        <pt x="727" y="2" on="0"/>
        <pt x="692" y="3" on="0"/>
        <pt x="675" y="3" on="1"/>
        <pt x="662" y="3" on="0"/>
        <pt x="621" y="2" on="0"/>
        <pt x="576" y="1" on="0"/>
        <pt x="535" y="0" on="0"/>
        <pt x="522" y="0" on="1"/>
        <pt x="506" y="0" on="0"/>
        <pt x="500" y="16" on="0"/>
        <pt x="500" y="18" on="1"/>
        <pt x="500" y="29" on="0"/>
        <pt x="506" y="41" on="0"/>
        <pt x="515" y="46" on="0"/>
        <pt x="525" y="47" on="0"/>
        <pt x="529" y="47" on="1"/>
        <pt x="547" y="47" on="0"/>
        <pt x="586" y="53" on="0"/>
        <pt x="587" y="53" on="1"/>
        <pt x="474" y="289" on="1"/>
        <pt x="241" y="57" on="1"/>
        <pt x="268" y="47" on="0"/>
        <pt x="300" y="47" on="1"/>
        <pt x="306" y="47" on="0"/>
        <pt x="326" y="43" on="0"/>
        <pt x="326" y="29" on="1"/>
        <pt x="326" y="18" on="0"/>
        <pt x="320" y="6" on="0"/>
        <pt x="311" y="1" on="0"/>
        <pt x="301" y="0" on="0"/>
        <pt x="298" y="0" on="1"/>
        <pt x="287" y="0" on="0"/>
        <pt x="252" y="1" on="0"/>
        <pt x="214" y="2" on="0"/>
        <pt x="179" y="3" on="0"/>
        <pt x="168" y="3" on="1"/>
        <pt x="159" y="3" on="0"/>
        <pt x="129" y="2" on="0"/>
        <pt x="98" y="1" on="0"/>
        <pt x="68" y="0" on="0"/>
        <pt x="59" y="0" on="1"/>
        <pt x="48" y="0" on="0"/>
        <pt x="39" y="13" on="0"/>
        <pt x="39" y="18" on="1"/>
        <pt x="39" y="40" on="0"/>
        <pt x="60" y="47" on="0"/>
        <pt x="74" y="47" on="1"/>
        <pt x="107" y="47" on="0"/>
        <pt x="151" y="55" on="0"/>
        <pt x="179" y="66" on="0"/>
        <pt x="195" y="80" on="0"/>
        <pt x="202" y="86" on="1"/>
        <pt x="453" y="334" on="1"/>
        <pt x="315" y="623" on="1"/>
        <pt x="310" y="632" on="0"/>
        <pt x="305" y="636" on="0"/>
        <pt x="294" y="638" on="1"/>
        <pt x="283" y="639" on="0"/>
        <pt x="266" y="639" on="0"/>
        <pt x="255" y="639" on="1"/>
        <pt x="234" y="639" on="0"/>
        <pt x="214" y="644" on="0"/>
        <pt x="214" y="658" on="1"/>
        <pt x="214" y="679" on="0"/>
        <pt x="235" y="686" on="0"/>
        <pt x="242" y="686" on="1"/>
        <pt x="259" y="686" on="0"/>
        <pt x="295" y="684" on="0"/>
        <pt x="312" y="684" on="1"/>
        <pt x="329" y="684" on="0"/>
        <pt x="364" y="683" on="0"/>
        <pt x="381" y="683" on="1"/>
        <pt x="394" y="683" on="0"/>
        <pt x="435" y="684" on="0"/>
        <pt x="479" y="685" on="0"/>
        <pt x="520" y="686" on="0"/>
        <pt x="533" y="686" on="1"/>
        <pt x="555" y="686" on="0"/>
        <pt x="555" y="667" on="1"/>
        <pt x="555" y="646" on="0"/>
        <pt x="534" y="639" on="0"/>
        <pt x="526" y="639" on="1"/>
        <pt x="513" y="639" on="0"/>
        <pt x="476" y="635" on="0"/>
        <pt x="468" y="633" on="1"/>
        <pt x="560" y="440" on="1"/>
        <pt x="751" y="629" on="1"/>
        <pt x="748" y="630" on="0"/>
        <pt x="714" y="638" on="0"/>
        <pt x="691" y="639" on="1"/>
        <pt x="684" y="639" on="0"/>
        <pt x="666" y="644" on="0"/>
        <pt x="666" y="658" on="1"/>
        <pt x="666" y="679" on="0"/>
        <pt x="688" y="686" on="0"/>
        <pt x="694" y="686" on="1"/>
        <pt x="705" y="686" on="0"/>
        <pt x="740" y="685" on="0"/>
        <pt x="778" y="684" on="0"/>
        <pt x="813" y="683" on="0"/>
        <pt x="824" y="683" on="1"/>
        <pt x="851" y="683" on="0"/>
        <pt x="907" y="686" on="0"/>
        <pt x="933" y="686" on="1"/>
        <pt x="945" y="686" on="0"/>
        <pt x="953" y="673" on="0"/>
        <pt x="953" y="668" on="1"/>
        <pt x="953" y="667" on="0"/>
        <pt x="952" y="658" on="0"/>
        <pt x="947" y="647" on="0"/>
        <pt x="939" y="639" on="0"/>
        <pt x="932" y="639" on="1"/>
        <pt x="893" y="639" on="0"/>
        <pt x="846" y="633" on="0"/>
        <pt x="814" y="621" on="0"/>
        <pt x="791" y="602" on="0"/>
        <pt x="776" y="588" on="1"/>
        <pt x="714" y="525" on="1"/>
        <pt x="582" y="395" on="1"/>
      </contour>
    </TTGlyph>
    <TTGlyph name="Xi" xMin="62" yMin="0" xMax="867" yMax="675">
      <contour>
        <pt x="838" y="506" on="1"/>
        <pt x="835" y="492" on="0"/>
        <pt x="828" y="479" on="0"/>
        <pt x="813" y="479" on="1"/>
        <pt x="810" y="479" on="0"/>
        <pt x="789" y="484" on="0"/>
        <pt x="789" y="497" on="1"/>
        <pt x="789" y="498" on="0"/>
        <pt x="789" y="502" on="0"/>
        <pt x="791" y="510" on="1"/>
        <pt x="796" y="530" on="0"/>
        <pt x="797" y="554" on="0"/>
        <pt x="797" y="562" on="1"/>
        <pt x="783" y="564" on="0"/>
        <pt x="739" y="565" on="0"/>
        <pt x="725" y="565" on="1"/>
        <pt x="333" y="565" on="1"/>
        <pt x="328" y="565" on="0"/>
        <pt x="305" y="565" on="0"/>
        <pt x="279" y="563" on="0"/>
        <pt x="257" y="562" on="0"/>
        <pt x="254" y="560" on="1"/>
        <pt x="251" y="559" on="0"/>
        <pt x="242" y="543" on="0"/>
        <pt x="235" y="523" on="0"/>
        <pt x="229" y="505" on="0"/>
        <pt x="228" y="502" on="1"/>
        <pt x="223" y="490" on="0"/>
        <pt x="216" y="479" on="0"/>
        <pt x="202" y="479" on="1"/>
        <pt x="199" y="479" on="0"/>
        <pt x="178" y="484" on="0"/>
        <pt x="178" y="497" on="1"/>
        <pt x="178" y="501" on="0"/>
        <pt x="181" y="510" on="0"/>
        <pt x="182" y="513" on="1"/>
        <pt x="226" y="654" on="1"/>
        <pt x="231" y="670" on="0"/>
        <pt x="242" y="675" on="0"/>
        <pt x="261" y="675" on="1"/>
        <pt x="833" y="675" on="1"/>
        <pt x="847" y="675" on="0"/>
        <pt x="867" y="670" on="0"/>
        <pt x="867" y="656" on="1"/>
      </contour>
      <contour>
        <pt x="603" y="110" on="1"/>
        <pt x="608" y="110" on="0"/>
        <pt x="633" y="110" on="0"/>
        <pt x="661" y="111" on="0"/>
        <pt x="685" y="114" on="0"/>
        <pt x="688" y="116" on="1"/>
        <pt x="692" y="120" on="0"/>
        <pt x="700" y="137" on="0"/>
        <pt x="707" y="157" on="0"/>
        <pt x="714" y="177" on="0"/>
        <pt x="716" y="184" on="1"/>
        <pt x="720" y="197" on="0"/>
        <pt x="728" y="207" on="0"/>
        <pt x="742" y="207" on="1"/>
        <pt x="747" y="207" on="0"/>
        <pt x="765" y="202" on="0"/>
        <pt x="765" y="189" on="1"/>
        <pt x="765" y="186" on="0"/>
        <pt x="750" y="136" on="0"/>
        <pt x="732" y="74" on="0"/>
        <pt x="715" y="20" on="0"/>
        <pt x="713" y="13" on="1"/>
        <pt x="709" y="3" on="0"/>
        <pt x="695" y="0" on="0"/>
        <pt x="680" y="0" on="1"/>
        <pt x="96" y="0" on="1"/>
        <pt x="82" y="0" on="0"/>
        <pt x="62" y="5" on="0"/>
        <pt x="62" y="19" on="1"/>
        <pt x="62" y="24" on="0"/>
        <pt x="71" y="70" on="0"/>
        <pt x="82" y="125" on="0"/>
        <pt x="92" y="175" on="0"/>
        <pt x="94" y="184" on="1"/>
        <pt x="96" y="197" on="0"/>
        <pt x="105" y="207" on="0"/>
        <pt x="119" y="207" on="1"/>
        <pt x="124" y="207" on="0"/>
        <pt x="142" y="202" on="0"/>
        <pt x="142" y="189" on="1"/>
        <pt x="142" y="185" on="0"/>
        <pt x="140" y="173" on="0"/>
        <pt x="139" y="168" on="1"/>
        <pt x="137" y="157" on="0"/>
        <pt x="133" y="137" on="0"/>
        <pt x="133" y="126" on="1"/>
        <pt x="133" y="118" on="0"/>
        <pt x="136" y="114" on="0"/>
        <pt x="143" y="113" on="1"/>
        <pt x="151" y="112" on="0"/>
        <pt x="162" y="111" on="0"/>
        <pt x="175" y="110" on="0"/>
        <pt x="193" y="110" on="0"/>
        <pt x="209" y="110" on="1"/>
      </contour>
      <contour>
        <pt x="267" y="429" on="1"/>
        <pt x="271" y="443" on="0"/>
        <pt x="279" y="455" on="0"/>
        <pt x="293" y="455" on="1"/>
        <pt x="303" y="455" on="0"/>
        <pt x="316" y="446" on="0"/>
        <pt x="316" y="436" on="1"/>
        <pt x="316" y="432" on="0"/>
        <pt x="311" y="411" on="0"/>
        <pt x="309" y="406" on="1"/>
        <pt x="660" y="406" on="1"/>
        <pt x="662" y="412" on="0"/>
        <pt x="667" y="435" on="0"/>
        <pt x="668" y="440" on="1"/>
        <pt x="672" y="451" on="0"/>
        <pt x="687" y="455" on="0"/>
        <pt x="692" y="455" on="1"/>
        <pt x="702" y="455" on="0"/>
        <pt x="715" y="446" on="0"/>
        <pt x="715" y="436" on="1"/>
        <pt x="715" y="432" on="0"/>
        <pt x="704" y="384" on="0"/>
        <pt x="690" y="328" on="0"/>
        <pt x="676" y="277" on="0"/>
        <pt x="674" y="268" on="1"/>
        <pt x="672" y="260" on="0"/>
        <pt x="663" y="247" on="0"/>
        <pt x="649" y="247" on="1"/>
        <pt x="633" y="247" on="0"/>
        <pt x="626" y="261" on="0"/>
        <pt x="626" y="266" on="1"/>
        <pt x="626" y="268" on="0"/>
        <pt x="627" y="277" on="0"/>
        <pt x="632" y="296" on="1"/>
        <pt x="281" y="296" on="1"/>
        <pt x="276" y="276" on="0"/>
        <pt x="275" y="267" on="0"/>
        <pt x="273" y="263" on="1"/>
        <pt x="271" y="257" on="0"/>
        <pt x="263" y="247" on="0"/>
        <pt x="250" y="247" on="1"/>
        <pt x="234" y="247" on="0"/>
        <pt x="227" y="261" on="0"/>
        <pt x="227" y="266" on="1"/>
        <pt x="227" y="274" on="0"/>
        <pt x="229" y="280" on="1"/>
      </contour>
    </TTGlyph>
    <TTGlyph name="Y" xMin="44" yMin="0" xMax="875" yMax="686">
      <contour>
        <pt x="429" y="274" on="1"/>
        <pt x="373" y="49" on="1"/>
        <pt x="389" y="48" on="0"/>
        <pt x="418" y="47" on="0"/>
        <pt x="434" y="47" on="1"/>
        <pt x="455" y="47" on="0"/>
        <pt x="476" y="43" on="0"/>
        <pt x="476" y="29" on="1"/>
        <pt x="476" y="18" on="0"/>
        <pt x="469" y="6" on="0"/>
        <pt x="460" y="1" on="0"/>
        <pt x="450" y="0" on="0"/>
        <pt x="447" y="0" on="1"/>
        <pt x="434" y="0" on="0"/>
        <pt x="393" y="1" on="0"/>
        <pt x="348" y="2" on="0"/>
        <pt x="307" y="3" on="0"/>
        <pt x="294" y="3" on="1"/>
        <pt x="276" y="3" on="0"/>
        <pt x="239" y="2" on="0"/>
        <pt x="221" y="2" on="1"/>
        <pt x="202" y="2" on="0"/>
        <pt x="164" y="0" on="0"/>
        <pt x="145" y="0" on="1"/>
        <pt x="129" y="0" on="0"/>
        <pt x="123" y="16" on="0"/>
        <pt x="123" y="18" on="1"/>
        <pt x="123" y="23" on="0"/>
        <pt x="128" y="39" on="0"/>
        <pt x="133" y="43" on="1"/>
        <pt x="136" y="46" on="0"/>
        <pt x="146" y="47" on="0"/>
        <pt x="169" y="47" on="1"/>
        <pt x="183" y="47" on="0"/>
        <pt x="208" y="47" on="0"/>
        <pt x="221" y="49" on="1"/>
        <pt x="235" y="50" on="0"/>
        <pt x="241" y="55" on="0"/>
        <pt x="244" y="68" on="1"/>
        <pt x="296" y="274" on="1"/>
        <pt x="144" y="623" on="1"/>
        <pt x="139" y="633" on="0"/>
        <pt x="133" y="636" on="0"/>
        <pt x="124" y="638" on="1"/>
        <pt x="113" y="639" on="0"/>
        <pt x="95" y="639" on="0"/>
        <pt x="85" y="639" on="1"/>
        <pt x="65" y="639" on="0"/>
        <pt x="44" y="643" on="0"/>
        <pt x="44" y="657" on="1"/>
        <pt x="44" y="668" on="0"/>
        <pt x="50" y="680" on="0"/>
        <pt x="59" y="685" on="0"/>
        <pt x="68" y="686" on="0"/>
        <pt x="72" y="686" on="1"/>
        <pt x="89" y="686" on="0"/>
        <pt x="126" y="684" on="0"/>
        <pt x="144" y="684" on="1"/>
        <pt x="161" y="684" on="0"/>
        <pt x="196" y="683" on="0"/>
        <pt x="213" y="683" on="1"/>
        <pt x="226" y="683" on="0"/>
        <pt x="268" y="684" on="0"/>
        <pt x="313" y="685" on="0"/>
        <pt x="355" y="686" on="0"/>
        <pt x="368" y="686" on="1"/>
        <pt x="376" y="686" on="0"/>
        <pt x="390" y="678" on="0"/>
        <pt x="390" y="668" on="1"/>
        <pt x="390" y="647" on="0"/>
        <pt x="369" y="639" on="0"/>
        <pt x="356" y="639" on="1"/>
        <pt x="346" y="639" on="0"/>
        <pt x="334" y="639" on="0"/>
        <pt x="323" y="638" on="0"/>
        <pt x="311" y="637" on="0"/>
        <pt x="300" y="635" on="1"/>
        <pt x="428" y="342" on="1"/>
        <pt x="699" y="632" on="1"/>
        <pt x="688" y="636" on="0"/>
        <pt x="662" y="639" on="0"/>
        <pt x="654" y="639" on="1"/>
        <pt x="646" y="639" on="0"/>
        <pt x="627" y="643" on="0"/>
        <pt x="627" y="657" on="1"/>
        <pt x="627" y="668" on="0"/>
        <pt x="633" y="680" on="0"/>
        <pt x="642" y="685" on="0"/>
        <pt x="651" y="686" on="0"/>
        <pt x="654" y="686" on="1"/>
        <pt x="681" y="686" on="0"/>
        <pt x="737" y="683" on="0"/>
        <pt x="765" y="683" on="1"/>
        <pt x="788" y="683" on="0"/>
        <pt x="835" y="686" on="0"/>
        <pt x="857" y="686" on="1"/>
        <pt x="867" y="686" on="0"/>
        <pt x="875" y="673" on="0"/>
        <pt x="875" y="668" on="1"/>
        <pt x="875" y="646" on="0"/>
        <pt x="854" y="639" on="0"/>
        <pt x="846" y="639" on="1"/>
        <pt x="821" y="639" on="0"/>
        <pt x="786" y="633" on="0"/>
        <pt x="760" y="623" on="0"/>
        <pt x="742" y="609" on="0"/>
        <pt x="734" y="600" on="1"/>
      </contour>
    </TTGlyph>
    <TTGlyph name="Z" xMin="68" yMin="0" xMax="805" yMax="686">
      <contour>
        <pt x="241" y="51" on="1"/>
        <pt x="385" y="51" on="1"/>
        <pt x="456" y="51" on="0"/>
        <pt x="549" y="84" on="0"/>
        <pt x="611" y="143" on="0"/>
        <pt x="649" y="223" on="0"/>
        <pt x="665" y="271" on="1"/>
        <pt x="669" y="281" on="0"/>
        <pt x="683" y="284" on="0"/>
        <pt x="688" y="284" on="1"/>
        <pt x="696" y="284" on="0"/>
        <pt x="711" y="277" on="0"/>
        <pt x="711" y="266" on="1"/>
        <pt x="711" y="265" on="0"/>
        <pt x="710" y="260" on="0"/>
        <pt x="708" y="252" on="1"/>
        <pt x="634" y="23" on="1"/>
        <pt x="631" y="14" on="0"/>
        <pt x="627" y="5" on="0"/>
        <pt x="619" y="1" on="0"/>
        <pt x="608" y="0" on="0"/>
        <pt x="598" y="0" on="1"/>
        <pt x="98" y="0" on="1"/>
        <pt x="83" y="0" on="0"/>
        <pt x="68" y="3" on="0"/>
        <pt x="68" y="14" on="1"/>
        <pt x="68" y="28" on="0"/>
        <pt x="80" y="46" on="0"/>
        <pt x="86" y="52" on="1"/>
        <pt x="635" y="639" on="1"/>
        <pt x="501" y="639" on="1"/>
        <pt x="449" y="639" on="0"/>
        <pt x="368" y="619" on="0"/>
        <pt x="306" y="577" on="0"/>
        <pt x="260" y="510" on="0"/>
        <pt x="243" y="462" on="1"/>
        <pt x="239" y="451" on="0"/>
        <pt x="230" y="445" on="0"/>
        <pt x="219" y="445" on="1"/>
        <pt x="214" y="445" on="0"/>
        <pt x="196" y="450" on="0"/>
        <pt x="196" y="463" on="1"/>
        <pt x="196" y="465" on="0"/>
        <pt x="197" y="472" on="0"/>
        <pt x="201" y="483" on="1"/>
        <pt x="256" y="662" on="1"/>
        <pt x="261" y="680" on="0"/>
        <pt x="274" y="686" on="0"/>
        <pt x="293" y="686" on="1"/>
        <pt x="776" y="686" on="1"/>
        <pt x="790" y="686" on="0"/>
        <pt x="805" y="683" on="0"/>
        <pt x="805" y="672" on="1"/>
        <pt x="805" y="661" on="0"/>
        <pt x="796" y="645" on="0"/>
        <pt x="790" y="638" on="1"/>
      </contour>
    </TTGlyph>
    <TTGlyph name="a" xMin="45" yMin="-8" xMax="599" yMax="452">
      <contour>
        <pt x="492" y="228" on="1"/>
        <pt x="488" y="211" on="0"/>
        <pt x="475" y="159" on="0"/>
        <pt x="470" y="138" on="1"/>
        <pt x="462" y="108" on="0"/>
        <pt x="456" y="78" on="0"/>
        <pt x="456" y="65" on="1"/>
        <pt x="456" y="40" on="0"/>
        <pt x="471" y="28" on="0"/>
        <pt x="479" y="28" on="1"/>
        <pt x="498" y="28" on="0"/>
        <pt x="532" y="68" on="0"/>
        <pt x="547" y="128" on="1"/>
        <pt x="552" y="147" on="0"/>
        <pt x="553" y="155" on="0"/>
        <pt x="555" y="157" on="1"/>
        <pt x="559" y="161" on="0"/>
        <pt x="567" y="162" on="0"/>
        <pt x="575" y="162" on="1"/>
        <pt x="582" y="162" on="0"/>
        <pt x="599" y="159" on="0"/>
        <pt x="599" y="148" on="1"/>
        <pt x="599" y="146" on="0"/>
        <pt x="594" y="126" on="0"/>
        <pt x="585" y="97" on="0"/>
        <pt x="570" y="64" on="0"/>
        <pt x="561" y="49" on="1"/>
        <pt x="545" y="22" on="0"/>
        <pt x="502" y="-8" on="0"/>
        <pt x="474" y="-8" on="1"/>
        <pt x="470" y="-8" on="0"/>
        <pt x="444" y="-6" on="0"/>
        <pt x="410" y="4" on="0"/>
        <pt x="373" y="26" on="0"/>
        <pt x="359" y="46" on="1"/>
        <pt x="353" y="40" on="0"/>
        <pt x="328" y="22" on="0"/>
        <pt x="292" y="5" on="0"/>
        <pt x="247" y="-8" on="0"/>
        <pt x="220" y="-8" on="1"/>
        <pt x="189" y="-8" on="0"/>
        <pt x="126" y="9" on="0"/>
        <pt x="76" y="48" on="0"/>
        <pt x="45" y="111" on="0"/>
        <pt x="45" y="157" on="1"/>
        <pt x="45" y="208" on="0"/>
        <pt x="84" y="313" on="0"/>
        <pt x="157" y="398" on="0"/>
        <pt x="262" y="452" on="0"/>
        <pt x="327" y="452" on="1"/>
        <pt x="371" y="452" on="0"/>
        <pt x="422" y="422" on="0"/>
        <pt x="433" y="410" on="1"/>
        <pt x="442" y="421" on="0"/>
        <pt x="470" y="435" on="0"/>
        <pt x="484" y="435" on="1"/>
        <pt x="500" y="435" on="0"/>
        <pt x="531" y="415" on="0"/>
        <pt x="531" y="391" on="1"/>
        <pt x="531" y="388" on="0"/>
        <pt x="528" y="371" on="0"/>
        <pt x="523" y="349" on="0"/>
        <pt x="517" y="326" on="0"/>
        <pt x="515" y="317" on="1"/>
      </contour>
      <contour>
        <pt x="410" y="344" on="1"/>
        <pt x="412" y="358" on="1"/>
        <pt x="412" y="362" on="0"/>
        <pt x="403" y="381" on="0"/>
        <pt x="383" y="401" on="0"/>
        <pt x="351" y="416" on="0"/>
        <pt x="329" y="416" on="1"/>
        <pt x="298" y="416" on="0"/>
        <pt x="231" y="373" on="0"/>
        <pt x="208" y="318" on="1"/>
        <pt x="202" y="303" on="0"/>
        <pt x="185" y="247" on="0"/>
        <pt x="169" y="184" on="0"/>
        <pt x="158" y="124" on="0"/>
        <pt x="158" y="104" on="1"/>
        <pt x="158" y="96" on="0"/>
        <pt x="162" y="70" on="0"/>
        <pt x="175" y="46" on="0"/>
        <pt x="202" y="28" on="0"/>
        <pt x="225" y="28" on="1"/>
        <pt x="261" y="28" on="0"/>
        <pt x="327" y="67" on="0"/>
        <pt x="349" y="93" on="1"/>
      </contour>
    </TTGlyph>
    <TTGlyph name="alpha" xMin="46" yMin="-8" xMax="704" yMax="452">
      <contour>
        <pt x="584" y="164" on="1"/>
        <pt x="584" y="157" on="0"/>
        <pt x="585" y="112" on="0"/>
        <pt x="591" y="65" on="0"/>
        <pt x="602" y="28" on="0"/>
        <pt x="611" y="28" on="1"/>
        <pt x="612" y="28" on="0"/>
        <pt x="623" y="30" on="0"/>
        <pt x="638" y="36" on="0"/>
        <pt x="654" y="49" on="0"/>
        <pt x="658" y="60" on="1"/>
        <pt x="662" y="70" on="0"/>
        <pt x="671" y="73" on="0"/>
        <pt x="681" y="73" on="1"/>
        <pt x="688" y="73" on="0"/>
        <pt x="704" y="70" on="0"/>
        <pt x="704" y="59" on="1"/>
        <pt x="704" y="51" on="0"/>
        <pt x="691" y="28" on="0"/>
        <pt x="666" y="7" on="0"/>
        <pt x="629" y="-8" on="0"/>
        <pt x="604" y="-8" on="1"/>
        <pt x="558" y="-8" on="0"/>
        <pt x="498" y="39" on="0"/>
        <pt x="484" y="71" on="1"/>
        <pt x="464" y="57" on="0"/>
        <pt x="414" y="29" on="0"/>
        <pt x="355" y="6" on="0"/>
        <pt x="289" y="-8" on="0"/>
        <pt x="253" y="-8" on="1"/>
        <pt x="159" y="-8" on="0"/>
        <pt x="46" y="82" on="0"/>
        <pt x="46" y="165" on="1"/>
        <pt x="46" y="213" on="0"/>
        <pt x="87" y="315" on="0"/>
        <pt x="166" y="399" on="0"/>
        <pt x="284" y="452" on="0"/>
        <pt x="360" y="452" on="1"/>
        <pt x="378" y="452" on="0"/>
        <pt x="419" y="447" on="0"/>
        <pt x="462" y="434" on="0"/>
        <pt x="505" y="409" on="0"/>
        <pt x="524" y="389" on="1"/>
        <pt x="544" y="369" on="0"/>
        <pt x="567" y="327" on="0"/>
        <pt x="577" y="286" on="0"/>
        <pt x="580" y="246" on="0"/>
        <pt x="580" y="228" on="1"/>
        <pt x="597" y="251" on="0"/>
        <pt x="637" y="330" on="0"/>
        <pt x="651" y="381" on="1"/>
        <pt x="655" y="395" on="0"/>
        <pt x="662" y="402" on="0"/>
        <pt x="676" y="402" on="1"/>
        <pt x="683" y="402" on="0"/>
        <pt x="700" y="399" on="0"/>
        <pt x="700" y="388" on="1"/>
        <pt x="700" y="387" on="0"/>
        <pt x="690" y="347" on="0"/>
        <pt x="664" y="284" on="0"/>
        <pt x="619" y="205" on="0"/>
      </contour>
      <contour>
        <pt x="258" y="28" on="1"/>
        <pt x="276" y="28" on="0"/>
        <pt x="341" y="37" on="0"/>
        <pt x="386" y="57" on="1"/>
        <pt x="395" y="61" on="0"/>
        <pt x="425" y="77" on="0"/>
        <pt x="452" y="94" on="0"/>
        <pt x="472" y="111" on="0"/>
        <pt x="472" y="115" on="1"/>
        <pt x="472" y="133" on="0"/>
        <pt x="468" y="189" on="0"/>
        <pt x="467" y="208" on="1"/>
        <pt x="466" y="245" on="0"/>
        <pt x="458" y="319" on="0"/>
        <pt x="435" y="379" on="0"/>
        <pt x="394" y="416" on="0"/>
        <pt x="359" y="416" on="1"/>
        <pt x="340" y="416" on="0"/>
        <pt x="299" y="405" on="0"/>
        <pt x="260" y="382" on="0"/>
        <pt x="226" y="347" on="0"/>
        <pt x="214" y="323" on="1"/>
        <pt x="203" y="301" on="0"/>
        <pt x="183" y="242" on="0"/>
        <pt x="169" y="183" on="0"/>
        <pt x="161" y="133" on="0"/>
        <pt x="161" y="121" on="1"/>
        <pt x="161" y="71" on="0"/>
        <pt x="216" y="28" on="0"/>
      </contour>
    </TTGlyph>
    <TTGlyph name="b" xMin="52" yMin="-8" xMax="506" yMax="694">
      <contour>
        <pt x="222" y="420" on="1"/>
        <pt x="238" y="430" on="0"/>
        <pt x="295" y="452" on="0"/>
        <pt x="331" y="452" on="1"/>
        <pt x="362" y="452" on="0"/>
        <pt x="425" y="435" on="0"/>
        <pt x="475" y="396" on="0"/>
        <pt x="506" y="333" on="0"/>
        <pt x="506" y="287" on="1"/>
        <pt x="506" y="238" on="0"/>
        <pt x="468" y="133" on="0"/>
        <pt x="396" y="47" on="0"/>
        <pt x="290" y="-8" on="0"/>
        <pt x="222" y="-8" on="1"/>
        <pt x="194" y="-8" on="0"/>
        <pt x="134" y="7" on="0"/>
        <pt x="84" y="44" on="0"/>
        <pt x="52" y="107" on="0"/>
        <pt x="52" y="155" on="1"/>
        <pt x="52" y="164" on="0"/>
        <pt x="52" y="178" on="0"/>
        <pt x="55" y="198" on="0"/>
        <pt x="61" y="225" on="0"/>
        <pt x="66" y="246" on="1"/>
        <pt x="135" y="522" on="1"/>
        <pt x="143" y="551" on="0"/>
        <pt x="157" y="611" on="0"/>
        <pt x="163" y="637" on="1"/>
        <pt x="153" y="639" on="0"/>
        <pt x="129" y="639" on="0"/>
        <pt x="121" y="639" on="1"/>
        <pt x="116" y="639" on="0"/>
        <pt x="95" y="643" on="0"/>
        <pt x="95" y="657" on="1"/>
        <pt x="95" y="678" on="0"/>
        <pt x="116" y="686" on="0"/>
        <pt x="127" y="687" on="1"/>
        <pt x="256" y="693" on="1"/>
        <pt x="258" y="694" on="0"/>
        <pt x="263" y="694" on="1"/>
        <pt x="271" y="694" on="0"/>
        <pt x="285" y="686" on="0"/>
        <pt x="285" y="676" on="1"/>
        <pt x="285" y="675" on="0"/>
        <pt x="284" y="670" on="0"/>
        <pt x="281" y="659" on="1"/>
      </contour>
      <contour>
        <pt x="224" y="28" on="1"/>
        <pt x="235" y="28" on="0"/>
        <pt x="265" y="36" on="0"/>
        <pt x="298" y="57" on="0"/>
        <pt x="330" y="96" on="0"/>
        <pt x="343" y="126" on="1"/>
        <pt x="349" y="141" on="0"/>
        <pt x="366" y="197" on="0"/>
        <pt x="382" y="260" on="0"/>
        <pt x="393" y="321" on="0"/>
        <pt x="393" y="340" on="1"/>
        <pt x="393" y="348" on="0"/>
        <pt x="390" y="374" on="0"/>
        <pt x="376" y="398" on="0"/>
        <pt x="349" y="416" on="0"/>
        <pt x="326" y="416" on="1"/>
        <pt x="303" y="416" on="0"/>
        <pt x="260" y="400" on="0"/>
        <pt x="227" y="377" on="0"/>
        <pt x="205" y="354" on="0"/>
        <pt x="203" y="348" on="1"/>
        <pt x="200" y="337" on="0"/>
        <pt x="192" y="302" on="0"/>
        <pt x="182" y="263" on="0"/>
        <pt x="173" y="225" on="0"/>
        <pt x="169" y="211" on="1"/>
        <pt x="164" y="188" on="0"/>
        <pt x="152" y="135" on="0"/>
        <pt x="152" y="111" on="1"/>
        <pt x="152" y="64" on="0"/>
        <pt x="195" y="28" on="0"/>
      </contour>
    </TTGlyph>
    <TTGlyph name="beta" xMin="16" yMin="-194" xMax="655" yMax="702">
      <contour>
        <pt x="172" y="446" on="1"/>
        <pt x="186" y="500" on="0"/>
        <pt x="251" y="594" on="0"/>
        <pt x="340" y="663" on="0"/>
        <pt x="445" y="702" on="0"/>
        <pt x="499" y="702" on="1"/>
        <pt x="570" y="702" on="0"/>
        <pt x="655" y="633" on="0"/>
        <pt x="655" y="569" on="1"/>
        <pt x="655" y="543" on="0"/>
        <pt x="641" y="494" on="0"/>
        <pt x="619" y="451" on="0"/>
        <pt x="592" y="416" on="0"/>
        <pt x="578" y="405" on="1"/>
        <pt x="603" y="386" on="0"/>
        <pt x="642" y="325" on="0"/>
        <pt x="642" y="272" on="1"/>
        <pt x="642" y="223" on="0"/>
        <pt x="601" y="122" on="0"/>
        <pt x="521" y="40" on="0"/>
        <pt x="404" y="-12" on="0"/>
        <pt x="329" y="-12" on="1"/>
        <pt x="269" y="-12" on="0"/>
        <pt x="162" y="34" on="0"/>
        <pt x="130" y="87" on="1"/>
        <pt x="130" y="87" on="0"/>
        <pt x="120" y="50" on="0"/>
        <pt x="107" y="-5" on="0"/>
        <pt x="91" y="-69" on="0"/>
        <pt x="77" y="-126" on="0"/>
        <pt x="67" y="-167" on="0"/>
        <pt x="66" y="-171" on="1"/>
        <pt x="61" y="-187" on="0"/>
        <pt x="55" y="-194" on="0"/>
        <pt x="40" y="-194" on="1"/>
        <pt x="33" y="-194" on="0"/>
        <pt x="16" y="-191" on="0"/>
        <pt x="16" y="-180" on="1"/>
        <pt x="16" y="-179" on="0"/>
        <pt x="19" y="-166" on="0"/>
        <pt x="20" y="-164" on="1"/>
      </contour>
      <contour>
        <pt x="473" y="401" on="1"/>
        <pt x="459" y="406" on="0"/>
        <pt x="438" y="408" on="0"/>
        <pt x="424" y="408" on="1"/>
        <pt x="419" y="408" on="0"/>
        <pt x="399" y="408" on="0"/>
        <pt x="378" y="405" on="0"/>
        <pt x="362" y="398" on="0"/>
        <pt x="362" y="392" on="1"/>
        <pt x="362" y="389" on="0"/>
        <pt x="376" y="386" on="0"/>
        <pt x="393" y="384" on="0"/>
        <pt x="409" y="384" on="0"/>
        <pt x="410" y="384" on="1"/>
        <pt x="421" y="384" on="0"/>
        <pt x="455" y="388" on="0"/>
      </contour>
      <contour>
        <pt x="507" y="436" on="1"/>
        <pt x="515" y="451" on="0"/>
        <pt x="532" y="500" on="0"/>
        <pt x="545" y="551" on="0"/>
        <pt x="553" y="597" on="0"/>
        <pt x="553" y="609" on="1"/>
        <pt x="553" y="638" on="0"/>
        <pt x="522" y="666" on="0"/>
        <pt x="494" y="666" on="1"/>
        <pt x="449" y="666" on="0"/>
        <pt x="362" y="631" on="0"/>
        <pt x="289" y="572" on="0"/>
        <pt x="234" y="496" on="0"/>
        <pt x="222" y="455" on="1"/>
        <pt x="218" y="439" on="0"/>
        <pt x="202" y="378" on="0"/>
        <pt x="185" y="309" on="0"/>
        <pt x="169" y="243" on="0"/>
        <pt x="163" y="221" on="1"/>
        <pt x="161" y="213" on="0"/>
        <pt x="156" y="185" on="0"/>
        <pt x="156" y="170" on="1"/>
        <pt x="156" y="136" on="0"/>
        <pt x="183" y="82" on="0"/>
        <pt x="230" y="44" on="0"/>
        <pt x="292" y="24" on="0"/>
        <pt x="327" y="24" on="1"/>
        <pt x="375" y="24" on="0"/>
        <pt x="447" y="69" on="0"/>
        <pt x="470" y="106" on="1"/>
        <pt x="482" y="126" on="0"/>
        <pt x="502" y="186" on="0"/>
        <pt x="518" y="247" on="0"/>
        <pt x="527" y="302" on="0"/>
        <pt x="527" y="315" on="1"/>
        <pt x="527" y="328" on="0"/>
        <pt x="522" y="356" on="0"/>
        <pt x="516" y="367" on="1"/>
        <pt x="482" y="353" on="0"/>
        <pt x="422" y="348" on="0"/>
        <pt x="409" y="348" on="1"/>
        <pt x="396" y="348" on="0"/>
        <pt x="363" y="349" on="0"/>
        <pt x="334" y="357" on="0"/>
        <pt x="314" y="374" on="0"/>
        <pt x="314" y="390" on="1"/>
        <pt x="314" y="410" on="0"/>
        <pt x="340" y="432" on="0"/>
        <pt x="377" y="442" on="0"/>
        <pt x="415" y="444" on="0"/>
        <pt x="427" y="444" on="1"/>
        <pt x="441" y="444" on="0"/>
        <pt x="482" y="442" on="0"/>
      </contour>
    </TTGlyph>
    <TTGlyph name="c" xMin="46" yMin="-8" xMax="511" yMax="452">
      <contour>
        <pt x="431" y="396" on="1"/>
        <pt x="411" y="410" on="0"/>
        <pt x="370" y="416" on="0"/>
        <pt x="360" y="416" on="1"/>
        <pt x="344" y="416" on="0"/>
        <pt x="307" y="408" on="0"/>
        <pt x="269" y="389" on="0"/>
        <pt x="232" y="356" on="0"/>
        <pt x="217" y="330" on="1"/>
        <pt x="206" y="311" on="0"/>
        <pt x="185" y="250" on="0"/>
        <pt x="170" y="188" on="0"/>
        <pt x="161" y="134" on="0"/>
        <pt x="161" y="121" on="1"/>
        <pt x="161" y="76" on="0"/>
        <pt x="210" y="28" on="0"/>
        <pt x="260" y="28" on="1"/>
        <pt x="319" y="28" on="0"/>
        <pt x="430" y="64" on="0"/>
        <pt x="471" y="107" on="1"/>
        <pt x="476" y="113" on="0"/>
        <pt x="481" y="118" on="0"/>
        <pt x="486" y="118" on="1"/>
        <pt x="493" y="118" on="0"/>
        <pt x="511" y="98" on="0"/>
        <pt x="511" y="92" on="1"/>
        <pt x="511" y="88" on="0"/>
        <pt x="497" y="69" on="0"/>
        <pt x="471" y="47" on="0"/>
        <pt x="435" y="25" on="0"/>
        <pt x="413" y="16" on="1"/>
        <pt x="391" y="7" on="0"/>
        <pt x="344" y="-2" on="0"/>
        <pt x="302" y="-7" on="0"/>
        <pt x="268" y="-8" on="0"/>
        <pt x="258" y="-8" on="1"/>
        <pt x="200" y="-8" on="0"/>
        <pt x="119" y="21" on="0"/>
        <pt x="68" y="69" on="0"/>
        <pt x="46" y="131" on="0"/>
        <pt x="46" y="165" on="1"/>
        <pt x="46" y="214" on="0"/>
        <pt x="87" y="316" on="0"/>
        <pt x="167" y="399" on="0"/>
        <pt x="284" y="452" on="0"/>
        <pt x="359" y="452" on="1"/>
        <pt x="425" y="452" on="0"/>
        <pt x="499" y="399" on="0"/>
        <pt x="499" y="359" on="1"/>
        <pt x="499" y="328" on="0"/>
        <pt x="459" y="282" on="0"/>
        <pt x="427" y="282" on="1"/>
        <pt x="412" y="282" on="0"/>
        <pt x="392" y="292" on="0"/>
        <pt x="381" y="307" on="0"/>
        <pt x="377" y="322" on="0"/>
        <pt x="377" y="328" on="1"/>
        <pt x="377" y="329" on="0"/>
        <pt x="379" y="346" on="0"/>
        <pt x="389" y="368" on="0"/>
        <pt x="411" y="390" on="0"/>
      </contour>
    </TTGlyph>
    <TTGlyph name="chi" xMin="37" yMin="-202" xMax="679" yMax="452">
      <contour>
        <pt x="412" y="147" on="1"/>
        <pt x="422" y="110" on="0"/>
        <pt x="437" y="55" on="0"/>
        <pt x="452" y="9" on="0"/>
        <pt x="470" y="-33" on="0"/>
        <pt x="482" y="-57" on="1"/>
        <pt x="483" y="-59" on="0"/>
        <pt x="502" y="-94" on="0"/>
        <pt x="529" y="-134" on="0"/>
        <pt x="559" y="-166" on="0"/>
        <pt x="572" y="-166" on="1"/>
        <pt x="584" y="-166" on="0"/>
        <pt x="615" y="-146" on="0"/>
        <pt x="622" y="-126" on="1"/>
        <pt x="626" y="-115" on="0"/>
        <pt x="633" y="-111" on="0"/>
        <pt x="646" y="-111" on="1"/>
        <pt x="654" y="-111" on="0"/>
        <pt x="669" y="-114" on="0"/>
        <pt x="669" y="-125" on="1"/>
        <pt x="669" y="-128" on="0"/>
        <pt x="660" y="-152" on="0"/>
        <pt x="636" y="-180" on="0"/>
        <pt x="592" y="-202" on="0"/>
        <pt x="556" y="-202" on="1"/>
        <pt x="490" y="-202" on="0"/>
        <pt x="409" y="-172" on="0"/>
        <pt x="389" y="-138" on="1"/>
        <pt x="381" y="-125" on="0"/>
        <pt x="365" y="-92" on="0"/>
        <pt x="347" y="-48" on="0"/>
        <pt x="328" y="11" on="0"/>
        <pt x="317" y="52" on="1"/>
        <pt x="269" y="5" on="0"/>
        <pt x="183" y="-80" on="0"/>
        <pt x="118" y="-145" on="0"/>
        <pt x="77" y="-186" on="0"/>
        <pt x="72" y="-189" on="1"/>
        <pt x="72" y="-190" on="0"/>
        <pt x="65" y="-194" on="0"/>
        <pt x="59" y="-194" on="1"/>
        <pt x="48" y="-194" on="0"/>
        <pt x="37" y="-181" on="0"/>
        <pt x="37" y="-173" on="1"/>
        <pt x="37" y="-166" on="0"/>
        <pt x="43" y="-158" on="0"/>
        <pt x="51" y="-150" on="1"/>
        <pt x="304" y="103" on="1"/>
        <pt x="294" y="141" on="0"/>
        <pt x="279" y="196" on="0"/>
        <pt x="265" y="239" on="0"/>
        <pt x="250" y="277" on="0"/>
        <pt x="239" y="298" on="1"/>
        <pt x="238" y="300" on="0"/>
        <pt x="219" y="337" on="0"/>
        <pt x="190" y="380" on="0"/>
        <pt x="158" y="416" on="0"/>
        <pt x="145" y="416" on="1"/>
        <pt x="132" y="416" on="0"/>
        <pt x="102" y="395" on="0"/>
        <pt x="94" y="376" on="1"/>
        <pt x="91" y="365" on="0"/>
        <pt x="84" y="361" on="0"/>
        <pt x="70" y="361" on="1"/>
        <pt x="62" y="361" on="0"/>
        <pt x="47" y="364" on="0"/>
        <pt x="47" y="375" on="1"/>
        <pt x="47" y="379" on="0"/>
        <pt x="56" y="404" on="0"/>
        <pt x="82" y="431" on="0"/>
        <pt x="126" y="452" on="0"/>
        <pt x="161" y="452" on="1"/>
        <pt x="177" y="452" on="0"/>
        <pt x="221" y="450" on="0"/>
        <pt x="266" y="439" on="0"/>
        <pt x="308" y="418" on="0"/>
        <pt x="321" y="399" on="1"/>
        <pt x="335" y="380" on="0"/>
        <pt x="358" y="328" on="0"/>
        <pt x="378" y="273" on="0"/>
        <pt x="394" y="219" on="0"/>
        <pt x="400" y="197" on="1"/>
        <pt x="633" y="429" on="1"/>
        <pt x="642" y="438" on="0"/>
        <pt x="650" y="444" on="0"/>
        <pt x="658" y="444" on="1"/>
        <pt x="665" y="444" on="0"/>
        <pt x="679" y="433" on="0"/>
        <pt x="679" y="422" on="1"/>
        <pt x="679" y="415" on="0"/>
        <pt x="673" y="407" on="0"/>
        <pt x="665" y="399" on="1"/>
      </contour>
    </TTGlyph>
    <TTGlyph name="comma" xMin="81" yMin="-194" xMax="250" yMax="156">
      <contour>
        <pt x="214" y="21" on="1"/>
        <pt x="205" y="13" on="0"/>
        <pt x="177" y="0" on="0"/>
        <pt x="159" y="0" on="1"/>
        <pt x="121" y="0" on="0"/>
        <pt x="81" y="48" on="0"/>
        <pt x="81" y="78" on="1"/>
        <pt x="81" y="110" on="0"/>
        <pt x="123" y="156" on="0"/>
        <pt x="158" y="156" on="1"/>
        <pt x="179" y="156" on="0"/>
        <pt x="213" y="137" on="0"/>
        <pt x="237" y="103" on="0"/>
        <pt x="250" y="57" on="0"/>
        <pt x="250" y="31" on="1"/>
        <pt x="250" y="-21" on="0"/>
        <pt x="216" y="-104" on="0"/>
        <pt x="174" y="-163" on="0"/>
        <pt x="135" y="-194" on="0"/>
        <pt x="130" y="-194" on="1"/>
        <pt x="124" y="-194" on="0"/>
        <pt x="111" y="-180" on="0"/>
        <pt x="111" y="-175" on="1"/>
        <pt x="111" y="-170" on="0"/>
        <pt x="115" y="-165" on="0"/>
        <pt x="126" y="-156" on="1"/>
        <pt x="168" y="-121" on="0"/>
        <pt x="212" y="-27" on="0"/>
      </contour>
    </TTGlyph>
    <TTGlyph name="d" xMin="45" yMin="-8" xMax="604" yMax="694">
      <contour>
        <pt x="462" y="108" on="1"/>
        <pt x="456" y="87" on="0"/>
        <pt x="456" y="65" on="1"/>
        <pt x="456" y="40" on="0"/>
        <pt x="471" y="28" on="0"/>
        <pt x="479" y="28" on="1"/>
        <pt x="498" y="28" on="0"/>
        <pt x="532" y="68" on="0"/>
        <pt x="547" y="128" on="1"/>
        <pt x="552" y="147" on="0"/>
        <pt x="553" y="155" on="0"/>
        <pt x="555" y="157" on="1"/>
        <pt x="559" y="161" on="0"/>
        <pt x="567" y="162" on="0"/>
        <pt x="575" y="162" on="1"/>
        <pt x="582" y="162" on="0"/>
        <pt x="599" y="159" on="0"/>
        <pt x="599" y="148" on="1"/>
        <pt x="599" y="146" on="0"/>
        <pt x="594" y="126" on="0"/>
        <pt x="585" y="97" on="0"/>
        <pt x="570" y="64" on="0"/>
        <pt x="561" y="49" on="1"/>
        <pt x="545" y="22" on="0"/>
        <pt x="502" y="-8" on="0"/>
        <pt x="474" y="-8" on="1"/>
        <pt x="470" y="-8" on="0"/>
        <pt x="444" y="-6" on="0"/>
        <pt x="410" y="4" on="0"/>
        <pt x="373" y="26" on="0"/>
        <pt x="359" y="46" on="1"/>
        <pt x="353" y="40" on="0"/>
        <pt x="328" y="22" on="0"/>
        <pt x="292" y="5" on="0"/>
        <pt x="247" y="-8" on="0"/>
        <pt x="220" y="-8" on="1"/>
        <pt x="189" y="-8" on="0"/>
        <pt x="126" y="9" on="0"/>
        <pt x="76" y="48" on="0"/>
        <pt x="45" y="111" on="0"/>
        <pt x="45" y="157" on="1"/>
        <pt x="45" y="208" on="0"/>
        <pt x="84" y="313" on="0"/>
        <pt x="157" y="398" on="0"/>
        <pt x="262" y="452" on="0"/>
        <pt x="327" y="452" on="1"/>
        <pt x="367" y="452" on="0"/>
        <pt x="417" y="427" on="0"/>
        <pt x="428" y="416" on="1"/>
        <pt x="482" y="637" on="1"/>
        <pt x="472" y="639" on="0"/>
        <pt x="448" y="639" on="0"/>
        <pt x="440" y="639" on="1"/>
        <pt x="434" y="639" on="0"/>
        <pt x="414" y="643" on="0"/>
        <pt x="414" y="657" on="1"/>
        <pt x="414" y="678" on="0"/>
        <pt x="435" y="686" on="0"/>
        <pt x="446" y="687" on="1"/>
        <pt x="575" y="693" on="1"/>
        <pt x="577" y="694" on="0"/>
        <pt x="582" y="694" on="1"/>
        <pt x="590" y="694" on="0"/>
        <pt x="604" y="686" on="0"/>
        <pt x="604" y="676" on="1"/>
        <pt x="604" y="675" on="0"/>
        <pt x="603" y="670" on="0"/>
        <pt x="600" y="659" on="1"/>
      </contour>
      <contour>
        <pt x="410" y="344" on="1"/>
        <pt x="412" y="358" on="1"/>
        <pt x="412" y="362" on="0"/>
        <pt x="403" y="381" on="0"/>
        <pt x="383" y="401" on="0"/>
        <pt x="351" y="416" on="0"/>
        <pt x="329" y="416" on="1"/>
        <pt x="298" y="416" on="0"/>
        <pt x="231" y="373" on="0"/>
        <pt x="208" y="318" on="1"/>
        <pt x="202" y="303" on="0"/>
        <pt x="185" y="247" on="0"/>
        <pt x="169" y="184" on="0"/>
        <pt x="158" y="124" on="0"/>
        <pt x="158" y="104" on="1"/>
        <pt x="158" y="96" on="0"/>
        <pt x="162" y="70" on="0"/>
        <pt x="175" y="46" on="0"/>
        <pt x="202" y="28" on="0"/>
        <pt x="225" y="28" on="1"/>
        <pt x="261" y="28" on="0"/>
        <pt x="327" y="67" on="0"/>
        <pt x="349" y="93" on="1"/>
      </contour>
    </TTGlyph>
    <TTGlyph name="delta" xMin="46" yMin="-12" xMax="513" yMax="718">
      <contour>
        <pt x="284" y="444" on="1"/>
        <pt x="275" y="459" on="0"/>
        <pt x="254" y="499" on="0"/>
        <pt x="236" y="542" on="0"/>
        <pt x="224" y="587" on="0"/>
        <pt x="224" y="608" on="1"/>
        <pt x="224" y="635" on="0"/>
        <pt x="244" y="676" on="0"/>
        <pt x="276" y="704" on="0"/>
        <pt x="317" y="718" on="0"/>
        <pt x="337" y="718" on="1"/>
        <pt x="347" y="718" on="0"/>
        <pt x="376" y="714" on="0"/>
        <pt x="407" y="709" on="0"/>
        <pt x="435" y="703" on="0"/>
        <pt x="443" y="701" on="1"/>
        <pt x="484" y="693" on="0"/>
        <pt x="513" y="679" on="0"/>
        <pt x="513" y="657" on="1"/>
        <pt x="513" y="638" on="0"/>
        <pt x="483" y="603" on="0"/>
        <pt x="460" y="603" on="1"/>
        <pt x="444" y="603" on="0"/>
        <pt x="402" y="630" on="0"/>
        <pt x="388" y="641" on="1"/>
        <pt x="375" y="650" on="0"/>
        <pt x="339" y="671" on="0"/>
        <pt x="314" y="671" on="1"/>
        <pt x="300" y="671" on="0"/>
        <pt x="282" y="662" on="0"/>
        <pt x="271" y="651" on="0"/>
        <pt x="267" y="641" on="0"/>
        <pt x="267" y="639" on="1"/>
        <pt x="267" y="626" on="0"/>
        <pt x="296" y="585" on="0"/>
        <pt x="337" y="540" on="0"/>
        <pt x="383" y="496" on="0"/>
        <pt x="399" y="480" on="1"/>
        <pt x="415" y="465" on="0"/>
        <pt x="443" y="433" on="0"/>
        <pt x="464" y="393" on="0"/>
        <pt x="476" y="342" on="0"/>
        <pt x="476" y="308" on="1"/>
        <pt x="476" y="248" on="0"/>
        <pt x="442" y="133" on="0"/>
        <pt x="382" y="43" on="0"/>
        <pt x="299" y="-12" on="0"/>
        <pt x="249" y="-12" on="1"/>
        <pt x="209" y="-12" on="0"/>
        <pt x="135" y="8" on="0"/>
        <pt x="79" y="50" on="0"/>
        <pt x="46" y="116" on="0"/>
        <pt x="46" y="162" on="1"/>
        <pt x="46" y="195" on="0"/>
        <pt x="71" y="280" on="0"/>
        <pt x="127" y="361" on="0"/>
        <pt x="218" y="429" on="0"/>
      </contour>
      <contour>
        <pt x="306" y="407" on="1"/>
        <pt x="281" y="399" on="0"/>
        <pt x="245" y="374" on="0"/>
        <pt x="218" y="347" on="0"/>
        <pt x="201" y="321" on="0"/>
        <pt x="196" y="311" on="1"/>
        <pt x="189" y="297" on="0"/>
        <pt x="173" y="250" on="0"/>
        <pt x="159" y="197" on="0"/>
        <pt x="150" y="145" on="0"/>
        <pt x="150" y="125" on="1"/>
        <pt x="150" y="76" on="0"/>
        <pt x="202" y="24" on="0"/>
        <pt x="252" y="24" on="1"/>
        <pt x="273" y="24" on="0"/>
        <pt x="305" y="50" on="0"/>
        <pt x="330" y="91" on="0"/>
        <pt x="347" y="142" on="0"/>
        <pt x="357" y="190" on="0"/>
        <pt x="362" y="231" on="0"/>
        <pt x="362" y="242" on="1"/>
        <pt x="362" y="295" on="0"/>
        <pt x="325" y="378" on="0"/>
      </contour>
    </TTGlyph>
    <TTGlyph name="dotlessi" xMin="32" yMin="-8" xMax="359" yMax="452">
      <contour>
        <pt x="359" y="148" on="1"/>
        <pt x="359" y="140" on="0"/>
        <pt x="340" y="89" on="0"/>
        <pt x="301" y="35" on="0"/>
        <pt x="243" y="-8" on="0"/>
        <pt x="204" y="-8" on="1"/>
        <pt x="181" y="-8" on="0"/>
        <pt x="139" y="5" on="0"/>
        <pt x="108" y="29" on="0"/>
        <pt x="90" y="62" on="0"/>
        <pt x="90" y="82" on="1"/>
        <pt x="90" y="95" on="0"/>
        <pt x="98" y="116" on="1"/>
        <pt x="165" y="289" on="1"/>
        <pt x="183" y="334" on="0"/>
        <pt x="198" y="377" on="0"/>
        <pt x="198" y="394" on="1"/>
        <pt x="198" y="408" on="0"/>
        <pt x="190" y="416" on="0"/>
        <pt x="182" y="416" on="1"/>
        <pt x="174" y="416" on="0"/>
        <pt x="149" y="408" on="0"/>
        <pt x="120" y="382" on="0"/>
        <pt x="91" y="334" on="0"/>
        <pt x="79" y="295" on="1"/>
        <pt x="76" y="285" on="0"/>
        <pt x="65" y="282" on="0"/>
        <pt x="56" y="282" on="1"/>
        <pt x="49" y="282" on="0"/>
        <pt x="32" y="285" on="0"/>
        <pt x="32" y="296" on="1"/>
        <pt x="32" y="304" on="0"/>
        <pt x="51" y="355" on="0"/>
        <pt x="90" y="409" on="0"/>
        <pt x="148" y="452" on="0"/>
        <pt x="187" y="452" on="1"/>
        <pt x="210" y="452" on="0"/>
        <pt x="252" y="439" on="0"/>
        <pt x="283" y="415" on="0"/>
        <pt x="301" y="382" on="0"/>
        <pt x="301" y="362" on="1"/>
        <pt x="301" y="349" on="0"/>
        <pt x="293" y="328" on="1"/>
        <pt x="226" y="155" on="1"/>
        <pt x="208" y="110" on="0"/>
        <pt x="193" y="67" on="0"/>
        <pt x="193" y="50" on="1"/>
        <pt x="193" y="36" on="0"/>
        <pt x="201" y="28" on="0"/>
        <pt x="209" y="28" on="1"/>
        <pt x="217" y="28" on="0"/>
        <pt x="242" y="36" on="0"/>
        <pt x="271" y="62" on="0"/>
        <pt x="300" y="110" on="0"/>
        <pt x="312" y="149" on="1"/>
        <pt x="315" y="159" on="0"/>
        <pt x="326" y="162" on="0"/>
        <pt x="335" y="162" on="1"/>
        <pt x="342" y="162" on="0"/>
        <pt x="359" y="159" on="0"/>
      </contour>
    </TTGlyph>
    <TTGlyph name="e" xMin="49" yMin="-8" xMax="511" yMax="452">
      <contour>
        <pt x="178" y="218" on="1"/>
        <pt x="170" y="187" on="0"/>
        <pt x="163" y="139" on="0"/>
        <pt x="163" y="125" on="1"/>
        <pt x="163" y="82" on="0"/>
        <pt x="207" y="28" on="0"/>
        <pt x="261" y="28" on="1"/>
        <pt x="320" y="28" on="0"/>
        <pt x="430" y="64" on="0"/>
        <pt x="471" y="107" on="1"/>
        <pt x="476" y="113" on="0"/>
        <pt x="481" y="118" on="0"/>
        <pt x="486" y="118" on="1"/>
        <pt x="493" y="118" on="0"/>
        <pt x="511" y="98" on="0"/>
        <pt x="511" y="92" on="1"/>
        <pt x="511" y="88" on="0"/>
        <pt x="497" y="69" on="0"/>
        <pt x="471" y="47" on="0"/>
        <pt x="435" y="25" on="0"/>
        <pt x="413" y="16" on="1"/>
        <pt x="391" y="7" on="0"/>
        <pt x="344" y="-2" on="0"/>
        <pt x="302" y="-7" on="0"/>
        <pt x="268" y="-8" on="0"/>
        <pt x="258" y="-8" on="1"/>
        <pt x="158" y="-8" on="0"/>
        <pt x="49" y="85" on="0"/>
        <pt x="49" y="172" on="1"/>
        <pt x="49" y="230" on="0"/>
        <pt x="95" y="332" on="0"/>
        <pt x="177" y="408" on="0"/>
        <pt x="290" y="452" on="0"/>
        <pt x="358" y="452" on="1"/>
        <pt x="420" y="452" on="0"/>
        <pt x="495" y="400" on="0"/>
        <pt x="495" y="356" on="1"/>
        <pt x="495" y="307" on="0"/>
        <pt x="436" y="251" on="0"/>
        <pt x="351" y="224" on="0"/>
        <pt x="257" y="218" on="0"/>
        <pt x="222" y="218" on="1"/>
      </contour>
      <contour>
        <pt x="187" y="254" on="1"/>
        <pt x="223" y="254" on="0"/>
        <pt x="310" y="257" on="0"/>
        <pt x="385" y="276" on="0"/>
        <pt x="435" y="317" on="0"/>
        <pt x="435" y="355" on="1"/>
        <pt x="435" y="372" on="0"/>
        <pt x="421" y="395" on="0"/>
        <pt x="399" y="410" on="0"/>
        <pt x="372" y="416" on="0"/>
        <pt x="358" y="416" on="1"/>
        <pt x="321" y="416" on="0"/>
        <pt x="264" y="390" on="0"/>
        <pt x="222" y="345" on="0"/>
        <pt x="195" y="287" on="0"/>
      </contour>
    </TTGlyph>
    <TTGlyph name="eightoldstyle" xMin="48" yMin="-17" xMax="526" yMax="661">
      <contour>
        <pt x="390" y="369" on="1"/>
        <pt x="407" y="360" on="0"/>
        <pt x="432" y="345" on="0"/>
        <pt x="453" y="331" on="0"/>
        <pt x="471" y="315" on="0"/>
        <pt x="481" y="303" on="1"/>
        <pt x="526" y="249" on="0"/>
        <pt x="526" y="183" on="1"/>
        <pt x="526" y="142" on="0"/>
        <pt x="496" y="69" on="0"/>
        <pt x="436" y="15" on="0"/>
        <pt x="345" y="-17" on="0"/>
        <pt x="285" y="-17" on="1"/>
        <pt x="236" y="-17" on="0"/>
        <pt x="150" y="4" on="0"/>
        <pt x="86" y="47" on="0"/>
        <pt x="48" y="113" on="0"/>
        <pt x="48" y="158" on="1"/>
        <pt x="48" y="181" on="0"/>
        <pt x="60" y="227" on="0"/>
        <pt x="90" y="272" on="0"/>
        <pt x="140" y="312" on="0"/>
        <pt x="178" y="329" on="1"/>
        <pt x="160" y="339" on="0"/>
        <pt x="124" y="369" on="0"/>
        <pt x="97" y="408" on="0"/>
        <pt x="80" y="455" on="0"/>
        <pt x="80" y="483" on="1"/>
        <pt x="80" y="522" on="0"/>
        <pt x="108" y="587" on="0"/>
        <pt x="161" y="634" on="0"/>
        <pt x="239" y="661" on="0"/>
        <pt x="288" y="661" on="1"/>
        <pt x="334" y="661" on="0"/>
        <pt x="410" y="642" on="0"/>
        <pt x="464" y="604" on="0"/>
        <pt x="494" y="548" on="0"/>
        <pt x="494" y="511" on="1"/>
        <pt x="494" y="499" on="0"/>
        <pt x="489" y="465" on="0"/>
        <pt x="468" y="427" on="0"/>
        <pt x="426" y="387" on="0"/>
      </contour>
      <contour>
        <pt x="347" y="394" on="1"/>
        <pt x="361" y="402" on="0"/>
        <pt x="387" y="424" on="0"/>
        <pt x="408" y="452" on="0"/>
        <pt x="421" y="488" on="0"/>
        <pt x="421" y="510" on="1"/>
        <pt x="421" y="564" on="0"/>
        <pt x="348" y="622" on="0"/>
        <pt x="285" y="622" on="1"/>
        <pt x="265" y="622" on="0"/>
        <pt x="219" y="616" on="0"/>
        <pt x="179" y="598" on="0"/>
        <pt x="153" y="566" on="0"/>
        <pt x="153" y="540" on="1"/>
        <pt x="153" y="526" on="0"/>
        <pt x="163" y="505" on="0"/>
        <pt x="183" y="487" on="0"/>
        <pt x="213" y="469" on="0"/>
        <pt x="233" y="457" on="1"/>
      </contour>
      <contour>
        <pt x="224" y="303" on="1"/>
        <pt x="211" y="296" on="0"/>
        <pt x="180" y="273" on="0"/>
        <pt x="152" y="237" on="0"/>
        <pt x="133" y="190" on="0"/>
        <pt x="133" y="159" on="1"/>
        <pt x="133" y="94" on="0"/>
        <pt x="218" y="26" on="0"/>
        <pt x="289" y="26" on="1"/>
        <pt x="312" y="26" on="0"/>
        <pt x="365" y="34" on="0"/>
        <pt x="410" y="57" on="0"/>
        <pt x="441" y="98" on="0"/>
        <pt x="441" y="130" on="1"/>
        <pt x="441" y="168" on="0"/>
        <pt x="391" y="210" on="0"/>
        <pt x="352" y="232" on="1"/>
      </contour>
    </TTGlyph>
    <TTGlyph name="epsilon" xMin="35" yMin="-17" xMax="483" yMax="461">
      <contour>
        <pt x="412" y="108" on="1"/>
        <pt x="413" y="108" on="0"/>
        <pt x="418" y="111" on="0"/>
        <pt x="422" y="111" on="1"/>
        <pt x="430" y="111" on="0"/>
        <pt x="439" y="101" on="0"/>
        <pt x="439" y="94" on="1"/>
        <pt x="439" y="88" on="0"/>
        <pt x="418" y="52" on="0"/>
        <pt x="368" y="13" on="0"/>
        <pt x="285" y="-17" on="0"/>
        <pt x="224" y="-17" on="1"/>
        <pt x="174" y="-17" on="0"/>
        <pt x="102" y="4" on="0"/>
        <pt x="56" y="40" on="0"/>
        <pt x="35" y="87" on="0"/>
        <pt x="35" y="113" on="1"/>
        <pt x="35" y="149" on="0"/>
        <pt x="69" y="210" on="0"/>
        <pt x="100" y="236" on="1"/>
        <pt x="95" y="241" on="0"/>
        <pt x="79" y="271" on="0"/>
        <pt x="79" y="294" on="1"/>
        <pt x="79" y="321" on="0"/>
        <pt x="110" y="379" on="0"/>
        <pt x="173" y="429" on="0"/>
        <pt x="269" y="461" on="0"/>
        <pt x="333" y="461" on="1"/>
        <pt x="344" y="461" on="0"/>
        <pt x="397" y="456" on="0"/>
        <pt x="430" y="441" on="1"/>
        <pt x="458" y="427" on="0"/>
        <pt x="483" y="406" on="0"/>
        <pt x="483" y="392" on="1"/>
        <pt x="483" y="375" on="0"/>
        <pt x="454" y="347" on="0"/>
        <pt x="438" y="347" on="1"/>
        <pt x="429" y="347" on="0"/>
        <pt x="416" y="355" on="1"/>
        <pt x="384" y="378" on="0"/>
        <pt x="334" y="385" on="0"/>
        <pt x="314" y="385" on="1"/>
        <pt x="224" y="385" on="0"/>
        <pt x="126" y="336" on="0"/>
        <pt x="126" y="294" on="1"/>
        <pt x="126" y="286" on="0"/>
        <pt x="132" y="267" on="0"/>
        <pt x="138" y="259" on="1"/>
        <pt x="178" y="278" on="0"/>
        <pt x="250" y="284" on="0"/>
        <pt x="265" y="284" on="1"/>
        <pt x="277" y="284" on="0"/>
        <pt x="306" y="283" on="0"/>
        <pt x="332" y="275" on="0"/>
        <pt x="350" y="258" on="0"/>
        <pt x="350" y="243" on="1"/>
        <pt x="350" y="222" on="0"/>
        <pt x="325" y="200" on="0"/>
        <pt x="292" y="190" on="0"/>
        <pt x="257" y="188" on="0"/>
        <pt x="247" y="188" on="1"/>
        <pt x="240" y="188" on="0"/>
        <pt x="215" y="189" on="0"/>
        <pt x="183" y="193" on="0"/>
        <pt x="149" y="202" on="0"/>
        <pt x="134" y="210" on="1"/>
        <pt x="107" y="190" on="0"/>
        <pt x="84" y="141" on="0"/>
        <pt x="84" y="126" on="1"/>
        <pt x="84" y="101" on="0"/>
        <pt x="115" y="74" on="0"/>
        <pt x="162" y="61" on="0"/>
        <pt x="217" y="59" on="0"/>
        <pt x="241" y="59" on="1"/>
        <pt x="273" y="59" on="0"/>
        <pt x="328" y="62" on="0"/>
        <pt x="372" y="72" on="0"/>
        <pt x="403" y="91" on="0"/>
      </contour>
      <contour>
        <pt x="177" y="235" on="1"/>
        <pt x="198" y="227" on="0"/>
        <pt x="235" y="224" on="0"/>
        <pt x="248" y="224" on="1"/>
        <pt x="266" y="224" on="0"/>
        <pt x="287" y="227" on="0"/>
        <pt x="297" y="231" on="0"/>
        <pt x="302" y="239" on="0"/>
        <pt x="303" y="243" on="1"/>
        <pt x="294" y="246" on="0"/>
        <pt x="281" y="248" on="0"/>
        <pt x="261" y="248" on="1"/>
        <pt x="253" y="248" on="0"/>
        <pt x="204" y="245" on="0"/>
      </contour>
    </TTGlyph>
    <TTGlyph name="eta" xMin="32" yMin="-211" xMax="594" yMax="452">
      <contour>
        <pt x="478" y="-150" on="1"/>
        <pt x="472" y="-173" on="0"/>
        <pt x="453" y="-197" on="0"/>
        <pt x="433" y="-209" on="0"/>
        <pt x="415" y="-211" on="0"/>
        <pt x="411" y="-211" on="1"/>
        <pt x="395" y="-211" on="0"/>
        <pt x="364" y="-191" on="0"/>
        <pt x="364" y="-167" on="1"/>
        <pt x="364" y="-164" on="0"/>
        <pt x="365" y="-153" on="0"/>
        <pt x="368" y="-141" on="1"/>
        <pt x="479" y="300" on="1"/>
        <pt x="482" y="314" on="0"/>
        <pt x="487" y="338" on="0"/>
        <pt x="487" y="357" on="1"/>
        <pt x="487" y="394" on="0"/>
        <pt x="457" y="416" on="0"/>
        <pt x="437" y="416" on="1"/>
        <pt x="405" y="416" on="0"/>
        <pt x="355" y="394" on="0"/>
        <pt x="334" y="377" on="1"/>
        <pt x="322" y="367" on="0"/>
        <pt x="299" y="342" on="0"/>
        <pt x="283" y="319" on="0"/>
        <pt x="272" y="301" on="0"/>
        <pt x="272" y="299" on="1"/>
        <pt x="271" y="298" on="0"/>
        <pt x="263" y="264" on="0"/>
        <pt x="252" y="222" on="0"/>
        <pt x="243" y="185" on="0"/>
        <pt x="241" y="180" on="1"/>
        <pt x="233" y="148" on="0"/>
        <pt x="221" y="96" on="0"/>
        <pt x="213" y="68" on="1"/>
        <pt x="210" y="57" on="0"/>
        <pt x="202" y="30" on="0"/>
        <pt x="187" y="7" on="0"/>
        <pt x="162" y="-8" on="0"/>
        <pt x="142" y="-8" on="1"/>
        <pt x="119" y="-8" on="0"/>
        <pt x="95" y="20" on="0"/>
        <pt x="95" y="36" on="1"/>
        <pt x="95" y="41" on="0"/>
        <pt x="101" y="65" on="0"/>
        <pt x="103" y="76" on="1"/>
        <pt x="139" y="216" on="1"/>
        <pt x="143" y="233" on="0"/>
        <pt x="156" y="285" on="0"/>
        <pt x="161" y="306" on="1"/>
        <pt x="169" y="336" on="0"/>
        <pt x="175" y="366" on="0"/>
        <pt x="175" y="379" on="1"/>
        <pt x="175" y="404" on="0"/>
        <pt x="160" y="416" on="0"/>
        <pt x="152" y="416" on="1"/>
        <pt x="133" y="416" on="0"/>
        <pt x="99" y="376" on="0"/>
        <pt x="84" y="316" on="1"/>
        <pt x="79" y="297" on="0"/>
        <pt x="78" y="289" on="0"/>
        <pt x="76" y="287" on="1"/>
        <pt x="72" y="283" on="0"/>
        <pt x="64" y="282" on="0"/>
        <pt x="56" y="282" on="1"/>
        <pt x="49" y="282" on="0"/>
        <pt x="32" y="285" on="0"/>
        <pt x="32" y="296" on="1"/>
        <pt x="32" y="298" on="0"/>
        <pt x="37" y="318" on="0"/>
        <pt x="46" y="347" on="0"/>
        <pt x="61" y="380" on="0"/>
        <pt x="70" y="395" on="1"/>
        <pt x="86" y="422" on="0"/>
        <pt x="129" y="452" on="0"/>
        <pt x="157" y="452" on="1"/>
        <pt x="198" y="452" on="0"/>
        <pt x="269" y="414" on="0"/>
        <pt x="280" y="376" on="1"/>
        <pt x="307" y="405" on="0"/>
        <pt x="359" y="435" on="0"/>
        <pt x="404" y="450" on="0"/>
        <pt x="437" y="452" on="0"/>
        <pt x="445" y="452" on="1"/>
        <pt x="472" y="452" on="0"/>
        <pt x="525" y="442" on="0"/>
        <pt x="568" y="415" on="0"/>
        <pt x="594" y="371" on="0"/>
        <pt x="594" y="336" on="1"/>
        <pt x="594" y="317" on="0"/>
        <pt x="590" y="294" on="0"/>
        <pt x="586" y="280" on="1"/>
      </contour>
    </TTGlyph>
    <TTGlyph name="f" xMin="62" yMin="-202" xMax="626" yMax="702">
      <contour>
        <pt x="375" y="95" on="1"/>
        <pt x="374" y="89" on="0"/>
        <pt x="364" y="40" on="0"/>
        <pt x="347" y="-23" on="0"/>
        <pt x="322" y="-90" on="0"/>
        <pt x="306" y="-115" on="1"/>
        <pt x="303" y="-120" on="0"/>
        <pt x="281" y="-148" on="0"/>
        <pt x="246" y="-178" on="0"/>
        <pt x="199" y="-202" on="0"/>
        <pt x="171" y="-202" on="1"/>
        <pt x="152" y="-202" on="0"/>
        <pt x="113" y="-192" on="0"/>
        <pt x="81" y="-172" on="0"/>
        <pt x="62" y="-142" on="0"/>
        <pt x="62" y="-122" on="1"/>
        <pt x="62" y="-93" on="0"/>
        <pt x="103" y="-48" on="0"/>
        <pt x="134" y="-48" on="1"/>
        <pt x="153" y="-48" on="0"/>
        <pt x="183" y="-71" on="0"/>
        <pt x="183" y="-94" on="1"/>
        <pt x="183" y="-115" on="0"/>
        <pt x="158" y="-151" on="0"/>
        <pt x="139" y="-160" on="1"/>
        <pt x="144" y="-162" on="0"/>
        <pt x="159" y="-166" on="0"/>
        <pt x="173" y="-166" on="1"/>
        <pt x="185" y="-166" on="0"/>
        <pt x="203" y="-151" on="0"/>
        <pt x="215" y="-133" on="0"/>
        <pt x="222" y="-117" on="0"/>
        <pt x="223" y="-115" on="1"/>
        <pt x="225" y="-110" on="0"/>
        <pt x="230" y="-84" on="0"/>
        <pt x="236" y="-56" on="0"/>
        <pt x="240" y="-32" on="0"/>
        <pt x="241" y="-29" on="1"/>
        <pt x="317" y="397" on="1"/>
        <pt x="225" y="397" on="1"/>
        <pt x="213" y="397" on="0"/>
        <pt x="192" y="401" on="0"/>
        <pt x="192" y="415" on="1"/>
        <pt x="192" y="437" on="0"/>
        <pt x="214" y="444" on="0"/>
        <pt x="228" y="444" on="1"/>
        <pt x="326" y="444" on="1"/>
        <pt x="333" y="484" on="0"/>
        <pt x="343" y="541" on="0"/>
        <pt x="354" y="583" on="0"/>
        <pt x="365" y="613" on="0"/>
        <pt x="374" y="627" on="1"/>
        <pt x="400" y="669" on="0"/>
        <pt x="477" y="702" on="0"/>
        <pt x="512" y="702" on="1"/>
        <pt x="535" y="702" on="0"/>
        <pt x="577" y="691" on="0"/>
        <pt x="608" y="671" on="0"/>
        <pt x="626" y="641" on="0"/>
        <pt x="626" y="622" on="1"/>
        <pt x="626" y="593" on="0"/>
        <pt x="585" y="548" on="0"/>
        <pt x="554" y="548" on="1"/>
        <pt x="535" y="548" on="0"/>
        <pt x="505" y="571" on="0"/>
        <pt x="505" y="594" on="1"/>
        <pt x="505" y="614" on="0"/>
        <pt x="529" y="650" on="0"/>
        <pt x="547" y="659" on="1"/>
        <pt x="538" y="663" on="0"/>
        <pt x="523" y="666" on="0"/>
        <pt x="512" y="666" on="1"/>
        <pt x="508" y="666" on="0"/>
        <pt x="493" y="663" on="0"/>
        <pt x="483" y="654" on="1"/>
        <pt x="475" y="647" on="0"/>
        <pt x="472" y="639" on="0"/>
        <pt x="470" y="625" on="1"/>
        <pt x="437" y="444" on="1"/>
        <pt x="549" y="444" on="1"/>
        <pt x="562" y="444" on="0"/>
        <pt x="583" y="440" on="0"/>
        <pt x="583" y="426" on="1"/>
        <pt x="583" y="404" on="0"/>
        <pt x="560" y="397" on="0"/>
        <pt x="546" y="397" on="1"/>
        <pt x="429" y="397" on="1"/>
      </contour>
    </TTGlyph>
    <TTGlyph name="fiveoldstyle" xMin="57" yMin="-211" xMax="517" yMax="461">
      <contour>
        <pt x="160" y="178" on="1"/>
        <pt x="178" y="192" on="0"/>
        <pt x="243" y="217" on="0"/>
        <pt x="291" y="217" on="1"/>
        <pt x="345" y="217" on="0"/>
        <pt x="429" y="184" on="0"/>
        <pt x="487" y="127" on="0"/>
        <pt x="517" y="50" on="0"/>
        <pt x="517" y="6" on="1"/>
        <pt x="517" y="-42" on="0"/>
        <pt x="481" y="-121" on="0"/>
        <pt x="414" y="-179" on="0"/>
        <pt x="318" y="-211" on="0"/>
        <pt x="259" y="-211" on="1"/>
        <pt x="213" y="-211" on="0"/>
        <pt x="138" y="-181" on="0"/>
        <pt x="86" y="-132" on="0"/>
        <pt x="57" y="-69" on="0"/>
        <pt x="57" y="-36" on="1"/>
        <pt x="57" y="-2" on="0"/>
        <pt x="98" y="29" on="0"/>
        <pt x="120" y="29" on="1"/>
        <pt x="143" y="29" on="0"/>
        <pt x="183" y="-2" on="0"/>
        <pt x="183" y="-34" on="1"/>
        <pt x="183" y="-55" on="0"/>
        <pt x="157" y="-94" on="0"/>
        <pt x="122" y="-97" on="1"/>
        <pt x="135" y="-119" on="0"/>
        <pt x="171" y="-147" on="0"/>
        <pt x="208" y="-162" on="0"/>
        <pt x="243" y="-168" on="0"/>
        <pt x="255" y="-168" on="1"/>
        <pt x="292" y="-168" on="0"/>
        <pt x="340" y="-142" on="0"/>
        <pt x="352" y="-127" on="1"/>
        <pt x="372" y="-101" on="0"/>
        <pt x="378" y="-33" on="0"/>
        <pt x="378" y="8" on="1"/>
        <pt x="378" y="40" on="0"/>
        <pt x="375" y="102" on="0"/>
        <pt x="367" y="125" on="1"/>
        <pt x="364" y="134" on="0"/>
        <pt x="353" y="153" on="0"/>
        <pt x="333" y="170" on="0"/>
        <pt x="305" y="181" on="0"/>
        <pt x="287" y="181" on="1"/>
        <pt x="255" y="181" on="0"/>
        <pt x="209" y="167" on="0"/>
        <pt x="177" y="147" on="0"/>
        <pt x="157" y="126" on="0"/>
        <pt x="151" y="119" on="1"/>
        <pt x="146" y="113" on="0"/>
        <pt x="139" y="108" on="0"/>
        <pt x="130" y="108" on="1"/>
        <pt x="113" y="108" on="0"/>
        <pt x="107" y="127" on="0"/>
        <pt x="107" y="144" on="1"/>
        <pt x="107" y="428" on="1"/>
        <pt x="107" y="443" on="0"/>
        <pt x="111" y="461" on="0"/>
        <pt x="122" y="461" on="1"/>
        <pt x="124" y="461" on="0"/>
        <pt x="128" y="459" on="0"/>
        <pt x="134" y="457" on="1"/>
        <pt x="162" y="446" on="0"/>
        <pt x="239" y="429" on="0"/>
        <pt x="290" y="429" on="1"/>
        <pt x="328" y="429" on="0"/>
        <pt x="402" y="442" on="0"/>
        <pt x="437" y="454" on="1"/>
        <pt x="450" y="459" on="0"/>
        <pt x="456" y="461" on="0"/>
        <pt x="458" y="461" on="1"/>
        <pt x="466" y="461" on="0"/>
        <pt x="472" y="450" on="0"/>
        <pt x="472" y="443" on="1"/>
        <pt x="472" y="435" on="0"/>
        <pt x="455" y="410" on="0"/>
        <pt x="429" y="385" on="0"/>
        <pt x="399" y="360" on="0"/>
        <pt x="386" y="352" on="1"/>
        <pt x="338" y="323" on="0"/>
        <pt x="258" y="310" on="0"/>
        <pt x="235" y="310" on="1"/>
        <pt x="228" y="310" on="0"/>
        <pt x="187" y="312" on="0"/>
        <pt x="160" y="318" on="1"/>
      </contour>
    </TTGlyph>
    <TTGlyph name="fouroldstyle" xMin="32" yMin="-194" xMax="542" yMax="469">
      <contour>
        <pt x="444" y="47" on="1"/>
        <pt x="508" y="47" on="1"/>
        <pt x="525" y="47" on="0"/>
        <pt x="542" y="41" on="0"/>
        <pt x="542" y="23" on="1"/>
        <pt x="542" y="6" on="0"/>
        <pt x="525" y="0" on="0"/>
        <pt x="508" y="0" on="1"/>
        <pt x="444" y="0" on="1"/>
        <pt x="444" y="-124" on="1"/>
        <pt x="444" y="-135" on="0"/>
        <pt x="444" y="-141" on="0"/>
        <pt x="445" y="-143" on="1"/>
        <pt x="446" y="-145" on="0"/>
        <pt x="462" y="-146" on="0"/>
        <pt x="481" y="-147" on="0"/>
        <pt x="498" y="-147" on="0"/>
        <pt x="501" y="-147" on="1"/>
        <pt x="525" y="-147" on="0"/>
        <pt x="542" y="-153" on="0"/>
        <pt x="542" y="-171" on="1"/>
        <pt x="542" y="-194" on="0"/>
        <pt x="519" y="-194" on="1"/>
        <pt x="502" y="-194" on="0"/>
        <pt x="467" y="-192" on="0"/>
        <pt x="450" y="-192" on="1"/>
        <pt x="304" y="-192" on="1"/>
        <pt x="287" y="-192" on="0"/>
        <pt x="251" y="-194" on="0"/>
        <pt x="234" y="-194" on="1"/>
        <pt x="228" y="-194" on="0"/>
        <pt x="210" y="-188" on="0"/>
        <pt x="210" y="-171" on="1"/>
        <pt x="210" y="-153" on="0"/>
        <pt x="228" y="-147" on="0"/>
        <pt x="244" y="-147" on="1"/>
        <pt x="264" y="-147" on="1"/>
        <pt x="281" y="-147" on="0"/>
        <pt x="317" y="-144" on="0"/>
        <pt x="322" y="-144" on="1"/>
        <pt x="322" y="0" on="1"/>
        <pt x="66" y="0" on="1"/>
        <pt x="46" y="0" on="0"/>
        <pt x="32" y="7" on="0"/>
        <pt x="32" y="29" on="1"/>
        <pt x="32" y="40" on="0"/>
        <pt x="35" y="51" on="0"/>
        <pt x="44" y="62" on="1"/>
        <pt x="378" y="453" on="1"/>
        <pt x="388" y="464" on="0"/>
        <pt x="398" y="469" on="0"/>
        <pt x="414" y="469" on="1"/>
        <pt x="436" y="469" on="0"/>
        <pt x="444" y="456" on="0"/>
        <pt x="444" y="435" on="1"/>
      </contour>
      <contour>
        <pt x="85" y="47" on="1"/>
        <pt x="333" y="47" on="1"/>
        <pt x="333" y="339" on="1"/>
      </contour>
    </TTGlyph>
    <TTGlyph name="g" xMin="6" yMin="-202" xMax="534" yMax="452">
      <contour>
        <pt x="423" y="-61" on="1"/>
        <pt x="412" y="-106" on="0"/>
        <pt x="354" y="-161" on="0"/>
        <pt x="279" y="-192" on="0"/>
        <pt x="199" y="-202" on="0"/>
        <pt x="165" y="-202" on="1"/>
        <pt x="138" y="-202" on="0"/>
        <pt x="82" y="-199" on="0"/>
        <pt x="36" y="-185" on="0"/>
        <pt x="6" y="-157" on="0"/>
        <pt x="6" y="-132" on="1"/>
        <pt x="6" y="-97" on="0"/>
        <pt x="52" y="-58" on="0"/>
        <pt x="77" y="-58" on="1"/>
        <pt x="102" y="-58" on="0"/>
        <pt x="127" y="-87" on="0"/>
        <pt x="127" y="-104" on="1"/>
        <pt x="127" y="-106" on="0"/>
        <pt x="125" y="-118" on="0"/>
        <pt x="119" y="-135" on="0"/>
        <pt x="107" y="-154" on="0"/>
        <pt x="96" y="-162" on="1"/>
        <pt x="116" y="-165" on="0"/>
        <pt x="146" y="-166" on="0"/>
        <pt x="164" y="-166" on="1"/>
        <pt x="184" y="-166" on="0"/>
        <pt x="234" y="-157" on="0"/>
        <pt x="266" y="-131" on="1"/>
        <pt x="292" y="-110" on="0"/>
        <pt x="310" y="-66" on="0"/>
        <pt x="315" y="-44" on="1"/>
        <pt x="320" y="-25" on="0"/>
        <pt x="329" y="12" on="0"/>
        <pt x="334" y="31" on="1"/>
        <pt x="320" y="23" on="0"/>
        <pt x="263" y="0" on="0"/>
        <pt x="224" y="0" on="1"/>
        <pt x="192" y="0" on="0"/>
        <pt x="129" y="18" on="0"/>
        <pt x="80" y="57" on="0"/>
        <pt x="49" y="119" on="0"/>
        <pt x="49" y="163" on="1"/>
        <pt x="49" y="212" on="0"/>
        <pt x="87" y="315" on="0"/>
        <pt x="159" y="399" on="0"/>
        <pt x="264" y="452" on="0"/>
        <pt x="330" y="452" on="1"/>
        <pt x="375" y="452" on="0"/>
        <pt x="425" y="422" on="0"/>
        <pt x="436" y="411" on="1"/>
        <pt x="457" y="435" on="0"/>
        <pt x="487" y="435" on="1"/>
        <pt x="503" y="435" on="0"/>
        <pt x="534" y="415" on="0"/>
        <pt x="534" y="391" on="1"/>
        <pt x="534" y="388" on="0"/>
        <pt x="533" y="377" on="0"/>
        <pt x="530" y="365" on="1"/>
      </contour>
      <contour>
        <pt x="413" y="345" on="1"/>
        <pt x="415" y="353" on="0"/>
        <pt x="416" y="358" on="0"/>
        <pt x="416" y="360" on="1"/>
        <pt x="416" y="363" on="0"/>
        <pt x="407" y="381" on="0"/>
        <pt x="387" y="400" on="0"/>
        <pt x="355" y="416" on="0"/>
        <pt x="332" y="416" on="1"/>
        <pt x="321" y="416" on="0"/>
        <pt x="290" y="409" on="0"/>
        <pt x="256" y="388" on="0"/>
        <pt x="223" y="348" on="0"/>
        <pt x="210" y="316" on="1"/>
        <pt x="204" y="302" on="0"/>
        <pt x="188" y="248" on="0"/>
        <pt x="173" y="187" on="0"/>
        <pt x="162" y="129" on="0"/>
        <pt x="162" y="111" on="1"/>
        <pt x="162" y="71" on="0"/>
        <pt x="201" y="36" on="0"/>
        <pt x="230" y="36" on="1"/>
        <pt x="233" y="36" on="0"/>
        <pt x="253" y="38" on="0"/>
        <pt x="283" y="47" on="0"/>
        <pt x="319" y="66" on="0"/>
        <pt x="339" y="84" on="1"/>
        <pt x="348" y="92" on="0"/>
        <pt x="352" y="102" on="0"/>
        <pt x="355" y="113" on="1"/>
      </contour>
    </TTGlyph>
    <TTGlyph name="gamma" xMin="12" yMin="-211" xMax="617" yMax="452">
      <contour>
        <pt x="449" y="190" on="1"/>
        <pt x="503" y="311" on="0"/>
        <pt x="573" y="438" on="0"/>
        <pt x="575" y="440" on="1"/>
        <pt x="579" y="443" on="0"/>
        <pt x="586" y="444" on="0"/>
        <pt x="594" y="444" on="1"/>
        <pt x="601" y="444" on="0"/>
        <pt x="617" y="441" on="0"/>
        <pt x="617" y="430" on="1"/>
        <pt x="617" y="427" on="0"/>
        <pt x="605" y="404" on="0"/>
        <pt x="600" y="396" on="1"/>
        <pt x="546" y="299" on="0"/>
        <pt x="474" y="134" on="0"/>
        <pt x="454" y="77" on="1"/>
        <pt x="452" y="71" on="0"/>
        <pt x="451" y="64" on="0"/>
        <pt x="450" y="55" on="1"/>
        <pt x="446" y="16" on="0"/>
        <pt x="432" y="-54" on="0"/>
        <pt x="419" y="-112" on="0"/>
        <pt x="407" y="-153" on="0"/>
        <pt x="404" y="-162" on="1"/>
        <pt x="403" y="-167" on="0"/>
        <pt x="396" y="-183" on="0"/>
        <pt x="386" y="-199" on="0"/>
        <pt x="372" y="-211" on="0"/>
        <pt x="363" y="-211" on="1"/>
        <pt x="354" y="-211" on="0"/>
        <pt x="344" y="-202" on="0"/>
        <pt x="340" y="-191" on="0"/>
        <pt x="339" y="-179" on="0"/>
        <pt x="339" y="-176" on="1"/>
        <pt x="339" y="-162" on="0"/>
        <pt x="350" y="-111" on="0"/>
        <pt x="366" y="-48" on="0"/>
        <pt x="387" y="20" on="0"/>
        <pt x="397" y="50" on="1"/>
        <pt x="400" y="58" on="0"/>
        <pt x="403" y="70" on="0"/>
        <pt x="405" y="84" on="0"/>
        <pt x="406" y="103" on="0"/>
        <pt x="406" y="118" on="1"/>
        <pt x="406" y="133" on="0"/>
        <pt x="403" y="177" on="0"/>
        <pt x="395" y="223" on="0"/>
        <pt x="381" y="266" on="0"/>
        <pt x="371" y="281" on="1"/>
        <pt x="345" y="317" on="0"/>
        <pt x="258" y="342" on="0"/>
        <pt x="216" y="342" on="1"/>
        <pt x="197" y="342" on="0"/>
        <pt x="149" y="337" on="0"/>
        <pt x="104" y="321" on="0"/>
        <pt x="67" y="292" on="0"/>
        <pt x="59" y="268" on="1"/>
        <pt x="55" y="259" on="0"/>
        <pt x="43" y="256" on="0"/>
        <pt x="35" y="256" on="1"/>
        <pt x="28" y="256" on="0"/>
        <pt x="12" y="260" on="0"/>
        <pt x="12" y="271" on="1"/>
        <pt x="12" y="286" on="0"/>
        <pt x="43" y="347" on="0"/>
        <pt x="101" y="407" on="0"/>
        <pt x="184" y="452" on="0"/>
        <pt x="237" y="452" on="1"/>
        <pt x="276" y="452" on="0"/>
        <pt x="336" y="422" on="0"/>
        <pt x="382" y="375" on="0"/>
        <pt x="414" y="317" on="0"/>
        <pt x="435" y="259" on="0"/>
        <pt x="447" y="207" on="0"/>
      </contour>
    </TTGlyph>
    <TTGlyph name="greater" xMin="96" yMin="-86" xMax="797" yMax="587">
      <contour>
        <pt x="146" y="-80" on="1"/>
        <pt x="136" y="-86" on="0"/>
        <pt x="127" y="-86" on="1"/>
        <pt x="113" y="-86" on="0"/>
        <pt x="96" y="-67" on="0"/>
        <pt x="96" y="-56" on="1"/>
        <pt x="96" y="-36" on="0"/>
        <pt x="121" y="-24" on="1"/>
        <pt x="696" y="251" on="1"/>
        <pt x="121" y="525" on="1"/>
        <pt x="109" y="531" on="0"/>
        <pt x="96" y="545" on="0"/>
        <pt x="96" y="557" on="1"/>
        <pt x="96" y="569" on="0"/>
        <pt x="114" y="587" on="0"/>
        <pt x="126" y="587" on="1"/>
        <pt x="128" y="587" on="0"/>
        <pt x="138" y="585" on="0"/>
        <pt x="149" y="580" on="1"/>
        <pt x="772" y="282" on="1"/>
        <pt x="780" y="278" on="0"/>
        <pt x="797" y="265" on="0"/>
        <pt x="797" y="251" on="1"/>
        <pt x="797" y="237" on="0"/>
        <pt x="783" y="224" on="0"/>
        <pt x="772" y="219" on="1"/>
      </contour>
    </TTGlyph>
    <TTGlyph name="h" xMin="50" yMin="-8" xMax="634" yMax="694">
      <contour>
        <pt x="249" y="390" on="1"/>
        <pt x="275" y="413" on="0"/>
        <pt x="322" y="438" on="0"/>
        <pt x="362" y="450" on="0"/>
        <pt x="392" y="452" on="0"/>
        <pt x="400" y="452" on="1"/>
        <pt x="427" y="452" on="0"/>
        <pt x="480" y="442" on="0"/>
        <pt x="523" y="415" on="0"/>
        <pt x="549" y="371" on="0"/>
        <pt x="549" y="336" on="1"/>
        <pt x="549" y="315" on="0"/>
        <pt x="534" y="254" on="0"/>
        <pt x="513" y="191" on="0"/>
        <pt x="491" y="132" on="0"/>
        <pt x="484" y="114" on="1"/>
        <pt x="479" y="102" on="0"/>
        <pt x="467" y="66" on="0"/>
        <pt x="467" y="49" on="1"/>
        <pt x="467" y="33" on="0"/>
        <pt x="479" y="28" on="0"/>
        <pt x="484" y="28" on="1"/>
        <pt x="490" y="28" on="0"/>
        <pt x="515" y="35" on="0"/>
        <pt x="544" y="59" on="0"/>
        <pt x="575" y="107" on="0"/>
        <pt x="587" y="149" on="1"/>
        <pt x="590" y="159" on="0"/>
        <pt x="601" y="162" on="0"/>
        <pt x="610" y="162" on="1"/>
        <pt x="617" y="162" on="0"/>
        <pt x="634" y="159" on="0"/>
        <pt x="634" y="148" on="1"/>
        <pt x="634" y="141" on="0"/>
        <pt x="615" y="90" on="0"/>
        <pt x="576" y="35" on="0"/>
        <pt x="518" y="-8" on="0"/>
        <pt x="478" y="-8" on="1"/>
        <pt x="457" y="-8" on="0"/>
        <pt x="417" y="4" on="0"/>
        <pt x="385" y="27" on="0"/>
        <pt x="365" y="60" on="0"/>
        <pt x="365" y="82" on="1"/>
        <pt x="365" y="95" on="0"/>
        <pt x="371" y="113" on="0"/>
        <pt x="379" y="133" on="1"/>
        <pt x="386" y="151" on="0"/>
        <pt x="408" y="210" on="0"/>
        <pt x="428" y="274" on="0"/>
        <pt x="442" y="335" on="0"/>
        <pt x="442" y="357" on="1"/>
        <pt x="442" y="394" on="0"/>
        <pt x="412" y="416" on="0"/>
        <pt x="392" y="416" on="1"/>
        <pt x="361" y="416" on="0"/>
        <pt x="311" y="394" on="0"/>
        <pt x="274" y="364" on="0"/>
        <pt x="249" y="334" on="0"/>
        <pt x="243" y="326" on="1"/>
        <pt x="232" y="311" on="0"/>
        <pt x="227" y="299" on="0"/>
        <pt x="223" y="285" on="1"/>
        <pt x="163" y="48" on="1"/>
        <pt x="158" y="27" on="0"/>
        <pt x="138" y="4" on="0"/>
        <pt x="117" y="-6" on="0"/>
        <pt x="100" y="-8" on="0"/>
        <pt x="98" y="-8" on="1"/>
        <pt x="76" y="-8" on="0"/>
        <pt x="50" y="19" on="0"/>
        <pt x="50" y="37" on="1"/>
        <pt x="50" y="40" on="0"/>
        <pt x="53" y="57" on="0"/>
        <pt x="54" y="60" on="1"/>
        <pt x="198" y="637" on="1"/>
        <pt x="188" y="639" on="0"/>
        <pt x="164" y="639" on="0"/>
        <pt x="156" y="639" on="1"/>
        <pt x="150" y="639" on="0"/>
        <pt x="130" y="643" on="0"/>
        <pt x="130" y="657" on="1"/>
        <pt x="130" y="678" on="0"/>
        <pt x="151" y="686" on="0"/>
        <pt x="162" y="687" on="1"/>
        <pt x="291" y="693" on="1"/>
        <pt x="293" y="694" on="0"/>
        <pt x="298" y="694" on="1"/>
        <pt x="306" y="694" on="0"/>
        <pt x="320" y="686" on="0"/>
        <pt x="320" y="676" on="1"/>
        <pt x="320" y="675" on="0"/>
        <pt x="319" y="670" on="0"/>
        <pt x="316" y="659" on="1"/>
      </contour>
    </TTGlyph>
    <TTGlyph name="i" xMin="32" yMin="-8" xMax="359" yMax="694">
      <contour>
        <pt x="334" y="646" on="1"/>
        <pt x="334" y="633" on="0"/>
        <pt x="322" y="609" on="0"/>
        <pt x="303" y="589" on="0"/>
        <pt x="277" y="577" on="0"/>
        <pt x="263" y="577" on="1"/>
        <pt x="241" y="577" on="0"/>
        <pt x="214" y="605" on="0"/>
        <pt x="214" y="625" on="1"/>
        <pt x="214" y="651" on="0"/>
        <pt x="256" y="694" on="0"/>
        <pt x="285" y="694" on="1"/>
        <pt x="306" y="694" on="0"/>
        <pt x="334" y="666" on="0"/>
      </contour>
      <contour>
        <pt x="359" y="148" on="1"/>
        <pt x="359" y="140" on="0"/>
        <pt x="340" y="89" on="0"/>
        <pt x="301" y="35" on="0"/>
        <pt x="243" y="-8" on="0"/>
        <pt x="204" y="-8" on="1"/>
        <pt x="181" y="-8" on="0"/>
        <pt x="139" y="5" on="0"/>
        <pt x="108" y="29" on="0"/>
        <pt x="90" y="62" on="0"/>
        <pt x="90" y="82" on="1"/>
        <pt x="90" y="95" on="0"/>
        <pt x="98" y="116" on="1"/>
        <pt x="165" y="289" on="1"/>
        <pt x="183" y="334" on="0"/>
        <pt x="198" y="377" on="0"/>
        <pt x="198" y="394" on="1"/>
        <pt x="198" y="408" on="0"/>
        <pt x="190" y="416" on="0"/>
        <pt x="182" y="416" on="1"/>
        <pt x="174" y="416" on="0"/>
        <pt x="149" y="408" on="0"/>
        <pt x="120" y="382" on="0"/>
        <pt x="91" y="334" on="0"/>
        <pt x="79" y="295" on="1"/>
        <pt x="76" y="285" on="0"/>
        <pt x="65" y="282" on="0"/>
        <pt x="56" y="282" on="1"/>
        <pt x="49" y="282" on="0"/>
        <pt x="32" y="285" on="0"/>
        <pt x="32" y="296" on="1"/>
        <pt x="32" y="304" on="0"/>
        <pt x="51" y="355" on="0"/>
        <pt x="90" y="409" on="0"/>
        <pt x="148" y="452" on="0"/>
        <pt x="187" y="452" on="1"/>
        <pt x="210" y="452" on="0"/>
        <pt x="252" y="439" on="0"/>
        <pt x="283" y="415" on="0"/>
        <pt x="301" y="382" on="0"/>
        <pt x="301" y="362" on="1"/>
        <pt x="301" y="349" on="0"/>
        <pt x="293" y="328" on="1"/>
        <pt x="226" y="155" on="1"/>
        <pt x="208" y="110" on="0"/>
        <pt x="193" y="67" on="0"/>
        <pt x="193" y="50" on="1"/>
        <pt x="193" y="36" on="0"/>
        <pt x="201" y="28" on="0"/>
        <pt x="209" y="28" on="1"/>
        <pt x="217" y="28" on="0"/>
        <pt x="242" y="36" on="0"/>
        <pt x="271" y="62" on="0"/>
        <pt x="300" y="110" on="0"/>
        <pt x="312" y="149" on="1"/>
        <pt x="315" y="159" on="0"/>
        <pt x="326" y="162" on="0"/>
        <pt x="335" y="162" on="1"/>
        <pt x="342" y="162" on="0"/>
        <pt x="359" y="159" on="0"/>
      </contour>
    </TTGlyph>
    <TTGlyph name="iota" xMin="46" yMin="-8" xMax="378" yMax="452">
      <contour>
        <pt x="378" y="148" on="1"/>
        <pt x="378" y="145" on="0"/>
        <pt x="372" y="123" on="0"/>
        <pt x="355" y="92" on="0"/>
        <pt x="326" y="57" on="0"/>
        <pt x="303" y="40" on="1"/>
        <pt x="261" y="9" on="0"/>
        <pt x="184" y="-8" on="0"/>
        <pt x="162" y="-8" on="1"/>
        <pt x="111" y="-8" on="0"/>
        <pt x="46" y="42" on="0"/>
        <pt x="46" y="82" on="1"/>
        <pt x="46" y="105" on="0"/>
        <pt x="69" y="154" on="0"/>
        <pt x="76" y="177" on="1"/>
        <pt x="81" y="194" on="0"/>
        <pt x="83" y="200" on="0"/>
        <pt x="84" y="202" on="0"/>
        <pt x="86" y="208" on="0"/>
        <pt x="91" y="225" on="1"/>
        <pt x="95" y="239" on="0"/>
        <pt x="105" y="273" on="0"/>
        <pt x="109" y="283" on="1"/>
        <pt x="111" y="290" on="0"/>
        <pt x="116" y="312" on="0"/>
        <pt x="122" y="336" on="0"/>
        <pt x="128" y="358" on="0"/>
        <pt x="131" y="365" on="1"/>
        <pt x="133" y="370" on="0"/>
        <pt x="137" y="394" on="0"/>
        <pt x="139" y="399" on="1"/>
        <pt x="141" y="405" on="0"/>
        <pt x="150" y="423" on="0"/>
        <pt x="165" y="440" on="0"/>
        <pt x="188" y="452" on="0"/>
        <pt x="205" y="452" on="1"/>
        <pt x="228" y="452" on="0"/>
        <pt x="252" y="424" on="0"/>
        <pt x="252" y="408" on="1"/>
        <pt x="252" y="405" on="0"/>
        <pt x="239" y="350" on="0"/>
        <pt x="216" y="266" on="0"/>
        <pt x="184" y="164" on="0"/>
        <pt x="164" y="113" on="1"/>
        <pt x="159" y="100" on="0"/>
        <pt x="148" y="65" on="0"/>
        <pt x="148" y="49" on="1"/>
        <pt x="148" y="33" on="0"/>
        <pt x="160" y="28" on="0"/>
        <pt x="167" y="28" on="1"/>
        <pt x="181" y="28" on="0"/>
        <pt x="226" y="39" on="0"/>
        <pt x="275" y="66" on="0"/>
        <pt x="319" y="113" on="0"/>
        <pt x="331" y="149" on="1"/>
        <pt x="334" y="159" on="0"/>
        <pt x="345" y="162" on="0"/>
        <pt x="354" y="162" on="1"/>
        <pt x="361" y="162" on="0"/>
        <pt x="378" y="159" on="0"/>
      </contour>
    </TTGlyph>
</ttFont>
